<?xml version="1.0" encoding="UTF-8" standalone="no"?>
<!DOCTYPE svg PUBLIC "-//W3C//DTD SVG 1.1//EN"
 "http://www.w3.org/Graphics/SVG/1.1/DTD/svg11.dtd">
<!-- Generated by graphviz version 2.43.0 (0)
 -->
<!-- Title: snakemake_dag Pages: 1 -->
<svg width="1262pt" height="332pt"
 viewBox="0.00 0.00 1262.00 332.00" xmlns="http://www.w3.org/2000/svg" xmlns:xlink="http://www.w3.org/1999/xlink">
<g id="graph0" class="graph" transform="scale(1 1) rotate(0) translate(4 328)">
<title>snakemake_dag</title>
<polygon fill="white" stroke="transparent" points="-4,4 -4,-328 1258,-328 1258,4 -4,4"/>
<!-- 0 -->
<g id="node1" class="node">
<title>0</title>
<path fill="none" stroke="#d85656" stroke-width="2" d="M639.5,-36C639.5,-36 609.5,-36 609.5,-36 603.5,-36 597.5,-30 597.5,-24 597.5,-24 597.5,-12 597.5,-12 597.5,-6 603.5,0 609.5,0 609.5,0 639.5,0 639.5,0 645.5,0 651.5,-6 651.5,-12 651.5,-12 651.5,-24 651.5,-24 651.5,-30 645.5,-36 639.5,-36"/>
<text text-anchor="middle" x="624.5" y="-15.5" font-family="sans" font-size="10.00">all</text>
</g>
<!-- 1 -->
<g id="node2" class="node">
<title>1</title>
<path fill="none" stroke="#d8ac56" stroke-width="2" d="M71,-108C71,-108 12,-108 12,-108 6,-108 0,-102 0,-96 0,-96 0,-84 0,-84 0,-78 6,-72 12,-72 12,-72 71,-72 71,-72 77,-72 83,-78 83,-84 83,-84 83,-96 83,-96 83,-102 77,-108 71,-108"/>
<text text-anchor="middle" x="41.5" y="-87.5" font-family="sans" font-size="10.00">calculate_stats</text>
</g>
<!-- 1&#45;&gt;0 -->
<g id="edge1" class="edge">
<title>1&#45;&gt;0</title>
<path fill="none" stroke="grey" stroke-width="2" d="M83.04,-74.08C85.88,-73.31 88.72,-72.6 91.5,-72 274.49,-32.34 499.36,-22.28 587.02,-19.79"/>
<polygon fill="grey" stroke="grey" stroke-width="2" points="587.36,-23.29 597.26,-19.52 587.17,-16.29 587.36,-23.29"/>
</g>
<!-- 2 -->
<g id="node3" class="node">
<title>2</title>
<path fill="none" stroke="#56a9d8" stroke-width="2" d="M109.5,-252C109.5,-252 79.5,-252 79.5,-252 73.5,-252 67.5,-246 67.5,-240 67.5,-240 67.5,-228 67.5,-228 67.5,-222 73.5,-216 79.5,-216 79.5,-216 109.5,-216 109.5,-216 115.5,-216 121.5,-222 121.5,-228 121.5,-228 121.5,-240 121.5,-240 121.5,-246 115.5,-252 109.5,-252"/>
<text text-anchor="middle" x="94.5" y="-231.5" font-family="sans" font-size="10.00">sort</text>
</g>
<!-- 2&#45;&gt;1 -->
<g id="edge13" class="edge">
<title>2&#45;&gt;1</title>
<path fill="none" stroke="grey" stroke-width="2" d="M80.23,-215.9C72.67,-205.99 63.86,-192.95 58.5,-180 50.34,-160.29 46.05,-136.48 43.83,-118.46"/>
<polygon fill="grey" stroke="grey" stroke-width="2" points="47.28,-117.88 42.72,-108.32 40.33,-118.65 47.28,-117.88"/>
</g>
<!-- 4 -->
<g id="node5" class="node">
<title>4</title>
<path fill="none" stroke="#56d8a9" stroke-width="2" d="M109.5,-180C109.5,-180 79.5,-180 79.5,-180 73.5,-180 67.5,-174 67.5,-168 67.5,-168 67.5,-156 67.5,-156 67.5,-150 73.5,-144 79.5,-144 79.5,-144 109.5,-144 109.5,-144 115.5,-144 121.5,-150 121.5,-156 121.5,-156 121.5,-168 121.5,-168 121.5,-174 115.5,-180 109.5,-180"/>
<text text-anchor="middle" x="94.5" y="-159.5" font-family="sans" font-size="10.00">index</text>
</g>
<!-- 2&#45;&gt;4 -->
<g id="edge16" class="edge">
<title>2&#45;&gt;4</title>
<path fill="none" stroke="grey" stroke-width="2" d="M94.5,-215.7C94.5,-207.98 94.5,-198.71 94.5,-190.11"/>
<polygon fill="grey" stroke="grey" stroke-width="2" points="98,-190.1 94.5,-180.1 91,-190.1 98,-190.1"/>
</g>
<!-- 25 -->
<g id="node26" class="node">
<title>25</title>
<path fill="none" stroke="#59d856" stroke-width="2" d="M182,-108C182,-108 113,-108 113,-108 107,-108 101,-102 101,-96 101,-96 101,-84 101,-84 101,-78 107,-72 113,-72 113,-72 182,-72 182,-72 188,-72 194,-78 194,-84 194,-84 194,-96 194,-96 194,-102 188,-108 182,-108"/>
<text text-anchor="middle" x="147.5" y="-87.5" font-family="sans" font-size="10.00">extract_mapping</text>
</g>
<!-- 2&#45;&gt;25 -->
<g id="edge37" class="edge">
<title>2&#45;&gt;25</title>
<path fill="none" stroke="grey" stroke-width="2" d="M108.77,-215.9C116.33,-205.99 125.14,-192.95 130.5,-180 138.66,-160.29 142.95,-136.48 145.17,-118.46"/>
<polygon fill="grey" stroke="grey" stroke-width="2" points="148.67,-118.65 146.28,-108.32 141.72,-117.88 148.67,-118.65"/>
</g>
<!-- 3 -->
<g id="node4" class="node">
<title>3</title>
<path fill="none" stroke="#afd856" stroke-width="2" d="M147.5,-324C147.5,-324 41.5,-324 41.5,-324 35.5,-324 29.5,-318 29.5,-312 29.5,-312 29.5,-300 29.5,-300 29.5,-294 35.5,-288 41.5,-288 41.5,-288 147.5,-288 147.5,-288 153.5,-288 159.5,-294 159.5,-300 159.5,-300 159.5,-312 159.5,-312 159.5,-318 153.5,-324 147.5,-324"/>
<text text-anchor="middle" x="94.5" y="-309" font-family="sans" font-size="10.00">convert</text>
<text text-anchor="middle" x="94.5" y="-298" font-family="sans" font-size="10.00">sample: ERR024605_tiny</text>
</g>
<!-- 3&#45;&gt;2 -->
<g id="edge15" class="edge">
<title>3&#45;&gt;2</title>
<path fill="none" stroke="grey" stroke-width="2" d="M94.5,-287.7C94.5,-279.98 94.5,-270.71 94.5,-262.11"/>
<polygon fill="grey" stroke="grey" stroke-width="2" points="98,-262.1 94.5,-252.1 91,-262.1 98,-262.1"/>
</g>
<!-- 4&#45;&gt;1 -->
<g id="edge14" class="edge">
<title>4&#45;&gt;1</title>
<path fill="none" stroke="grey" stroke-width="2" d="M81.4,-143.7C75.11,-135.39 67.45,-125.28 60.54,-116.14"/>
<polygon fill="grey" stroke="grey" stroke-width="2" points="63.28,-113.96 54.45,-108.1 57.7,-118.19 63.28,-113.96"/>
</g>
<!-- 4&#45;&gt;25 -->
<g id="edge38" class="edge">
<title>4&#45;&gt;25</title>
<path fill="none" stroke="grey" stroke-width="2" d="M107.6,-143.7C113.89,-135.39 121.55,-125.28 128.46,-116.14"/>
<polygon fill="grey" stroke="grey" stroke-width="2" points="131.3,-118.19 134.55,-108.1 125.72,-113.96 131.3,-118.19"/>
</g>
<!-- 5 -->
<g id="node6" class="node">
<title>5</title>
<path fill="none" stroke="#d8ac56" stroke-width="2" d="M283,-108C283,-108 224,-108 224,-108 218,-108 212,-102 212,-96 212,-96 212,-84 212,-84 212,-78 218,-72 224,-72 224,-72 283,-72 283,-72 289,-72 295,-78 295,-84 295,-84 295,-96 295,-96 295,-102 289,-108 283,-108"/>
<text text-anchor="middle" x="253.5" y="-87.5" font-family="sans" font-size="10.00">calculate_stats</text>
</g>
<!-- 5&#45;&gt;0 -->
<g id="edge2" class="edge">
<title>5&#45;&gt;0</title>
<path fill="none" stroke="grey" stroke-width="2" d="M295.09,-74.29C297.92,-73.46 300.74,-72.69 303.5,-72 404.54,-46.66 526.6,-30.33 586.95,-23.17"/>
<polygon fill="grey" stroke="grey" stroke-width="2" points="587.61,-26.62 597.14,-21.98 586.8,-19.66 587.61,-26.62"/>
</g>
<!-- 6 -->
<g id="node7" class="node">
<title>6</title>
<path fill="none" stroke="#56a9d8" stroke-width="2" d="M321.5,-252C321.5,-252 291.5,-252 291.5,-252 285.5,-252 279.5,-246 279.5,-240 279.5,-240 279.5,-228 279.5,-228 279.5,-222 285.5,-216 291.5,-216 291.5,-216 321.5,-216 321.5,-216 327.5,-216 333.5,-222 333.5,-228 333.5,-228 333.5,-240 333.5,-240 333.5,-246 327.5,-252 321.5,-252"/>
<text text-anchor="middle" x="306.5" y="-231.5" font-family="sans" font-size="10.00">sort</text>
</g>
<!-- 6&#45;&gt;5 -->
<g id="edge17" class="edge">
<title>6&#45;&gt;5</title>
<path fill="none" stroke="grey" stroke-width="2" d="M292.23,-215.9C284.67,-205.99 275.86,-192.95 270.5,-180 262.34,-160.29 258.05,-136.48 255.83,-118.46"/>
<polygon fill="grey" stroke="grey" stroke-width="2" points="259.28,-117.88 254.72,-108.32 252.33,-118.65 259.28,-117.88"/>
</g>
<!-- 8 -->
<g id="node9" class="node">
<title>8</title>
<path fill="none" stroke="#56d8a9" stroke-width="2" d="M321.5,-180C321.5,-180 291.5,-180 291.5,-180 285.5,-180 279.5,-174 279.5,-168 279.5,-168 279.5,-156 279.5,-156 279.5,-150 285.5,-144 291.5,-144 291.5,-144 321.5,-144 321.5,-144 327.5,-144 333.5,-150 333.5,-156 333.5,-156 333.5,-168 333.5,-168 333.5,-174 327.5,-180 321.5,-180"/>
<text text-anchor="middle" x="306.5" y="-159.5" font-family="sans" font-size="10.00">index</text>
</g>
<!-- 6&#45;&gt;8 -->
<g id="edge20" class="edge">
<title>6&#45;&gt;8</title>
<path fill="none" stroke="grey" stroke-width="2" d="M306.5,-215.7C306.5,-207.98 306.5,-198.71 306.5,-190.11"/>
<polygon fill="grey" stroke="grey" stroke-width="2" points="310,-190.1 306.5,-180.1 303,-190.1 310,-190.1"/>
</g>
<!-- 26 -->
<g id="node27" class="node">
<title>26</title>
<path fill="none" stroke="#59d856" stroke-width="2" d="M394,-108C394,-108 325,-108 325,-108 319,-108 313,-102 313,-96 313,-96 313,-84 313,-84 313,-78 319,-72 325,-72 325,-72 394,-72 394,-72 400,-72 406,-78 406,-84 406,-84 406,-96 406,-96 406,-102 400,-108 394,-108"/>
<text text-anchor="middle" x="359.5" y="-87.5" font-family="sans" font-size="10.00">extract_mapping</text>
</g>
<!-- 6&#45;&gt;26 -->
<g id="edge39" class="edge">
<title>6&#45;&gt;26</title>
<path fill="none" stroke="grey" stroke-width="2" d="M320.77,-215.9C328.33,-205.99 337.14,-192.95 342.5,-180 350.66,-160.29 354.95,-136.48 357.17,-118.46"/>
<polygon fill="grey" stroke="grey" stroke-width="2" points="360.67,-118.65 358.28,-108.32 353.72,-117.88 360.67,-118.65"/>
</g>
<!-- 7 -->
<g id="node8" class="node">
<title>7</title>
<path fill="none" stroke="#afd856" stroke-width="2" d="M359.5,-324C359.5,-324 253.5,-324 253.5,-324 247.5,-324 241.5,-318 241.5,-312 241.5,-312 241.5,-300 241.5,-300 241.5,-294 247.5,-288 253.5,-288 253.5,-288 359.5,-288 359.5,-288 365.5,-288 371.5,-294 371.5,-300 371.5,-300 371.5,-312 371.5,-312 371.5,-318 365.5,-324 359.5,-324"/>
<text text-anchor="middle" x="306.5" y="-309" font-family="sans" font-size="10.00">convert</text>
<text text-anchor="middle" x="306.5" y="-298" font-family="sans" font-size="10.00">sample: ERR024608_tiny</text>
</g>
<!-- 7&#45;&gt;6 -->
<g id="edge19" class="edge">
<title>7&#45;&gt;6</title>
<path fill="none" stroke="grey" stroke-width="2" d="M306.5,-287.7C306.5,-279.98 306.5,-270.71 306.5,-262.11"/>
<polygon fill="grey" stroke="grey" stroke-width="2" points="310,-262.1 306.5,-252.1 303,-262.1 310,-262.1"/>
</g>
<!-- 8&#45;&gt;5 -->
<g id="edge18" class="edge">
<title>8&#45;&gt;5</title>
<path fill="none" stroke="grey" stroke-width="2" d="M293.4,-143.7C287.11,-135.39 279.45,-125.28 272.54,-116.14"/>
<polygon fill="grey" stroke="grey" stroke-width="2" points="275.28,-113.96 266.45,-108.1 269.7,-118.19 275.28,-113.96"/>
</g>
<!-- 8&#45;&gt;26 -->
<g id="edge40" class="edge">
<title>8&#45;&gt;26</title>
<path fill="none" stroke="grey" stroke-width="2" d="M319.6,-143.7C325.89,-135.39 333.55,-125.28 340.46,-116.14"/>
<polygon fill="grey" stroke="grey" stroke-width="2" points="343.3,-118.19 346.55,-108.1 337.72,-113.96 343.3,-118.19"/>
</g>
<!-- 9 -->
<g id="node10" class="node">
<title>9</title>
<path fill="none" stroke="#d8ac56" stroke-width="2" d="M495,-108C495,-108 436,-108 436,-108 430,-108 424,-102 424,-96 424,-96 424,-84 424,-84 424,-78 430,-72 436,-72 436,-72 495,-72 495,-72 501,-72 507,-78 507,-84 507,-84 507,-96 507,-96 507,-102 501,-108 495,-108"/>
<text text-anchor="middle" x="465.5" y="-87.5" font-family="sans" font-size="10.00">calculate_stats</text>
</g>
<!-- 9&#45;&gt;0 -->
<g id="edge3" class="edge">
<title>9&#45;&gt;0</title>
<path fill="none" stroke="grey" stroke-width="2" d="M504.4,-71.88C529.99,-60.61 563.27,-45.96 588.3,-34.94"/>
<polygon fill="grey" stroke="grey" stroke-width="2" points="589.72,-38.14 597.46,-30.9 586.9,-31.73 589.72,-38.14"/>
</g>
<!-- 10 -->
<g id="node11" class="node">
<title>10</title>
<path fill="none" stroke="#56a9d8" stroke-width="2" d="M533.5,-252C533.5,-252 503.5,-252 503.5,-252 497.5,-252 491.5,-246 491.5,-240 491.5,-240 491.5,-228 491.5,-228 491.5,-222 497.5,-216 503.5,-216 503.5,-216 533.5,-216 533.5,-216 539.5,-216 545.5,-222 545.5,-228 545.5,-228 545.5,-240 545.5,-240 545.5,-246 539.5,-252 533.5,-252"/>
<text text-anchor="middle" x="518.5" y="-231.5" font-family="sans" font-size="10.00">sort</text>
</g>
<!-- 10&#45;&gt;9 -->
<g id="edge21" class="edge">
<title>10&#45;&gt;9</title>
<path fill="none" stroke="grey" stroke-width="2" d="M504.23,-215.9C496.67,-205.99 487.86,-192.95 482.5,-180 474.34,-160.29 470.05,-136.48 467.83,-118.46"/>
<polygon fill="grey" stroke="grey" stroke-width="2" points="471.28,-117.88 466.72,-108.32 464.33,-118.65 471.28,-117.88"/>
</g>
<!-- 12 -->
<g id="node13" class="node">
<title>12</title>
<path fill="none" stroke="#56d8a9" stroke-width="2" d="M533.5,-180C533.5,-180 503.5,-180 503.5,-180 497.5,-180 491.5,-174 491.5,-168 491.5,-168 491.5,-156 491.5,-156 491.5,-150 497.5,-144 503.5,-144 503.5,-144 533.5,-144 533.5,-144 539.5,-144 545.5,-150 545.5,-156 545.5,-156 545.5,-168 545.5,-168 545.5,-174 539.5,-180 533.5,-180"/>
<text text-anchor="middle" x="518.5" y="-159.5" font-family="sans" font-size="10.00">index</text>
</g>
<!-- 10&#45;&gt;12 -->
<g id="edge24" class="edge">
<title>10&#45;&gt;12</title>
<path fill="none" stroke="grey" stroke-width="2" d="M518.5,-215.7C518.5,-207.98 518.5,-198.71 518.5,-190.11"/>
<polygon fill="grey" stroke="grey" stroke-width="2" points="522,-190.1 518.5,-180.1 515,-190.1 522,-190.1"/>
</g>
<!-- 27 -->
<g id="node28" class="node">
<title>27</title>
<path fill="none" stroke="#59d856" stroke-width="2" d="M606,-108C606,-108 537,-108 537,-108 531,-108 525,-102 525,-96 525,-96 525,-84 525,-84 525,-78 531,-72 537,-72 537,-72 606,-72 606,-72 612,-72 618,-78 618,-84 618,-84 618,-96 618,-96 618,-102 612,-108 606,-108"/>
<text text-anchor="middle" x="571.5" y="-87.5" font-family="sans" font-size="10.00">extract_mapping</text>
</g>
<!-- 10&#45;&gt;27 -->
<g id="edge41" class="edge">
<title>10&#45;&gt;27</title>
<path fill="none" stroke="grey" stroke-width="2" d="M532.77,-215.9C540.33,-205.99 549.14,-192.95 554.5,-180 562.66,-160.29 566.95,-136.48 569.17,-118.46"/>
<polygon fill="grey" stroke="grey" stroke-width="2" points="572.67,-118.65 570.28,-108.32 565.72,-117.88 572.67,-118.65"/>
</g>
<!-- 11 -->
<g id="node12" class="node">
<title>11</title>
<path fill="none" stroke="#afd856" stroke-width="2" d="M571.5,-324C571.5,-324 465.5,-324 465.5,-324 459.5,-324 453.5,-318 453.5,-312 453.5,-312 453.5,-300 453.5,-300 453.5,-294 459.5,-288 465.5,-288 465.5,-288 571.5,-288 571.5,-288 577.5,-288 583.5,-294 583.5,-300 583.5,-300 583.5,-312 583.5,-312 583.5,-318 577.5,-324 571.5,-324"/>
<text text-anchor="middle" x="518.5" y="-309" font-family="sans" font-size="10.00">convert</text>
<text text-anchor="middle" x="518.5" y="-298" font-family="sans" font-size="10.00">sample: ERR024607_tiny</text>
</g>
<!-- 11&#45;&gt;10 -->
<g id="edge23" class="edge">
<title>11&#45;&gt;10</title>
<path fill="none" stroke="grey" stroke-width="2" d="M518.5,-287.7C518.5,-279.98 518.5,-270.71 518.5,-262.11"/>
<polygon fill="grey" stroke="grey" stroke-width="2" points="522,-262.1 518.5,-252.1 515,-262.1 522,-262.1"/>
</g>
<!-- 12&#45;&gt;9 -->
<g id="edge22" class="edge">
<title>12&#45;&gt;9</title>
<path fill="none" stroke="grey" stroke-width="2" d="M505.4,-143.7C499.11,-135.39 491.45,-125.28 484.54,-116.14"/>
<polygon fill="grey" stroke="grey" stroke-width="2" points="487.28,-113.96 478.45,-108.1 481.7,-118.19 487.28,-113.96"/>
</g>
<!-- 12&#45;&gt;27 -->
<g id="edge42" class="edge">
<title>12&#45;&gt;27</title>
<path fill="none" stroke="grey" stroke-width="2" d="M531.6,-143.7C537.89,-135.39 545.55,-125.28 552.46,-116.14"/>
<polygon fill="grey" stroke="grey" stroke-width="2" points="555.3,-118.19 558.55,-108.1 549.72,-113.96 555.3,-118.19"/>
</g>
<!-- 13 -->
<g id="node14" class="node">
<title>13</title>
<path fill="none" stroke="#d8ac56" stroke-width="2" d="M707,-108C707,-108 648,-108 648,-108 642,-108 636,-102 636,-96 636,-96 636,-84 636,-84 636,-78 642,-72 648,-72 648,-72 707,-72 707,-72 713,-72 719,-78 719,-84 719,-84 719,-96 719,-96 719,-102 713,-108 707,-108"/>
<text text-anchor="middle" x="677.5" y="-87.5" font-family="sans" font-size="10.00">calculate_stats</text>
</g>
<!-- 13&#45;&gt;0 -->
<g id="edge4" class="edge">
<title>13&#45;&gt;0</title>
<path fill="none" stroke="grey" stroke-width="2" d="M664.4,-71.7C658.11,-63.39 650.45,-53.28 643.54,-44.14"/>
<polygon fill="grey" stroke="grey" stroke-width="2" points="646.28,-41.96 637.45,-36.1 640.7,-46.19 646.28,-41.96"/>
</g>
<!-- 14 -->
<g id="node15" class="node">
<title>14</title>
<path fill="none" stroke="#56a9d8" stroke-width="2" d="M745.5,-252C745.5,-252 715.5,-252 715.5,-252 709.5,-252 703.5,-246 703.5,-240 703.5,-240 703.5,-228 703.5,-228 703.5,-222 709.5,-216 715.5,-216 715.5,-216 745.5,-216 745.5,-216 751.5,-216 757.5,-222 757.5,-228 757.5,-228 757.5,-240 757.5,-240 757.5,-246 751.5,-252 745.5,-252"/>
<text text-anchor="middle" x="730.5" y="-231.5" font-family="sans" font-size="10.00">sort</text>
</g>
<!-- 14&#45;&gt;13 -->
<g id="edge25" class="edge">
<title>14&#45;&gt;13</title>
<path fill="none" stroke="grey" stroke-width="2" d="M716.23,-215.9C708.67,-205.99 699.86,-192.95 694.5,-180 686.34,-160.29 682.05,-136.48 679.83,-118.46"/>
<polygon fill="grey" stroke="grey" stroke-width="2" points="683.28,-117.88 678.72,-108.32 676.33,-118.65 683.28,-117.88"/>
</g>
<!-- 16 -->
<g id="node17" class="node">
<title>16</title>
<path fill="none" stroke="#56d8a9" stroke-width="2" d="M745.5,-180C745.5,-180 715.5,-180 715.5,-180 709.5,-180 703.5,-174 703.5,-168 703.5,-168 703.5,-156 703.5,-156 703.5,-150 709.5,-144 715.5,-144 715.5,-144 745.5,-144 745.5,-144 751.5,-144 757.5,-150 757.5,-156 757.5,-156 757.5,-168 757.5,-168 757.5,-174 751.5,-180 745.5,-180"/>
<text text-anchor="middle" x="730.5" y="-159.5" font-family="sans" font-size="10.00">index</text>
</g>
<!-- 14&#45;&gt;16 -->
<g id="edge28" class="edge">
<title>14&#45;&gt;16</title>
<path fill="none" stroke="grey" stroke-width="2" d="M730.5,-215.7C730.5,-207.98 730.5,-198.71 730.5,-190.11"/>
<polygon fill="grey" stroke="grey" stroke-width="2" points="734,-190.1 730.5,-180.1 727,-190.1 734,-190.1"/>
</g>
<!-- 28 -->
<g id="node29" class="node">
<title>28</title>
<path fill="none" stroke="#59d856" stroke-width="2" d="M818,-108C818,-108 749,-108 749,-108 743,-108 737,-102 737,-96 737,-96 737,-84 737,-84 737,-78 743,-72 749,-72 749,-72 818,-72 818,-72 824,-72 830,-78 830,-84 830,-84 830,-96 830,-96 830,-102 824,-108 818,-108"/>
<text text-anchor="middle" x="783.5" y="-87.5" font-family="sans" font-size="10.00">extract_mapping</text>
</g>
<!-- 14&#45;&gt;28 -->
<g id="edge43" class="edge">
<title>14&#45;&gt;28</title>
<path fill="none" stroke="grey" stroke-width="2" d="M744.77,-215.9C752.33,-205.99 761.14,-192.95 766.5,-180 774.66,-160.29 778.95,-136.48 781.17,-118.46"/>
<polygon fill="grey" stroke="grey" stroke-width="2" points="784.67,-118.65 782.28,-108.32 777.72,-117.88 784.67,-118.65"/>
</g>
<!-- 15 -->
<g id="node16" class="node">
<title>15</title>
<path fill="none" stroke="#afd856" stroke-width="2" d="M783.5,-324C783.5,-324 677.5,-324 677.5,-324 671.5,-324 665.5,-318 665.5,-312 665.5,-312 665.5,-300 665.5,-300 665.5,-294 671.5,-288 677.5,-288 677.5,-288 783.5,-288 783.5,-288 789.5,-288 795.5,-294 795.5,-300 795.5,-300 795.5,-312 795.5,-312 795.5,-318 789.5,-324 783.5,-324"/>
<text text-anchor="middle" x="730.5" y="-309" font-family="sans" font-size="10.00">convert</text>
<text text-anchor="middle" x="730.5" y="-298" font-family="sans" font-size="10.00">sample: ERR024604_tiny</text>
</g>
<!-- 15&#45;&gt;14 -->
<g id="edge27" class="edge">
<title>15&#45;&gt;14</title>
<path fill="none" stroke="grey" stroke-width="2" d="M730.5,-287.7C730.5,-279.98 730.5,-270.71 730.5,-262.11"/>
<polygon fill="grey" stroke="grey" stroke-width="2" points="734,-262.1 730.5,-252.1 727,-262.1 734,-262.1"/>
</g>
<!-- 16&#45;&gt;13 -->
<g id="edge26" class="edge">
<title>16&#45;&gt;13</title>
<path fill="none" stroke="grey" stroke-width="2" d="M717.4,-143.7C711.11,-135.39 703.45,-125.28 696.54,-116.14"/>
<polygon fill="grey" stroke="grey" stroke-width="2" points="699.28,-113.96 690.45,-108.1 693.7,-118.19 699.28,-113.96"/>
</g>
<!-- 16&#45;&gt;28 -->
<g id="edge44" class="edge">
<title>16&#45;&gt;28</title>
<path fill="none" stroke="grey" stroke-width="2" d="M743.6,-143.7C749.89,-135.39 757.55,-125.28 764.46,-116.14"/>
<polygon fill="grey" stroke="grey" stroke-width="2" points="767.3,-118.19 770.55,-108.1 761.72,-113.96 767.3,-118.19"/>
</g>
<!-- 17 -->
<g id="node18" class="node">
<title>17</title>
<path fill="none" stroke="#d8ac56" stroke-width="2" d="M919,-108C919,-108 860,-108 860,-108 854,-108 848,-102 848,-96 848,-96 848,-84 848,-84 848,-78 854,-72 860,-72 860,-72 919,-72 919,-72 925,-72 931,-78 931,-84 931,-84 931,-96 931,-96 931,-102 925,-108 919,-108"/>
<text text-anchor="middle" x="889.5" y="-87.5" font-family="sans" font-size="10.00">calculate_stats</text>
</g>
<!-- 17&#45;&gt;0 -->
<g id="edge5" class="edge">
<title>17&#45;&gt;0</title>
<path fill="none" stroke="grey" stroke-width="2" d="M847.84,-74.81C844.69,-73.83 841.55,-72.88 838.5,-72 777.03,-54.17 704.56,-37.02 661.69,-27.27"/>
<polygon fill="grey" stroke="grey" stroke-width="2" points="662.23,-23.81 651.71,-25.01 660.69,-30.63 662.23,-23.81"/>
</g>
<!-- 18 -->
<g id="node19" class="node">
<title>18</title>
<path fill="none" stroke="#56a9d8" stroke-width="2" d="M957.5,-252C957.5,-252 927.5,-252 927.5,-252 921.5,-252 915.5,-246 915.5,-240 915.5,-240 915.5,-228 915.5,-228 915.5,-222 921.5,-216 927.5,-216 927.5,-216 957.5,-216 957.5,-216 963.5,-216 969.5,-222 969.5,-228 969.5,-228 969.5,-240 969.5,-240 969.5,-246 963.5,-252 957.5,-252"/>
<text text-anchor="middle" x="942.5" y="-231.5" font-family="sans" font-size="10.00">sort</text>
</g>
<!-- 18&#45;&gt;17 -->
<g id="edge29" class="edge">
<title>18&#45;&gt;17</title>
<path fill="none" stroke="grey" stroke-width="2" d="M928.23,-215.9C920.67,-205.99 911.86,-192.95 906.5,-180 898.34,-160.29 894.05,-136.48 891.83,-118.46"/>
<polygon fill="grey" stroke="grey" stroke-width="2" points="895.28,-117.88 890.72,-108.32 888.33,-118.65 895.28,-117.88"/>
</g>
<!-- 20 -->
<g id="node21" class="node">
<title>20</title>
<path fill="none" stroke="#56d8a9" stroke-width="2" d="M957.5,-180C957.5,-180 927.5,-180 927.5,-180 921.5,-180 915.5,-174 915.5,-168 915.5,-168 915.5,-156 915.5,-156 915.5,-150 921.5,-144 927.5,-144 927.5,-144 957.5,-144 957.5,-144 963.5,-144 969.5,-150 969.5,-156 969.5,-156 969.5,-168 969.5,-168 969.5,-174 963.5,-180 957.5,-180"/>
<text text-anchor="middle" x="942.5" y="-159.5" font-family="sans" font-size="10.00">index</text>
</g>
<!-- 18&#45;&gt;20 -->
<g id="edge32" class="edge">
<title>18&#45;&gt;20</title>
<path fill="none" stroke="grey" stroke-width="2" d="M942.5,-215.7C942.5,-207.98 942.5,-198.71 942.5,-190.11"/>
<polygon fill="grey" stroke="grey" stroke-width="2" points="946,-190.1 942.5,-180.1 939,-190.1 946,-190.1"/>
</g>
<!-- 29 -->
<g id="node30" class="node">
<title>29</title>
<path fill="none" stroke="#59d856" stroke-width="2" d="M1030,-108C1030,-108 961,-108 961,-108 955,-108 949,-102 949,-96 949,-96 949,-84 949,-84 949,-78 955,-72 961,-72 961,-72 1030,-72 1030,-72 1036,-72 1042,-78 1042,-84 1042,-84 1042,-96 1042,-96 1042,-102 1036,-108 1030,-108"/>
<text text-anchor="middle" x="995.5" y="-87.5" font-family="sans" font-size="10.00">extract_mapping</text>
</g>
<!-- 18&#45;&gt;29 -->
<g id="edge45" class="edge">
<title>18&#45;&gt;29</title>
<path fill="none" stroke="grey" stroke-width="2" d="M956.77,-215.9C964.33,-205.99 973.14,-192.95 978.5,-180 986.66,-160.29 990.95,-136.48 993.17,-118.46"/>
<polygon fill="grey" stroke="grey" stroke-width="2" points="996.67,-118.65 994.28,-108.32 989.72,-117.88 996.67,-118.65"/>
</g>
<!-- 19 -->
<g id="node20" class="node">
<title>19</title>
<path fill="none" stroke="#afd856" stroke-width="2" d="M995.5,-324C995.5,-324 889.5,-324 889.5,-324 883.5,-324 877.5,-318 877.5,-312 877.5,-312 877.5,-300 877.5,-300 877.5,-294 883.5,-288 889.5,-288 889.5,-288 995.5,-288 995.5,-288 1001.5,-288 1007.5,-294 1007.5,-300 1007.5,-300 1007.5,-312 1007.5,-312 1007.5,-318 1001.5,-324 995.5,-324"/>
<text text-anchor="middle" x="942.5" y="-309" font-family="sans" font-size="10.00">convert</text>
<text text-anchor="middle" x="942.5" y="-298" font-family="sans" font-size="10.00">sample: ERR024609_tiny</text>
</g>
<!-- 19&#45;&gt;18 -->
<g id="edge31" class="edge">
<title>19&#45;&gt;18</title>
<path fill="none" stroke="grey" stroke-width="2" d="M942.5,-287.7C942.5,-279.98 942.5,-270.71 942.5,-262.11"/>
<polygon fill="grey" stroke="grey" stroke-width="2" points="946,-262.1 942.5,-252.1 939,-262.1 946,-262.1"/>
</g>
<!-- 20&#45;&gt;17 -->
<g id="edge30" class="edge">
<title>20&#45;&gt;17</title>
<path fill="none" stroke="grey" stroke-width="2" d="M929.4,-143.7C923.11,-135.39 915.45,-125.28 908.54,-116.14"/>
<polygon fill="grey" stroke="grey" stroke-width="2" points="911.28,-113.96 902.45,-108.1 905.7,-118.19 911.28,-113.96"/>
</g>
<!-- 20&#45;&gt;29 -->
<g id="edge46" class="edge">
<title>20&#45;&gt;29</title>
<path fill="none" stroke="grey" stroke-width="2" d="M955.6,-143.7C961.89,-135.39 969.55,-125.28 976.46,-116.14"/>
<polygon fill="grey" stroke="grey" stroke-width="2" points="979.3,-118.19 982.55,-108.1 973.72,-113.96 979.3,-118.19"/>
</g>
<!-- 21 -->
<g id="node22" class="node">
<title>21</title>
<path fill="none" stroke="#d8ac56" stroke-width="2" d="M1131,-108C1131,-108 1072,-108 1072,-108 1066,-108 1060,-102 1060,-96 1060,-96 1060,-84 1060,-84 1060,-78 1066,-72 1072,-72 1072,-72 1131,-72 1131,-72 1137,-72 1143,-78 1143,-84 1143,-84 1143,-96 1143,-96 1143,-102 1137,-108 1131,-108"/>
<text text-anchor="middle" x="1101.5" y="-87.5" font-family="sans" font-size="10.00">calculate_stats</text>
</g>
<!-- 21&#45;&gt;0 -->
<g id="edge6" class="edge">
<title>21&#45;&gt;0</title>
<path fill="none" stroke="grey" stroke-width="2" d="M1059.94,-74.16C1057.1,-73.37 1054.27,-72.64 1051.5,-72 909.93,-39.51 737.09,-25.8 662.14,-21.08"/>
<polygon fill="grey" stroke="grey" stroke-width="2" points="662.01,-17.57 651.81,-20.45 661.58,-24.56 662.01,-17.57"/>
</g>
<!-- 22 -->
<g id="node23" class="node">
<title>22</title>
<path fill="none" stroke="#56a9d8" stroke-width="2" d="M1169.5,-252C1169.5,-252 1139.5,-252 1139.5,-252 1133.5,-252 1127.5,-246 1127.5,-240 1127.5,-240 1127.5,-228 1127.5,-228 1127.5,-222 1133.5,-216 1139.5,-216 1139.5,-216 1169.5,-216 1169.5,-216 1175.5,-216 1181.5,-222 1181.5,-228 1181.5,-228 1181.5,-240 1181.5,-240 1181.5,-246 1175.5,-252 1169.5,-252"/>
<text text-anchor="middle" x="1154.5" y="-231.5" font-family="sans" font-size="10.00">sort</text>
</g>
<!-- 22&#45;&gt;21 -->
<g id="edge33" class="edge">
<title>22&#45;&gt;21</title>
<path fill="none" stroke="grey" stroke-width="2" d="M1140.23,-215.9C1132.67,-205.99 1123.86,-192.95 1118.5,-180 1110.34,-160.29 1106.05,-136.48 1103.83,-118.46"/>
<polygon fill="grey" stroke="grey" stroke-width="2" points="1107.28,-117.88 1102.72,-108.32 1100.33,-118.65 1107.28,-117.88"/>
</g>
<!-- 24 -->
<g id="node25" class="node">
<title>24</title>
<path fill="none" stroke="#56d8a9" stroke-width="2" d="M1169.5,-180C1169.5,-180 1139.5,-180 1139.5,-180 1133.5,-180 1127.5,-174 1127.5,-168 1127.5,-168 1127.5,-156 1127.5,-156 1127.5,-150 1133.5,-144 1139.5,-144 1139.5,-144 1169.5,-144 1169.5,-144 1175.5,-144 1181.5,-150 1181.5,-156 1181.5,-156 1181.5,-168 1181.5,-168 1181.5,-174 1175.5,-180 1169.5,-180"/>
<text text-anchor="middle" x="1154.5" y="-159.5" font-family="sans" font-size="10.00">index</text>
</g>
<!-- 22&#45;&gt;24 -->
<g id="edge36" class="edge">
<title>22&#45;&gt;24</title>
<path fill="none" stroke="grey" stroke-width="2" d="M1154.5,-215.7C1154.5,-207.98 1154.5,-198.71 1154.5,-190.11"/>
<polygon fill="grey" stroke="grey" stroke-width="2" points="1158,-190.1 1154.5,-180.1 1151,-190.1 1158,-190.1"/>
</g>
<!-- 30 -->
<g id="node31" class="node">
<title>30</title>
<path fill="none" stroke="#59d856" stroke-width="2" d="M1242,-108C1242,-108 1173,-108 1173,-108 1167,-108 1161,-102 1161,-96 1161,-96 1161,-84 1161,-84 1161,-78 1167,-72 1173,-72 1173,-72 1242,-72 1242,-72 1248,-72 1254,-78 1254,-84 1254,-84 1254,-96 1254,-96 1254,-102 1248,-108 1242,-108"/>
<text text-anchor="middle" x="1207.5" y="-87.5" font-family="sans" font-size="10.00">extract_mapping</text>
</g>
<!-- 22&#45;&gt;30 -->
<g id="edge47" class="edge">
<title>22&#45;&gt;30</title>
<path fill="none" stroke="grey" stroke-width="2" d="M1168.77,-215.9C1176.33,-205.99 1185.14,-192.95 1190.5,-180 1198.66,-160.29 1202.95,-136.48 1205.17,-118.46"/>
<polygon fill="grey" stroke="grey" stroke-width="2" points="1208.67,-118.65 1206.28,-108.32 1201.72,-117.88 1208.67,-118.65"/>
</g>
<!-- 23 -->
<g id="node24" class="node">
<title>23</title>
<path fill="none" stroke="#afd856" stroke-width="2" d="M1207.5,-324C1207.5,-324 1101.5,-324 1101.5,-324 1095.5,-324 1089.5,-318 1089.5,-312 1089.5,-312 1089.5,-300 1089.5,-300 1089.5,-294 1095.5,-288 1101.5,-288 1101.5,-288 1207.5,-288 1207.5,-288 1213.5,-288 1219.5,-294 1219.5,-300 1219.5,-300 1219.5,-312 1219.5,-312 1219.5,-318 1213.5,-324 1207.5,-324"/>
<text text-anchor="middle" x="1154.5" y="-309" font-family="sans" font-size="10.00">convert</text>
<text text-anchor="middle" x="1154.5" y="-298" font-family="sans" font-size="10.00">sample: ERR024606_tiny</text>
</g>
<!-- 23&#45;&gt;22 -->
<g id="edge35" class="edge">
<title>23&#45;&gt;22</title>
<path fill="none" stroke="grey" stroke-width="2" d="M1154.5,-287.7C1154.5,-279.98 1154.5,-270.71 1154.5,-262.11"/>
<polygon fill="grey" stroke="grey" stroke-width="2" points="1158,-262.1 1154.5,-252.1 1151,-262.1 1158,-262.1"/>
</g>
<!-- 24&#45;&gt;21 -->
<g id="edge34" class="edge">
<title>24&#45;&gt;21</title>
<path fill="none" stroke="grey" stroke-width="2" d="M1141.4,-143.7C1135.11,-135.39 1127.45,-125.28 1120.54,-116.14"/>
<polygon fill="grey" stroke="grey" stroke-width="2" points="1123.28,-113.96 1114.45,-108.1 1117.7,-118.19 1123.28,-113.96"/>
</g>
<!-- 24&#45;&gt;30 -->
<g id="edge48" class="edge">
<title>24&#45;&gt;30</title>
<path fill="none" stroke="grey" stroke-width="2" d="M1167.6,-143.7C1173.89,-135.39 1181.55,-125.28 1188.46,-116.14"/>
<polygon fill="grey" stroke="grey" stroke-width="2" points="1191.3,-118.19 1194.55,-108.1 1185.72,-113.96 1191.3,-118.19"/>
</g>
<!-- 25&#45;&gt;0 -->
<g id="edge7" class="edge">
<title>25&#45;&gt;0</title>
<path fill="none" stroke="grey" stroke-width="2" d="M194.16,-73.97C196.97,-73.25 199.76,-72.59 202.5,-72 342.67,-41.78 513.02,-26.91 587.1,-21.49"/>
<polygon fill="grey" stroke="grey" stroke-width="2" points="587.59,-24.96 597.32,-20.76 587.09,-17.98 587.59,-24.96"/>
</g>
<!-- 26&#45;&gt;0 -->
<g id="edge8" class="edge">
<title>26&#45;&gt;0</title>
<path fill="none" stroke="grey" stroke-width="2" d="M406.26,-74.36C409.04,-73.55 411.81,-72.76 414.5,-72 474.7,-55.11 545.3,-37.8 587.39,-27.74"/>
<polygon fill="grey" stroke="grey" stroke-width="2" points="588.28,-31.13 597.19,-25.41 586.66,-24.32 588.28,-31.13"/>
</g>
<!-- 27&#45;&gt;0 -->
<g id="edge9" class="edge">
<title>27&#45;&gt;0</title>
<path fill="none" stroke="grey" stroke-width="2" d="M584.6,-71.7C590.89,-63.39 598.55,-53.28 605.46,-44.14"/>
<polygon fill="grey" stroke="grey" stroke-width="2" points="608.3,-46.19 611.55,-36.1 602.72,-41.96 608.3,-46.19"/>
</g>
<!-- 28&#45;&gt;0 -->
<g id="edge10" class="edge">
<title>28&#45;&gt;0</title>
<path fill="none" stroke="grey" stroke-width="2" d="M744.6,-71.88C719.01,-60.61 685.73,-45.96 660.7,-34.94"/>
<polygon fill="grey" stroke="grey" stroke-width="2" points="662.1,-31.73 651.54,-30.9 659.28,-38.14 662.1,-31.73"/>
</g>
<!-- 29&#45;&gt;0 -->
<g id="edge11" class="edge">
<title>29&#45;&gt;0</title>
<path fill="none" stroke="grey" stroke-width="2" d="M948.81,-74.1C946.01,-73.35 943.22,-72.65 940.5,-72 840.94,-48.37 721.29,-31.34 661.84,-23.62"/>
<polygon fill="grey" stroke="grey" stroke-width="2" points="662.16,-20.13 651.8,-22.33 661.27,-27.07 662.16,-20.13"/>
</g>
<!-- 30&#45;&gt;0 -->
<g id="edge12" class="edge">
<title>30&#45;&gt;0</title>
<path fill="none" stroke="grey" stroke-width="2" d="M1160.86,-73.89C1158.04,-73.19 1155.24,-72.56 1152.5,-72 970.91,-35.21 748.77,-23.51 661.87,-20.19"/>
<polygon fill="grey" stroke="grey" stroke-width="2" points="661.83,-16.69 651.71,-19.82 661.57,-23.68 661.83,-16.69"/>
</g>
</g>
</svg>
