<?xml version="1.0" encoding="UTF-8" standalone="no"?>
<!DOCTYPE svg PUBLIC "-//W3C//DTD SVG 1.1//EN"
 "http://www.w3.org/Graphics/SVG/1.1/DTD/svg11.dtd">
<!-- Generated by graphviz version 2.42.4 (0)
 -->
<!-- Title: snakemake_dag Pages: 1 -->
<svg width="1415pt" height="620pt"
 viewBox="0.00 0.00 1415.37 620.00" xmlns="http://www.w3.org/2000/svg" xmlns:xlink="http://www.w3.org/1999/xlink">
<g id="graph0" class="graph" transform="scale(1 1) rotate(0) translate(4 616)">
<title>snakemake_dag</title>
<polygon fill="white" stroke="transparent" points="-4,4 -4,-616 1411.37,-616 1411.37,4 -4,4"/>
<!-- 0 -->
<g id="node1" class="node">
<title>0</title>
<path fill="none" stroke="#d87556" stroke-width="2" d="M688.37,-36C688.37,-36 658.37,-36 658.37,-36 652.37,-36 646.37,-30 646.37,-24 646.37,-24 646.37,-12 646.37,-12 646.37,-6 652.37,0 658.37,0 658.37,0 688.37,0 688.37,0 694.37,0 700.37,-6 700.37,-12 700.37,-12 700.37,-24 700.37,-24 700.37,-30 694.37,-36 688.37,-36"/>
<text text-anchor="middle" x="673.37" y="-15.5" font-family="sans" font-size="10.00">all</text>
</g>
<!-- 1 -->
<g id="node2" class="node">
<title>1</title>
<path fill="none" stroke="#5673d8" stroke-width="2" d="M700.87,-108C700.87,-108 645.87,-108 645.87,-108 639.87,-108 633.87,-102 633.87,-96 633.87,-96 633.87,-84 633.87,-84 633.87,-78 639.87,-72 645.87,-72 645.87,-72 700.87,-72 700.87,-72 706.87,-72 712.87,-78 712.87,-84 712.87,-84 712.87,-96 712.87,-96 712.87,-102 706.87,-108 700.87,-108"/>
<text text-anchor="middle" x="673.37" y="-87.5" font-family="sans" font-size="10.00">visualize_tree</text>
</g>
<!-- 1&#45;&gt;0 -->
<g id="edge1" class="edge">
<title>1&#45;&gt;0</title>
<path fill="none" stroke="grey" stroke-width="2" d="M673.37,-71.7C673.37,-63.98 673.37,-54.71 673.37,-46.11"/>
<polygon fill="grey" stroke="grey" stroke-width="2" points="676.87,-46.1 673.37,-36.1 669.87,-46.1 676.87,-46.1"/>
</g>
<!-- 2 -->
<g id="node3" class="node">
<title>2</title>
<path fill="none" stroke="#56d8b9" stroke-width="2" d="M694.37,-180C694.37,-180 652.37,-180 652.37,-180 646.37,-180 640.37,-174 640.37,-168 640.37,-168 640.37,-156 640.37,-156 640.37,-150 646.37,-144 652.37,-144 652.37,-144 694.37,-144 694.37,-144 700.37,-144 706.37,-150 706.37,-156 706.37,-156 706.37,-168 706.37,-168 706.37,-174 700.37,-180 694.37,-180"/>
<text text-anchor="middle" x="673.37" y="-159.5" font-family="sans" font-size="10.00">phylo_tree</text>
</g>
<!-- 2&#45;&gt;1 -->
<g id="edge2" class="edge">
<title>2&#45;&gt;1</title>
<path fill="none" stroke="grey" stroke-width="2" d="M673.37,-143.7C673.37,-135.98 673.37,-126.71 673.37,-118.11"/>
<polygon fill="grey" stroke="grey" stroke-width="2" points="676.87,-118.1 673.37,-108.1 669.87,-118.1 676.87,-118.1"/>
</g>
<!-- 3 -->
<g id="node4" class="node">
<title>3</title>
<path fill="none" stroke="#56d882" stroke-width="2" d="M688.37,-252C688.37,-252 658.37,-252 658.37,-252 652.37,-252 646.37,-246 646.37,-240 646.37,-240 646.37,-228 646.37,-228 646.37,-222 652.37,-216 658.37,-216 658.37,-216 688.37,-216 688.37,-216 694.37,-216 700.37,-222 700.37,-228 700.37,-228 700.37,-240 700.37,-240 700.37,-246 694.37,-252 688.37,-252"/>
<text text-anchor="middle" x="673.37" y="-231.5" font-family="sans" font-size="10.00">msa</text>
</g>
<!-- 3&#45;&gt;2 -->
<g id="edge3" class="edge">
<title>3&#45;&gt;2</title>
<path fill="none" stroke="grey" stroke-width="2" d="M673.37,-215.7C673.37,-207.98 673.37,-198.71 673.37,-190.11"/>
<polygon fill="grey" stroke="grey" stroke-width="2" points="676.87,-190.1 673.37,-180.1 669.87,-190.1 676.87,-190.1"/>
</g>
<!-- 4 -->
<g id="node5" class="node">
<title>4</title>
<path fill="none" stroke="#d8ac56" stroke-width="2" d="M710.87,-324C710.87,-324 635.87,-324 635.87,-324 629.87,-324 623.87,-318 623.87,-312 623.87,-312 623.87,-300 623.87,-300 623.87,-294 629.87,-288 635.87,-288 635.87,-288 710.87,-288 710.87,-288 716.87,-288 722.87,-294 722.87,-300 722.87,-300 722.87,-312 722.87,-312 722.87,-318 716.87,-324 710.87,-324"/>
<text text-anchor="middle" x="673.37" y="-303.5" font-family="sans" font-size="10.00">concat_consensus</text>
</g>
<!-- 4&#45;&gt;3 -->
<g id="edge4" class="edge">
<title>4&#45;&gt;3</title>
<path fill="none" stroke="grey" stroke-width="2" d="M673.37,-287.7C673.37,-279.98 673.37,-270.71 673.37,-262.11"/>
<polygon fill="grey" stroke="grey" stroke-width="2" points="676.87,-262.1 673.37,-252.1 669.87,-262.1 676.87,-262.1"/>
</g>
<!-- 5 -->
<g id="node6" class="node">
<title>5</title>
<path fill="none" stroke="#97d856" stroke-width="2" d="M98.37,-396C98.37,-396 36.37,-396 36.37,-396 30.37,-396 24.37,-390 24.37,-384 24.37,-384 24.37,-372 24.37,-372 24.37,-366 30.37,-360 36.37,-360 36.37,-360 98.37,-360 98.37,-360 104.37,-360 110.37,-366 110.37,-372 110.37,-372 110.37,-384 110.37,-384 110.37,-390 104.37,-396 98.37,-396"/>
<text text-anchor="middle" x="67.37" y="-375.5" font-family="sans" font-size="10.00">ivar_consensus</text>
</g>
<!-- 5&#45;&gt;4 -->
<g id="edge5" class="edge">
<title>5&#45;&gt;4</title>
<path fill="none" stroke="grey" stroke-width="2" d="M110.4,-369.72C130.16,-366.51 153.92,-362.83 175.37,-360 333.24,-339.19 520.09,-321.03 613.67,-312.38"/>
<polygon fill="grey" stroke="grey" stroke-width="2" points="614.16,-315.85 623.8,-311.45 613.52,-308.88 614.16,-315.85"/>
</g>
<!-- 6 -->
<g id="node7" class="node">
<title>6</title>
<path fill="none" stroke="#56d863" stroke-width="2" d="M709.37,-612C709.37,-612 641.37,-612 641.37,-612 635.37,-612 629.37,-606 629.37,-600 629.37,-600 629.37,-588 629.37,-588 629.37,-582 635.37,-576 641.37,-576 641.37,-576 709.37,-576 709.37,-576 715.37,-576 721.37,-582 721.37,-588 721.37,-588 721.37,-600 721.37,-600 721.37,-606 715.37,-612 709.37,-612"/>
<text text-anchor="middle" x="675.37" y="-591.5" font-family="sans" font-size="10.00">minimap2_index</text>
</g>
<!-- 6&#45;&gt;5 -->
<g id="edge14" class="edge">
<title>6&#45;&gt;5</title>
<path fill="none" stroke="grey" stroke-width="2" d="M629.21,-592.83C485.94,-591.82 55.95,-585.05 14.37,-540 -21.1,-501.56 18.24,-438.88 45.6,-404.16"/>
<polygon fill="grey" stroke="grey" stroke-width="2" points="48.33,-406.35 51.91,-396.37 42.89,-401.94 48.33,-406.35"/>
</g>
<!-- 7 -->
<g id="node8" class="node">
<title>7</title>
<path fill="none" stroke="#61d856" stroke-width="2" d="M115.37,-540C115.37,-540 35.37,-540 35.37,-540 29.37,-540 23.37,-534 23.37,-528 23.37,-528 23.37,-516 23.37,-516 23.37,-510 29.37,-504 35.37,-504 35.37,-504 115.37,-504 115.37,-504 121.37,-504 127.37,-510 127.37,-516 127.37,-516 127.37,-528 127.37,-528 127.37,-534 121.37,-540 115.37,-540"/>
<text text-anchor="middle" x="75.37" y="-525" font-family="sans" font-size="10.00">minimap2</text>
<text text-anchor="middle" x="75.37" y="-514" font-family="sans" font-size="10.00">sample: sample_22</text>
</g>
<!-- 6&#45;&gt;7 -->
<g id="edge17" class="edge">
<title>6&#45;&gt;7</title>
<path fill="none" stroke="grey" stroke-width="2" d="M629.33,-590.81C536.45,-585.87 320.25,-571.72 141.37,-540 140.09,-539.77 138.8,-539.53 137.51,-539.29"/>
<polygon fill="grey" stroke="grey" stroke-width="2" points="137.95,-535.8 127.45,-537.2 136.53,-542.66 137.95,-535.8"/>
</g>
<!-- 9 -->
<g id="node10" class="node">
<title>9</title>
<path fill="none" stroke="#97d856" stroke-width="2" d="M258.37,-396C258.37,-396 196.37,-396 196.37,-396 190.37,-396 184.37,-390 184.37,-384 184.37,-384 184.37,-372 184.37,-372 184.37,-366 190.37,-360 196.37,-360 196.37,-360 258.37,-360 258.37,-360 264.37,-360 270.37,-366 270.37,-372 270.37,-372 270.37,-384 270.37,-384 270.37,-390 264.37,-396 258.37,-396"/>
<text text-anchor="middle" x="227.37" y="-375.5" font-family="sans" font-size="10.00">ivar_consensus</text>
</g>
<!-- 6&#45;&gt;9 -->
<g id="edge19" class="edge">
<title>6&#45;&gt;9</title>
<path fill="none" stroke="grey" stroke-width="2" d="M628.95,-591.56C510.55,-587.4 204.5,-573.48 174.37,-540 139.53,-501.28 178.21,-439.14 205.39,-404.47"/>
<polygon fill="grey" stroke="grey" stroke-width="2" points="208.45,-406.26 212.01,-396.28 203,-401.86 208.45,-406.26"/>
</g>
<!-- 10 -->
<g id="node11" class="node">
<title>10</title>
<path fill="none" stroke="#61d856" stroke-width="2" d="M275.37,-540C275.37,-540 195.37,-540 195.37,-540 189.37,-540 183.37,-534 183.37,-528 183.37,-528 183.37,-516 183.37,-516 183.37,-510 189.37,-504 195.37,-504 195.37,-504 275.37,-504 275.37,-504 281.37,-504 287.37,-510 287.37,-516 287.37,-516 287.37,-528 287.37,-528 287.37,-534 281.37,-540 275.37,-540"/>
<text text-anchor="middle" x="235.37" y="-525" font-family="sans" font-size="10.00">minimap2</text>
<text text-anchor="middle" x="235.37" y="-514" font-family="sans" font-size="10.00">sample: sample_24</text>
</g>
<!-- 6&#45;&gt;10 -->
<g id="edge22" class="edge">
<title>6&#45;&gt;10</title>
<path fill="none" stroke="grey" stroke-width="2" d="M629.32,-588.15C558.46,-580.3 418.59,-563.33 301.37,-540 300.1,-539.75 298.81,-539.48 297.52,-539.21"/>
<polygon fill="grey" stroke="grey" stroke-width="2" points="298.01,-535.74 287.49,-537 296.5,-542.57 298.01,-535.74"/>
</g>
<!-- 12 -->
<g id="node13" class="node">
<title>12</title>
<path fill="none" stroke="#97d856" stroke-width="2" d="M434.37,-396C434.37,-396 372.37,-396 372.37,-396 366.37,-396 360.37,-390 360.37,-384 360.37,-384 360.37,-372 360.37,-372 360.37,-366 366.37,-360 372.37,-360 372.37,-360 434.37,-360 434.37,-360 440.37,-360 446.37,-366 446.37,-372 446.37,-372 446.37,-384 446.37,-384 446.37,-390 440.37,-396 434.37,-396"/>
<text text-anchor="middle" x="403.37" y="-375.5" font-family="sans" font-size="10.00">ivar_consensus</text>
</g>
<!-- 6&#45;&gt;12 -->
<g id="edge24" class="edge">
<title>6&#45;&gt;12</title>
<path fill="none" stroke="grey" stroke-width="2" d="M629.11,-592.91C544.89,-591.65 371.79,-583.68 334.37,-540 299.24,-498.99 346.05,-437.41 378.02,-403.53"/>
<polygon fill="grey" stroke="grey" stroke-width="2" points="380.54,-405.96 384.98,-396.34 375.51,-401.09 380.54,-405.96"/>
</g>
<!-- 13 -->
<g id="node14" class="node">
<title>13</title>
<path fill="none" stroke="#61d856" stroke-width="2" d="M435.37,-540C435.37,-540 355.37,-540 355.37,-540 349.37,-540 343.37,-534 343.37,-528 343.37,-528 343.37,-516 343.37,-516 343.37,-510 349.37,-504 355.37,-504 355.37,-504 435.37,-504 435.37,-504 441.37,-504 447.37,-510 447.37,-516 447.37,-516 447.37,-528 447.37,-528 447.37,-534 441.37,-540 435.37,-540"/>
<text text-anchor="middle" x="395.37" y="-525" font-family="sans" font-size="10.00">minimap2</text>
<text text-anchor="middle" x="395.37" y="-514" font-family="sans" font-size="10.00">sample: sample_25</text>
</g>
<!-- 6&#45;&gt;13 -->
<g id="edge27" class="edge">
<title>6&#45;&gt;13</title>
<path fill="none" stroke="grey" stroke-width="2" d="M629,-581.65C585.64,-571 519.08,-554.58 461.37,-540 460.11,-539.68 458.84,-539.36 457.56,-539.04"/>
<polygon fill="grey" stroke="grey" stroke-width="2" points="458.15,-535.57 447.6,-536.5 456.43,-542.36 458.15,-535.57"/>
</g>
<!-- 15 -->
<g id="node16" class="node">
<title>15</title>
<path fill="none" stroke="#97d856" stroke-width="2" d="M560.37,-396C560.37,-396 498.37,-396 498.37,-396 492.37,-396 486.37,-390 486.37,-384 486.37,-384 486.37,-372 486.37,-372 486.37,-366 492.37,-360 498.37,-360 498.37,-360 560.37,-360 560.37,-360 566.37,-360 572.37,-366 572.37,-372 572.37,-372 572.37,-384 572.37,-384 572.37,-390 566.37,-396 560.37,-396"/>
<text text-anchor="middle" x="529.37" y="-375.5" font-family="sans" font-size="10.00">ivar_consensus</text>
</g>
<!-- 6&#45;&gt;15 -->
<g id="edge29" class="edge">
<title>6&#45;&gt;15</title>
<path fill="none" stroke="grey" stroke-width="2" d="M629.16,-585.87C581.08,-577.39 510.57,-561.62 494.37,-540 464.35,-499.93 491.75,-439.38 512.08,-405.1"/>
<polygon fill="grey" stroke="grey" stroke-width="2" points="515.32,-406.51 517.57,-396.16 509.35,-402.85 515.32,-406.51"/>
</g>
<!-- 16 -->
<g id="node17" class="node">
<title>16</title>
<path fill="none" stroke="#61d856" stroke-width="2" d="M595.37,-540C595.37,-540 515.37,-540 515.37,-540 509.37,-540 503.37,-534 503.37,-528 503.37,-528 503.37,-516 503.37,-516 503.37,-510 509.37,-504 515.37,-504 515.37,-504 595.37,-504 595.37,-504 601.37,-504 607.37,-510 607.37,-516 607.37,-516 607.37,-528 607.37,-528 607.37,-534 601.37,-540 595.37,-540"/>
<text text-anchor="middle" x="555.37" y="-525" font-family="sans" font-size="10.00">minimap2</text>
<text text-anchor="middle" x="555.37" y="-514" font-family="sans" font-size="10.00">sample: sample_29</text>
</g>
<!-- 6&#45;&gt;16 -->
<g id="edge32" class="edge">
<title>6&#45;&gt;16</title>
<path fill="none" stroke="grey" stroke-width="2" d="M646.02,-575.88C630.33,-566.72 610.82,-555.34 593.92,-545.48"/>
<polygon fill="grey" stroke="grey" stroke-width="2" points="595.24,-542.21 584.84,-540.19 591.71,-548.25 595.24,-542.21"/>
</g>
<!-- 18 -->
<g id="node19" class="node">
<title>18</title>
<path fill="none" stroke="#97d856" stroke-width="2" d="M704.37,-396C704.37,-396 642.37,-396 642.37,-396 636.37,-396 630.37,-390 630.37,-384 630.37,-384 630.37,-372 630.37,-372 630.37,-366 636.37,-360 642.37,-360 642.37,-360 704.37,-360 704.37,-360 710.37,-360 716.37,-366 716.37,-372 716.37,-372 716.37,-384 716.37,-384 716.37,-390 710.37,-396 704.37,-396"/>
<text text-anchor="middle" x="673.37" y="-375.5" font-family="sans" font-size="10.00">ivar_consensus</text>
</g>
<!-- 6&#45;&gt;18 -->
<g id="edge34" class="edge">
<title>6&#45;&gt;18</title>
<path fill="none" stroke="grey" stroke-width="2" d="M666.65,-575.83C662,-565.69 656.75,-552.44 654.37,-540 645.46,-493.3 656.58,-438.14 665.18,-406.01"/>
<polygon fill="grey" stroke="grey" stroke-width="2" points="668.64,-406.62 667.96,-396.04 661.9,-404.73 668.64,-406.62"/>
</g>
<!-- 19 -->
<g id="node20" class="node">
<title>19</title>
<path fill="none" stroke="#61d856" stroke-width="2" d="M755.37,-540C755.37,-540 675.37,-540 675.37,-540 669.37,-540 663.37,-534 663.37,-528 663.37,-528 663.37,-516 663.37,-516 663.37,-510 669.37,-504 675.37,-504 675.37,-504 755.37,-504 755.37,-504 761.37,-504 767.37,-510 767.37,-516 767.37,-516 767.37,-528 767.37,-528 767.37,-534 761.37,-540 755.37,-540"/>
<text text-anchor="middle" x="715.37" y="-525" font-family="sans" font-size="10.00">minimap2</text>
<text text-anchor="middle" x="715.37" y="-514" font-family="sans" font-size="10.00">sample: sample_34</text>
</g>
<!-- 6&#45;&gt;19 -->
<g id="edge37" class="edge">
<title>6&#45;&gt;19</title>
<path fill="none" stroke="grey" stroke-width="2" d="M685.26,-575.7C689.86,-567.64 695.43,-557.89 700.53,-548.98"/>
<polygon fill="grey" stroke="grey" stroke-width="2" points="703.68,-550.52 705.6,-540.1 697.6,-547.05 703.68,-550.52"/>
</g>
<!-- 21 -->
<g id="node22" class="node">
<title>21</title>
<path fill="none" stroke="#97d856" stroke-width="2" d="M845.37,-396C845.37,-396 783.37,-396 783.37,-396 777.37,-396 771.37,-390 771.37,-384 771.37,-384 771.37,-372 771.37,-372 771.37,-366 777.37,-360 783.37,-360 783.37,-360 845.37,-360 845.37,-360 851.37,-360 857.37,-366 857.37,-372 857.37,-372 857.37,-384 857.37,-384 857.37,-390 851.37,-396 845.37,-396"/>
<text text-anchor="middle" x="814.37" y="-375.5" font-family="sans" font-size="10.00">ivar_consensus</text>
</g>
<!-- 6&#45;&gt;21 -->
<g id="edge39" class="edge">
<title>6&#45;&gt;21</title>
<path fill="none" stroke="grey" stroke-width="2" d="M721.61,-578.53C741.18,-570.19 762.6,-557.76 776.37,-540 806.79,-500.78 813.46,-441.16 814.58,-406.54"/>
<polygon fill="grey" stroke="grey" stroke-width="2" points="818.08,-406.3 814.77,-396.23 811.08,-406.17 818.08,-406.3"/>
</g>
<!-- 22 -->
<g id="node23" class="node">
<title>22</title>
<path fill="none" stroke="#61d856" stroke-width="2" d="M915.37,-540C915.37,-540 835.37,-540 835.37,-540 829.37,-540 823.37,-534 823.37,-528 823.37,-528 823.37,-516 823.37,-516 823.37,-510 829.37,-504 835.37,-504 835.37,-504 915.37,-504 915.37,-504 921.37,-504 927.37,-510 927.37,-516 927.37,-516 927.37,-528 927.37,-528 927.37,-534 921.37,-540 915.37,-540"/>
<text text-anchor="middle" x="875.37" y="-525" font-family="sans" font-size="10.00">minimap2</text>
<text text-anchor="middle" x="875.37" y="-514" font-family="sans" font-size="10.00">sample: sample_36</text>
</g>
<!-- 6&#45;&gt;22 -->
<g id="edge42" class="edge">
<title>6&#45;&gt;22</title>
<path fill="none" stroke="grey" stroke-width="2" d="M721.51,-576.85C749.93,-566.91 786.62,-554.06 817.04,-543.42"/>
<polygon fill="grey" stroke="grey" stroke-width="2" points="818.4,-546.65 826.68,-540.04 816.08,-540.04 818.4,-546.65"/>
</g>
<!-- 24 -->
<g id="node25" class="node">
<title>24</title>
<path fill="none" stroke="#97d856" stroke-width="2" d="M1005.37,-396C1005.37,-396 943.37,-396 943.37,-396 937.37,-396 931.37,-390 931.37,-384 931.37,-384 931.37,-372 931.37,-372 931.37,-366 937.37,-360 943.37,-360 943.37,-360 1005.37,-360 1005.37,-360 1011.37,-360 1017.37,-366 1017.37,-372 1017.37,-372 1017.37,-384 1017.37,-384 1017.37,-390 1011.37,-396 1005.37,-396"/>
<text text-anchor="middle" x="974.37" y="-375.5" font-family="sans" font-size="10.00">ivar_consensus</text>
</g>
<!-- 6&#45;&gt;24 -->
<g id="edge44" class="edge">
<title>6&#45;&gt;24</title>
<path fill="none" stroke="grey" stroke-width="2" d="M721.44,-589.54C787.97,-583.6 906.28,-569.16 936.37,-540 972.54,-504.95 976.99,-442.38 976.2,-406.43"/>
<polygon fill="grey" stroke="grey" stroke-width="2" points="979.69,-406.05 975.82,-396.19 972.7,-406.31 979.69,-406.05"/>
</g>
<!-- 25 -->
<g id="node26" class="node">
<title>25</title>
<path fill="none" stroke="#61d856" stroke-width="2" d="M1075.37,-540C1075.37,-540 995.37,-540 995.37,-540 989.37,-540 983.37,-534 983.37,-528 983.37,-528 983.37,-516 983.37,-516 983.37,-510 989.37,-504 995.37,-504 995.37,-504 1075.37,-504 1075.37,-504 1081.37,-504 1087.37,-510 1087.37,-516 1087.37,-516 1087.37,-528 1087.37,-528 1087.37,-534 1081.37,-540 1075.37,-540"/>
<text text-anchor="middle" x="1035.37" y="-525" font-family="sans" font-size="10.00">minimap2</text>
<text text-anchor="middle" x="1035.37" y="-514" font-family="sans" font-size="10.00">sample: sample_37</text>
</g>
<!-- 6&#45;&gt;25 -->
<g id="edge47" class="edge">
<title>6&#45;&gt;25</title>
<path fill="none" stroke="grey" stroke-width="2" d="M721.41,-585.78C779.46,-576.43 882.22,-559.05 969.37,-540 970.64,-539.72 971.92,-539.44 973.21,-539.15"/>
<polygon fill="grey" stroke="grey" stroke-width="2" points="974.28,-542.49 983.22,-536.81 972.68,-535.68 974.28,-542.49"/>
</g>
<!-- 27 -->
<g id="node28" class="node">
<title>27</title>
<path fill="none" stroke="#97d856" stroke-width="2" d="M1165.37,-396C1165.37,-396 1103.37,-396 1103.37,-396 1097.37,-396 1091.37,-390 1091.37,-384 1091.37,-384 1091.37,-372 1091.37,-372 1091.37,-366 1097.37,-360 1103.37,-360 1103.37,-360 1165.37,-360 1165.37,-360 1171.37,-360 1177.37,-366 1177.37,-372 1177.37,-372 1177.37,-384 1177.37,-384 1177.37,-390 1171.37,-396 1165.37,-396"/>
<text text-anchor="middle" x="1134.37" y="-375.5" font-family="sans" font-size="10.00">ivar_consensus</text>
</g>
<!-- 6&#45;&gt;27 -->
<g id="edge49" class="edge">
<title>6&#45;&gt;27</title>
<path fill="none" stroke="grey" stroke-width="2" d="M721.69,-593.58C819.39,-593.81 1042.06,-588.81 1096.37,-540 1133.93,-506.25 1137.82,-442.92 1136.58,-406.56"/>
<polygon fill="grey" stroke="grey" stroke-width="2" points="1140.05,-406.01 1136.06,-396.2 1133.06,-406.37 1140.05,-406.01"/>
</g>
<!-- 28 -->
<g id="node29" class="node">
<title>28</title>
<path fill="none" stroke="#61d856" stroke-width="2" d="M1235.37,-540C1235.37,-540 1155.37,-540 1155.37,-540 1149.37,-540 1143.37,-534 1143.37,-528 1143.37,-528 1143.37,-516 1143.37,-516 1143.37,-510 1149.37,-504 1155.37,-504 1155.37,-504 1235.37,-504 1235.37,-504 1241.37,-504 1247.37,-510 1247.37,-516 1247.37,-516 1247.37,-528 1247.37,-528 1247.37,-534 1241.37,-540 1235.37,-540"/>
<text text-anchor="middle" x="1195.37" y="-525" font-family="sans" font-size="10.00">minimap2</text>
<text text-anchor="middle" x="1195.37" y="-514" font-family="sans" font-size="10.00">sample: sample_50</text>
</g>
<!-- 6&#45;&gt;28 -->
<g id="edge52" class="edge">
<title>6&#45;&gt;28</title>
<path fill="none" stroke="grey" stroke-width="2" d="M721.44,-589.7C803.8,-583.35 981.54,-567.54 1129.37,-540 1130.65,-539.76 1131.94,-539.51 1133.23,-539.26"/>
<polygon fill="grey" stroke="grey" stroke-width="2" points="1134.23,-542.62 1143.28,-537.12 1132.77,-535.78 1134.23,-542.62"/>
</g>
<!-- 30 -->
<g id="node31" class="node">
<title>30</title>
<path fill="none" stroke="#97d856" stroke-width="2" d="M1325.37,-396C1325.37,-396 1263.37,-396 1263.37,-396 1257.37,-396 1251.37,-390 1251.37,-384 1251.37,-384 1251.37,-372 1251.37,-372 1251.37,-366 1257.37,-360 1263.37,-360 1263.37,-360 1325.37,-360 1325.37,-360 1331.37,-360 1337.37,-366 1337.37,-372 1337.37,-372 1337.37,-384 1337.37,-384 1337.37,-390 1331.37,-396 1325.37,-396"/>
<text text-anchor="middle" x="1294.37" y="-375.5" font-family="sans" font-size="10.00">ivar_consensus</text>
</g>
<!-- 6&#45;&gt;30 -->
<g id="edge54" class="edge">
<title>6&#45;&gt;30</title>
<path fill="none" stroke="grey" stroke-width="2" d="M721.48,-591.85C851.85,-588.16 1216.27,-574.82 1256.37,-540 1294.6,-506.81 1298.2,-443 1296.73,-406.47"/>
<polygon fill="grey" stroke="grey" stroke-width="2" points="1300.21,-405.86 1296.15,-396.07 1293.22,-406.25 1300.21,-405.86"/>
</g>
<!-- 31 -->
<g id="node32" class="node">
<title>31</title>
<path fill="none" stroke="#61d856" stroke-width="2" d="M1395.37,-540C1395.37,-540 1315.37,-540 1315.37,-540 1309.37,-540 1303.37,-534 1303.37,-528 1303.37,-528 1303.37,-516 1303.37,-516 1303.37,-510 1309.37,-504 1315.37,-504 1315.37,-504 1395.37,-504 1395.37,-504 1401.37,-504 1407.37,-510 1407.37,-516 1407.37,-516 1407.37,-528 1407.37,-528 1407.37,-534 1401.37,-540 1395.37,-540"/>
<text text-anchor="middle" x="1355.37" y="-525" font-family="sans" font-size="10.00">minimap2</text>
<text text-anchor="middle" x="1355.37" y="-514" font-family="sans" font-size="10.00">sample: sample_65</text>
</g>
<!-- 6&#45;&gt;31 -->
<g id="edge57" class="edge">
<title>6&#45;&gt;31</title>
<path fill="none" stroke="grey" stroke-width="2" d="M721.53,-591.63C824.25,-588.01 1079.23,-575.88 1289.37,-540 1290.65,-539.78 1291.94,-539.55 1293.24,-539.31"/>
<polygon fill="grey" stroke="grey" stroke-width="2" points="1294.2,-542.68 1303.31,-537.26 1292.81,-535.83 1294.2,-542.68"/>
</g>
<!-- 7&#45;&gt;5 -->
<g id="edge15" class="edge">
<title>7&#45;&gt;5</title>
<path fill="none" stroke="grey" stroke-width="2" d="M68.31,-503.67C64.53,-493.47 60.28,-480.22 58.37,-468 55.15,-447.42 57.78,-423.96 61.01,-406.3"/>
<polygon fill="grey" stroke="grey" stroke-width="2" points="64.51,-406.63 63.05,-396.13 57.65,-405.25 64.51,-406.63"/>
</g>
<!-- 8 -->
<g id="node9" class="node">
<title>8</title>
<path fill="none" stroke="#ced856" stroke-width="2" d="M109.37,-468C109.37,-468 79.37,-468 79.37,-468 73.37,-468 67.37,-462 67.37,-456 67.37,-456 67.37,-444 67.37,-444 67.37,-438 73.37,-432 79.37,-432 79.37,-432 109.37,-432 109.37,-432 115.37,-432 121.37,-438 121.37,-444 121.37,-444 121.37,-456 121.37,-456 121.37,-462 115.37,-468 109.37,-468"/>
<text text-anchor="middle" x="94.37" y="-447.5" font-family="sans" font-size="10.00">index</text>
</g>
<!-- 7&#45;&gt;8 -->
<g id="edge18" class="edge">
<title>7&#45;&gt;8</title>
<path fill="none" stroke="grey" stroke-width="2" d="M80.07,-503.7C82.19,-495.9 84.73,-486.51 87.09,-477.83"/>
<polygon fill="grey" stroke="grey" stroke-width="2" points="90.49,-478.67 89.73,-468.1 83.73,-476.84 90.49,-478.67"/>
</g>
<!-- 8&#45;&gt;5 -->
<g id="edge16" class="edge">
<title>8&#45;&gt;5</title>
<path fill="none" stroke="grey" stroke-width="2" d="M87.7,-431.7C84.66,-423.81 80.99,-414.3 77.61,-405.55"/>
<polygon fill="grey" stroke="grey" stroke-width="2" points="80.83,-404.17 73.97,-396.1 74.3,-406.69 80.83,-404.17"/>
</g>
<!-- 9&#45;&gt;4 -->
<g id="edge6" class="edge">
<title>9&#45;&gt;4</title>
<path fill="none" stroke="grey" stroke-width="2" d="M270.54,-370.22C350.72,-357.64 522.73,-330.64 613.87,-316.34"/>
<polygon fill="grey" stroke="grey" stroke-width="2" points="614.43,-319.79 623.77,-314.79 613.34,-312.88 614.43,-319.79"/>
</g>
<!-- 10&#45;&gt;9 -->
<g id="edge20" class="edge">
<title>10&#45;&gt;9</title>
<path fill="none" stroke="grey" stroke-width="2" d="M228.31,-503.67C224.53,-493.47 220.28,-480.22 218.37,-468 215.15,-447.42 217.78,-423.96 221.01,-406.3"/>
<polygon fill="grey" stroke="grey" stroke-width="2" points="224.51,-406.63 223.05,-396.13 217.65,-405.25 224.51,-406.63"/>
</g>
<!-- 11 -->
<g id="node12" class="node">
<title>11</title>
<path fill="none" stroke="#ced856" stroke-width="2" d="M269.37,-468C269.37,-468 239.37,-468 239.37,-468 233.37,-468 227.37,-462 227.37,-456 227.37,-456 227.37,-444 227.37,-444 227.37,-438 233.37,-432 239.37,-432 239.37,-432 269.37,-432 269.37,-432 275.37,-432 281.37,-438 281.37,-444 281.37,-444 281.37,-456 281.37,-456 281.37,-462 275.37,-468 269.37,-468"/>
<text text-anchor="middle" x="254.37" y="-447.5" font-family="sans" font-size="10.00">index</text>
</g>
<!-- 10&#45;&gt;11 -->
<g id="edge23" class="edge">
<title>10&#45;&gt;11</title>
<path fill="none" stroke="grey" stroke-width="2" d="M240.07,-503.7C242.19,-495.9 244.73,-486.51 247.09,-477.83"/>
<polygon fill="grey" stroke="grey" stroke-width="2" points="250.49,-478.67 249.73,-468.1 243.73,-476.84 250.49,-478.67"/>
</g>
<!-- 11&#45;&gt;9 -->
<g id="edge21" class="edge">
<title>11&#45;&gt;9</title>
<path fill="none" stroke="grey" stroke-width="2" d="M247.7,-431.7C244.66,-423.81 240.99,-414.3 237.61,-405.55"/>
<polygon fill="grey" stroke="grey" stroke-width="2" points="240.83,-404.17 233.97,-396.1 234.3,-406.69 240.83,-404.17"/>
</g>
<!-- 12&#45;&gt;4 -->
<g id="edge7" class="edge">
<title>12&#45;&gt;4</title>
<path fill="none" stroke="grey" stroke-width="2" d="M446.45,-365.83C491.68,-354.11 563.11,-335.59 613.73,-322.46"/>
<polygon fill="grey" stroke="grey" stroke-width="2" points="614.77,-325.81 623.57,-319.91 613.01,-319.03 614.77,-325.81"/>
</g>
<!-- 13&#45;&gt;12 -->
<g id="edge25" class="edge">
<title>13&#45;&gt;12</title>
<path fill="none" stroke="grey" stroke-width="2" d="M387.93,-503.87C381.09,-485.9 372.8,-456.87 378.37,-432 380.39,-423.01 384.1,-413.75 388.07,-405.53"/>
<polygon fill="grey" stroke="grey" stroke-width="2" points="391.28,-406.94 392.75,-396.44 385.06,-403.73 391.28,-406.94"/>
</g>
<!-- 14 -->
<g id="node15" class="node">
<title>14</title>
<path fill="none" stroke="#ced856" stroke-width="2" d="M429.37,-468C429.37,-468 399.37,-468 399.37,-468 393.37,-468 387.37,-462 387.37,-456 387.37,-456 387.37,-444 387.37,-444 387.37,-438 393.37,-432 399.37,-432 399.37,-432 429.37,-432 429.37,-432 435.37,-432 441.37,-438 441.37,-444 441.37,-444 441.37,-456 441.37,-456 441.37,-462 435.37,-468 429.37,-468"/>
<text text-anchor="middle" x="414.37" y="-447.5" font-family="sans" font-size="10.00">index</text>
</g>
<!-- 13&#45;&gt;14 -->
<g id="edge28" class="edge">
<title>13&#45;&gt;14</title>
<path fill="none" stroke="grey" stroke-width="2" d="M400.07,-503.7C402.19,-495.9 404.73,-486.51 407.09,-477.83"/>
<polygon fill="grey" stroke="grey" stroke-width="2" points="410.49,-478.67 409.73,-468.1 403.73,-476.84 410.49,-478.67"/>
</g>
<!-- 14&#45;&gt;12 -->
<g id="edge26" class="edge">
<title>14&#45;&gt;12</title>
<path fill="none" stroke="grey" stroke-width="2" d="M411.65,-431.7C410.44,-423.98 408.98,-414.71 407.63,-406.11"/>
<polygon fill="grey" stroke="grey" stroke-width="2" points="411.07,-405.44 406.06,-396.1 404.16,-406.53 411.07,-405.44"/>
</g>
<!-- 15&#45;&gt;4 -->
<g id="edge8" class="edge">
<title>15&#45;&gt;4</title>
<path fill="none" stroke="grey" stroke-width="2" d="M564.6,-359.88C583.95,-350.47 608.15,-338.71 628.8,-328.67"/>
<polygon fill="grey" stroke="grey" stroke-width="2" points="630.55,-331.71 638.01,-324.19 627.49,-325.41 630.55,-331.71"/>
</g>
<!-- 16&#45;&gt;15 -->
<g id="edge30" class="edge">
<title>16&#45;&gt;15</title>
<path fill="none" stroke="grey" stroke-width="2" d="M548.77,-503.58C545.15,-493.36 540.9,-480.11 538.37,-468 534.12,-447.6 531.85,-424.14 530.66,-406.43"/>
<polygon fill="grey" stroke="grey" stroke-width="2" points="534.14,-406 530.04,-396.22 527.15,-406.42 534.14,-406"/>
</g>
<!-- 17 -->
<g id="node18" class="node">
<title>17</title>
<path fill="none" stroke="#ced856" stroke-width="2" d="M589.37,-468C589.37,-468 559.37,-468 559.37,-468 553.37,-468 547.37,-462 547.37,-456 547.37,-456 547.37,-444 547.37,-444 547.37,-438 553.37,-432 559.37,-432 559.37,-432 589.37,-432 589.37,-432 595.37,-432 601.37,-438 601.37,-444 601.37,-444 601.37,-456 601.37,-456 601.37,-462 595.37,-468 589.37,-468"/>
<text text-anchor="middle" x="574.37" y="-447.5" font-family="sans" font-size="10.00">index</text>
</g>
<!-- 16&#45;&gt;17 -->
<g id="edge33" class="edge">
<title>16&#45;&gt;17</title>
<path fill="none" stroke="grey" stroke-width="2" d="M560.07,-503.7C562.19,-495.9 564.73,-486.51 567.09,-477.83"/>
<polygon fill="grey" stroke="grey" stroke-width="2" points="570.49,-478.67 569.73,-468.1 563.73,-476.84 570.49,-478.67"/>
</g>
<!-- 17&#45;&gt;15 -->
<g id="edge31" class="edge">
<title>17&#45;&gt;15</title>
<path fill="none" stroke="grey" stroke-width="2" d="M563.25,-431.7C558.02,-423.56 551.67,-413.69 545.89,-404.7"/>
<polygon fill="grey" stroke="grey" stroke-width="2" points="548.72,-402.62 540.37,-396.1 542.83,-406.41 548.72,-402.62"/>
</g>
<!-- 18&#45;&gt;4 -->
<g id="edge9" class="edge">
<title>18&#45;&gt;4</title>
<path fill="none" stroke="grey" stroke-width="2" d="M673.37,-359.7C673.37,-351.98 673.37,-342.71 673.37,-334.11"/>
<polygon fill="grey" stroke="grey" stroke-width="2" points="676.87,-334.1 673.37,-324.1 669.87,-334.1 676.87,-334.1"/>
</g>
<!-- 19&#45;&gt;18 -->
<g id="edge35" class="edge">
<title>19&#45;&gt;18</title>
<path fill="none" stroke="grey" stroke-width="2" d="M706.81,-503.67C702.04,-493.48 696.29,-480.23 692.37,-468 685.88,-447.72 680.96,-424.12 677.75,-406.32"/>
<polygon fill="grey" stroke="grey" stroke-width="2" points="681.17,-405.58 676.02,-396.33 674.28,-406.78 681.17,-405.58"/>
</g>
<!-- 20 -->
<g id="node21" class="node">
<title>20</title>
<path fill="none" stroke="#ced856" stroke-width="2" d="M743.37,-468C743.37,-468 713.37,-468 713.37,-468 707.37,-468 701.37,-462 701.37,-456 701.37,-456 701.37,-444 701.37,-444 701.37,-438 707.37,-432 713.37,-432 713.37,-432 743.37,-432 743.37,-432 749.37,-432 755.37,-438 755.37,-444 755.37,-444 755.37,-456 755.37,-456 755.37,-462 749.37,-468 743.37,-468"/>
<text text-anchor="middle" x="728.37" y="-447.5" font-family="sans" font-size="10.00">index</text>
</g>
<!-- 19&#45;&gt;20 -->
<g id="edge38" class="edge">
<title>19&#45;&gt;20</title>
<path fill="none" stroke="grey" stroke-width="2" d="M718.59,-503.7C720.02,-495.98 721.74,-486.71 723.34,-478.11"/>
<polygon fill="grey" stroke="grey" stroke-width="2" points="726.81,-478.58 725.2,-468.1 719.93,-477.3 726.81,-478.58"/>
</g>
<!-- 20&#45;&gt;18 -->
<g id="edge36" class="edge">
<title>20&#45;&gt;18</title>
<path fill="none" stroke="grey" stroke-width="2" d="M714.78,-431.7C708.25,-423.39 700.3,-413.28 693.13,-404.14"/>
<polygon fill="grey" stroke="grey" stroke-width="2" points="695.74,-401.81 686.81,-396.1 690.24,-406.13 695.74,-401.81"/>
</g>
<!-- 21&#45;&gt;4 -->
<g id="edge10" class="edge">
<title>21&#45;&gt;4</title>
<path fill="none" stroke="grey" stroke-width="2" d="M779.88,-359.88C760.93,-350.47 737.24,-338.71 717.02,-328.67"/>
<polygon fill="grey" stroke="grey" stroke-width="2" points="718.51,-325.5 708,-324.19 715.4,-331.77 718.51,-325.5"/>
</g>
<!-- 22&#45;&gt;21 -->
<g id="edge40" class="edge">
<title>22&#45;&gt;21</title>
<path fill="none" stroke="grey" stroke-width="2" d="M867.89,-503.83C863.38,-493.46 857.53,-479.98 852.37,-468 843.38,-447.1 833.26,-423.41 825.73,-405.73"/>
<polygon fill="grey" stroke="grey" stroke-width="2" points="828.76,-403.91 821.63,-396.07 822.32,-406.65 828.76,-403.91"/>
</g>
<!-- 23 -->
<g id="node24" class="node">
<title>23</title>
<path fill="none" stroke="#ced856" stroke-width="2" d="M903.37,-468C903.37,-468 873.37,-468 873.37,-468 867.37,-468 861.37,-462 861.37,-456 861.37,-456 861.37,-444 861.37,-444 861.37,-438 867.37,-432 873.37,-432 873.37,-432 903.37,-432 903.37,-432 909.37,-432 915.37,-438 915.37,-444 915.37,-444 915.37,-456 915.37,-456 915.37,-462 909.37,-468 903.37,-468"/>
<text text-anchor="middle" x="888.37" y="-447.5" font-family="sans" font-size="10.00">index</text>
</g>
<!-- 22&#45;&gt;23 -->
<g id="edge43" class="edge">
<title>22&#45;&gt;23</title>
<path fill="none" stroke="grey" stroke-width="2" d="M878.59,-503.7C880.02,-495.98 881.74,-486.71 883.34,-478.11"/>
<polygon fill="grey" stroke="grey" stroke-width="2" points="886.81,-478.58 885.2,-468.1 879.93,-477.3 886.81,-478.58"/>
</g>
<!-- 23&#45;&gt;21 -->
<g id="edge41" class="edge">
<title>23&#45;&gt;21</title>
<path fill="none" stroke="grey" stroke-width="2" d="M870.08,-431.7C860.94,-423.05 849.73,-412.45 839.77,-403.03"/>
<polygon fill="grey" stroke="grey" stroke-width="2" points="842.12,-400.43 832.45,-396.1 837.31,-405.52 842.12,-400.43"/>
</g>
<!-- 24&#45;&gt;4 -->
<g id="edge11" class="edge">
<title>24&#45;&gt;4</title>
<path fill="none" stroke="grey" stroke-width="2" d="M931.25,-366.97C879.15,-354.86 791.25,-334.41 732.77,-320.81"/>
<polygon fill="grey" stroke="grey" stroke-width="2" points="733.46,-317.38 722.93,-318.52 731.87,-324.2 733.46,-317.38"/>
</g>
<!-- 25&#45;&gt;24 -->
<g id="edge45" class="edge">
<title>25&#45;&gt;24</title>
<path fill="none" stroke="grey" stroke-width="2" d="M1027.89,-503.83C1023.38,-493.46 1017.53,-479.98 1012.37,-468 1003.38,-447.1 993.26,-423.41 985.73,-405.73"/>
<polygon fill="grey" stroke="grey" stroke-width="2" points="988.76,-403.91 981.63,-396.07 982.32,-406.65 988.76,-403.91"/>
</g>
<!-- 26 -->
<g id="node27" class="node">
<title>26</title>
<path fill="none" stroke="#ced856" stroke-width="2" d="M1063.37,-468C1063.37,-468 1033.37,-468 1033.37,-468 1027.37,-468 1021.37,-462 1021.37,-456 1021.37,-456 1021.37,-444 1021.37,-444 1021.37,-438 1027.37,-432 1033.37,-432 1033.37,-432 1063.37,-432 1063.37,-432 1069.37,-432 1075.37,-438 1075.37,-444 1075.37,-444 1075.37,-456 1075.37,-456 1075.37,-462 1069.37,-468 1063.37,-468"/>
<text text-anchor="middle" x="1048.37" y="-447.5" font-family="sans" font-size="10.00">index</text>
</g>
<!-- 25&#45;&gt;26 -->
<g id="edge48" class="edge">
<title>25&#45;&gt;26</title>
<path fill="none" stroke="grey" stroke-width="2" d="M1038.59,-503.7C1040.02,-495.98 1041.74,-486.71 1043.34,-478.11"/>
<polygon fill="grey" stroke="grey" stroke-width="2" points="1046.81,-478.58 1045.2,-468.1 1039.93,-477.3 1046.81,-478.58"/>
</g>
<!-- 26&#45;&gt;24 -->
<g id="edge46" class="edge">
<title>26&#45;&gt;24</title>
<path fill="none" stroke="grey" stroke-width="2" d="M1030.08,-431.7C1020.94,-423.05 1009.73,-412.45 999.77,-403.03"/>
<polygon fill="grey" stroke="grey" stroke-width="2" points="1002.12,-400.43 992.45,-396.1 997.31,-405.52 1002.12,-400.43"/>
</g>
<!-- 27&#45;&gt;4 -->
<g id="edge12" class="edge">
<title>27&#45;&gt;4</title>
<path fill="none" stroke="grey" stroke-width="2" d="M1091.29,-370.15C1071.52,-367.02 1047.76,-363.29 1026.37,-360 923.33,-344.16 803.28,-326.25 733.07,-315.83"/>
<polygon fill="grey" stroke="grey" stroke-width="2" points="733.49,-312.35 723.08,-314.35 732.46,-319.28 733.49,-312.35"/>
</g>
<!-- 28&#45;&gt;27 -->
<g id="edge50" class="edge">
<title>28&#45;&gt;27</title>
<path fill="none" stroke="grey" stroke-width="2" d="M1187.89,-503.83C1183.38,-493.46 1177.53,-479.98 1172.37,-468 1163.38,-447.1 1153.26,-423.41 1145.73,-405.73"/>
<polygon fill="grey" stroke="grey" stroke-width="2" points="1148.76,-403.91 1141.63,-396.07 1142.32,-406.65 1148.76,-403.91"/>
</g>
<!-- 29 -->
<g id="node30" class="node">
<title>29</title>
<path fill="none" stroke="#ced856" stroke-width="2" d="M1223.37,-468C1223.37,-468 1193.37,-468 1193.37,-468 1187.37,-468 1181.37,-462 1181.37,-456 1181.37,-456 1181.37,-444 1181.37,-444 1181.37,-438 1187.37,-432 1193.37,-432 1193.37,-432 1223.37,-432 1223.37,-432 1229.37,-432 1235.37,-438 1235.37,-444 1235.37,-444 1235.37,-456 1235.37,-456 1235.37,-462 1229.37,-468 1223.37,-468"/>
<text text-anchor="middle" x="1208.37" y="-447.5" font-family="sans" font-size="10.00">index</text>
</g>
<!-- 28&#45;&gt;29 -->
<g id="edge53" class="edge">
<title>28&#45;&gt;29</title>
<path fill="none" stroke="grey" stroke-width="2" d="M1198.59,-503.7C1200.02,-495.98 1201.74,-486.71 1203.34,-478.11"/>
<polygon fill="grey" stroke="grey" stroke-width="2" points="1206.81,-478.58 1205.2,-468.1 1199.93,-477.3 1206.81,-478.58"/>
</g>
<!-- 29&#45;&gt;27 -->
<g id="edge51" class="edge">
<title>29&#45;&gt;27</title>
<path fill="none" stroke="grey" stroke-width="2" d="M1190.08,-431.7C1180.94,-423.05 1169.73,-412.45 1159.77,-403.03"/>
<polygon fill="grey" stroke="grey" stroke-width="2" points="1162.12,-400.43 1152.45,-396.1 1157.31,-405.52 1162.12,-400.43"/>
</g>
<!-- 30&#45;&gt;4 -->
<g id="edge13" class="edge">
<title>30&#45;&gt;4</title>
<path fill="none" stroke="grey" stroke-width="2" d="M1251.35,-369.69C1231.59,-366.47 1207.83,-362.8 1186.37,-360 1022.75,-338.69 828.86,-320.59 733.07,-312.13"/>
<polygon fill="grey" stroke="grey" stroke-width="2" points="733.27,-308.63 723,-311.24 732.65,-315.61 733.27,-308.63"/>
</g>
<!-- 31&#45;&gt;30 -->
<g id="edge55" class="edge">
<title>31&#45;&gt;30</title>
<path fill="none" stroke="grey" stroke-width="2" d="M1347.89,-503.83C1343.38,-493.46 1337.53,-479.98 1332.37,-468 1323.38,-447.1 1313.26,-423.41 1305.73,-405.73"/>
<polygon fill="grey" stroke="grey" stroke-width="2" points="1308.76,-403.91 1301.63,-396.07 1302.32,-406.65 1308.76,-403.91"/>
</g>
<!-- 32 -->
<g id="node33" class="node">
<title>32</title>
<path fill="none" stroke="#ced856" stroke-width="2" d="M1383.37,-468C1383.37,-468 1353.37,-468 1353.37,-468 1347.37,-468 1341.37,-462 1341.37,-456 1341.37,-456 1341.37,-444 1341.37,-444 1341.37,-438 1347.37,-432 1353.37,-432 1353.37,-432 1383.37,-432 1383.37,-432 1389.37,-432 1395.37,-438 1395.37,-444 1395.37,-444 1395.37,-456 1395.37,-456 1395.37,-462 1389.37,-468 1383.37,-468"/>
<text text-anchor="middle" x="1368.37" y="-447.5" font-family="sans" font-size="10.00">index</text>
</g>
<!-- 31&#45;&gt;32 -->
<g id="edge58" class="edge">
<title>31&#45;&gt;32</title>
<path fill="none" stroke="grey" stroke-width="2" d="M1358.59,-503.7C1360.02,-495.98 1361.74,-486.71 1363.34,-478.11"/>
<polygon fill="grey" stroke="grey" stroke-width="2" points="1366.81,-478.58 1365.2,-468.1 1359.93,-477.3 1366.81,-478.58"/>
</g>
<!-- 32&#45;&gt;30 -->
<g id="edge56" class="edge">
<title>32&#45;&gt;30</title>
<path fill="none" stroke="grey" stroke-width="2" d="M1350.08,-431.7C1340.94,-423.05 1329.73,-412.45 1319.77,-403.03"/>
<polygon fill="grey" stroke="grey" stroke-width="2" points="1322.12,-400.43 1312.45,-396.1 1317.31,-405.52 1322.12,-400.43"/>
</g>
</g>
</svg>
