<?xml version="1.0" encoding="UTF-8" standalone="no"?>
<!DOCTYPE svg PUBLIC "-//W3C//DTD SVG 1.1//EN"
 "http://www.w3.org/Graphics/SVG/1.1/DTD/svg11.dtd">
<!-- Generated by graphviz version 2.42.4 (0)
 -->
<!-- Title: snakemake_dag Pages: 1 -->
<svg width="146pt" height="404pt"
 viewBox="0.00 0.00 146.00 404.00" xmlns="http://www.w3.org/2000/svg" xmlns:xlink="http://www.w3.org/1999/xlink">
<g id="graph0" class="graph" transform="scale(1 1) rotate(0) translate(4 400)">
<title>snakemake_dag</title>
<polygon fill="white" stroke="transparent" points="-4,4 -4,-400 142,-400 142,4 -4,4"/>
<!-- 0 -->
<g id="node1" class="node">
<title>0</title>
<path fill="none" stroke="#d86656" stroke-width="2" d="M76.5,-36C76.5,-36 46.5,-36 46.5,-36 40.5,-36 34.5,-30 34.5,-24 34.5,-24 34.5,-12 34.5,-12 34.5,-6 40.5,0 46.5,0 46.5,0 76.5,0 76.5,0 82.5,0 88.5,-6 88.5,-12 88.5,-12 88.5,-24 88.5,-24 88.5,-30 82.5,-36 76.5,-36"/>
<text text-anchor="middle" x="61.5" y="-15.5" font-family="sans" font-size="10.00">all</text>
</g>
<!-- 1 -->
<g id="node2" class="node">
<title>1</title>
<path fill="none" stroke="#567bd8" stroke-width="2" d="M110.5,-180C110.5,-180 12.5,-180 12.5,-180 6.5,-180 0.5,-174 0.5,-168 0.5,-168 0.5,-156 0.5,-156 0.5,-150 6.5,-144 12.5,-144 12.5,-144 110.5,-144 110.5,-144 116.5,-144 122.5,-150 122.5,-156 122.5,-156 122.5,-168 122.5,-168 122.5,-174 116.5,-180 110.5,-180"/>
<text text-anchor="middle" x="61.5" y="-159.5" font-family="sans" font-size="10.00">variability_per_window</text>
</g>
<!-- 1&#45;&gt;0 -->
<g id="edge2" class="edge">
<title>1&#45;&gt;0</title>
<path fill="none" stroke="grey" stroke-width="2" d="M54.85,-143.63C51.3,-133.42 47.3,-120.17 45.5,-108 43.16,-92.17 43.16,-87.83 45.5,-72 46.78,-63.35 49.17,-54.15 51.72,-45.89"/>
<polygon fill="grey" stroke="grey" stroke-width="2" points="55.05,-46.96 54.85,-36.37 48.4,-44.78 55.05,-46.96"/>
</g>
<!-- 5 -->
<g id="node6" class="node">
<title>5</title>
<path fill="none" stroke="#56d8a9" stroke-width="2" d="M126,-108C126,-108 67,-108 67,-108 61,-108 55,-102 55,-96 55,-96 55,-84 55,-84 55,-78 61,-72 67,-72 67,-72 126,-72 126,-72 132,-72 138,-78 138,-84 138,-84 138,-96 138,-96 138,-102 132,-108 126,-108"/>
<text text-anchor="middle" x="96.5" y="-87.5" font-family="sans" font-size="10.00">plot_variability</text>
</g>
<!-- 1&#45;&gt;5 -->
<g id="edge6" class="edge">
<title>1&#45;&gt;5</title>
<path fill="none" stroke="grey" stroke-width="2" d="M70.15,-143.7C74.14,-135.73 78.95,-126.1 83.37,-117.26"/>
<polygon fill="grey" stroke="grey" stroke-width="2" points="86.61,-118.61 87.95,-108.1 80.35,-115.48 86.61,-118.61"/>
</g>
<!-- 2 -->
<g id="node3" class="node">
<title>2</title>
<path fill="none" stroke="#568ad8" stroke-width="2" d="M111,-252C111,-252 12,-252 12,-252 6,-252 0,-246 0,-240 0,-240 0,-228 0,-228 0,-222 6,-216 12,-216 12,-216 111,-216 111,-216 117,-216 123,-222 123,-228 123,-228 123,-240 123,-240 123,-246 117,-252 111,-252"/>
<text text-anchor="middle" x="61.5" y="-231.5" font-family="sans" font-size="10.00">variability_per_position</text>
</g>
<!-- 2&#45;&gt;1 -->
<g id="edge3" class="edge">
<title>2&#45;&gt;1</title>
<path fill="none" stroke="grey" stroke-width="2" d="M61.5,-215.7C61.5,-207.98 61.5,-198.71 61.5,-190.11"/>
<polygon fill="grey" stroke="grey" stroke-width="2" points="65,-190.1 61.5,-180.1 58,-190.1 65,-190.1"/>
</g>
<!-- 3 -->
<g id="node4" class="node">
<title>3</title>
<path fill="none" stroke="#56d85b" stroke-width="2" d="M76.5,-324C76.5,-324 46.5,-324 46.5,-324 40.5,-324 34.5,-318 34.5,-312 34.5,-312 34.5,-300 34.5,-300 34.5,-294 40.5,-288 46.5,-288 46.5,-288 76.5,-288 76.5,-288 82.5,-288 88.5,-294 88.5,-300 88.5,-300 88.5,-312 88.5,-312 88.5,-318 82.5,-324 76.5,-324"/>
<text text-anchor="middle" x="61.5" y="-303.5" font-family="sans" font-size="10.00">msa</text>
</g>
<!-- 3&#45;&gt;2 -->
<g id="edge4" class="edge">
<title>3&#45;&gt;2</title>
<path fill="none" stroke="grey" stroke-width="2" d="M61.5,-287.7C61.5,-279.98 61.5,-270.71 61.5,-262.11"/>
<polygon fill="grey" stroke="grey" stroke-width="2" points="65,-262.1 61.5,-252.1 58,-262.1 65,-262.1"/>
</g>
<!-- 4 -->
<g id="node5" class="node">
<title>4</title>
<path fill="none" stroke="#d8ac56" stroke-width="2" d="M99,-396C99,-396 24,-396 24,-396 18,-396 12,-390 12,-384 12,-384 12,-372 12,-372 12,-366 18,-360 24,-360 24,-360 99,-360 99,-360 105,-360 111,-366 111,-372 111,-372 111,-384 111,-384 111,-390 105,-396 99,-396"/>
<text text-anchor="middle" x="61.5" y="-375.5" font-family="sans" font-size="10.00">concat_consensus</text>
</g>
<!-- 4&#45;&gt;3 -->
<g id="edge5" class="edge">
<title>4&#45;&gt;3</title>
<path fill="none" stroke="grey" stroke-width="2" d="M61.5,-359.7C61.5,-351.98 61.5,-342.71 61.5,-334.11"/>
<polygon fill="grey" stroke="grey" stroke-width="2" points="65,-334.1 61.5,-324.1 58,-334.1 65,-334.1"/>
</g>
<!-- 5&#45;&gt;0 -->
<g id="edge1" class="edge">
<title>5&#45;&gt;0</title>
<path fill="none" stroke="grey" stroke-width="2" d="M87.85,-71.7C83.86,-63.73 79.05,-54.1 74.63,-45.26"/>
<polygon fill="grey" stroke="grey" stroke-width="2" points="77.65,-43.48 70.05,-36.1 71.39,-46.61 77.65,-43.48"/>
</g>
</g>
</svg>
