<?xml version="1.0" encoding="UTF-8" standalone="no"?>
<!DOCTYPE svg PUBLIC "-//W3C//DTD SVG 1.1//EN"
 "http://www.w3.org/Graphics/SVG/1.1/DTD/svg11.dtd">
<!-- Generated by graphviz version 2.42.4 (0)
 -->
<!-- Title: snakemake_dag Pages: 1 -->
<svg width="1262pt" height="548pt"
 viewBox="0.00 0.00 1262.00 548.00" xmlns="http://www.w3.org/2000/svg" xmlns:xlink="http://www.w3.org/1999/xlink">
<g id="graph0" class="graph" transform="scale(1 1) rotate(0) translate(4 544)">
<title>snakemake_dag</title>
<polygon fill="white" stroke="transparent" points="-4,4 -4,-544 1258,-544 1258,4 -4,4"/>
<!-- 0 -->
<g id="node1" class="node">
<title>0</title>
<path fill="none" stroke="#d88d56" stroke-width="2" d="M621.5,-36C621.5,-36 591.5,-36 591.5,-36 585.5,-36 579.5,-30 579.5,-24 579.5,-24 579.5,-12 579.5,-12 579.5,-6 585.5,0 591.5,0 591.5,0 621.5,0 621.5,0 627.5,0 633.5,-6 633.5,-12 633.5,-12 633.5,-24 633.5,-24 633.5,-30 627.5,-36 621.5,-36"/>
<text text-anchor="middle" x="606.5" y="-15.5" font-family="sans" font-size="10.00">all</text>
</g>
<!-- 1 -->
<g id="node2" class="node">
<title>1</title>
<path fill="none" stroke="#d8bc56" stroke-width="2" d="M182,-180C182,-180 123,-180 123,-180 117,-180 111,-174 111,-168 111,-168 111,-156 111,-156 111,-150 117,-144 123,-144 123,-144 182,-144 182,-144 188,-144 194,-150 194,-156 194,-156 194,-168 194,-168 194,-174 188,-180 182,-180"/>
<text text-anchor="middle" x="152.5" y="-159.5" font-family="sans" font-size="10.00">calculate_stats</text>
</g>
<!-- 1&#45;&gt;0 -->
<g id="edge1" class="edge">
<title>1&#45;&gt;0</title>
<path fill="none" stroke="grey" stroke-width="2" d="M162.68,-143.97C176.09,-123.21 201.74,-88.81 233.5,-72 291.31,-41.41 486.42,-26.27 569.04,-21.11"/>
<polygon fill="grey" stroke="grey" stroke-width="2" points="569.47,-24.59 579.24,-20.49 569.04,-17.6 569.47,-24.59"/>
</g>
<!-- 38 -->
<g id="node39" class="node">
<title>38</title>
<path fill="none" stroke="#59d856" stroke-width="2" d="M313,-108C313,-108 254,-108 254,-108 248,-108 242,-102 242,-96 242,-96 242,-84 242,-84 242,-78 248,-72 254,-72 254,-72 313,-72 313,-72 319,-72 325,-78 325,-84 325,-84 325,-96 325,-96 325,-102 319,-108 313,-108"/>
<text text-anchor="middle" x="283.5" y="-93" font-family="sans" font-size="10.00">grouped_stats</text>
<text text-anchor="middle" x="283.5" y="-82" font-family="sans" font-size="10.00">group: A</text>
</g>
<!-- 1&#45;&gt;38 -->
<g id="edge65" class="edge">
<title>1&#45;&gt;38</title>
<path fill="none" stroke="grey" stroke-width="2" d="M184.55,-143.88C201.99,-134.55 223.77,-122.92 242.44,-112.94"/>
<polygon fill="grey" stroke="grey" stroke-width="2" points="244.16,-115.99 251.33,-108.19 240.86,-109.82 244.16,-115.99"/>
</g>
<!-- 41 -->
<g id="node42" class="node">
<title>41</title>
<path fill="none" stroke="#d85656" stroke-width="2" d="M677,-108C677,-108 610,-108 610,-108 604,-108 598,-102 598,-96 598,-96 598,-84 598,-84 598,-78 604,-72 610,-72 610,-72 677,-72 677,-72 683,-72 689,-78 689,-84 689,-84 689,-96 689,-96 689,-102 683,-108 677,-108"/>
<text text-anchor="middle" x="643.5" y="-87.5" font-family="sans" font-size="10.00">aggregate_stats</text>
</g>
<!-- 1&#45;&gt;41 -->
<g id="edge71" class="edge">
<title>1&#45;&gt;41</title>
<path fill="none" stroke="grey" stroke-width="2" d="M194.04,-146.33C197.22,-145.46 200.4,-144.67 203.5,-144 355.06,-111.29 397.01,-129.96 550.5,-108 562.56,-106.27 575.44,-104.12 587.66,-101.93"/>
<polygon fill="grey" stroke="grey" stroke-width="2" points="588.52,-105.33 597.73,-100.09 587.27,-98.45 588.52,-105.33"/>
</g>
<!-- 2 -->
<g id="node3" class="node">
<title>2</title>
<path fill="none" stroke="#568ad8" stroke-width="2" d="M144.5,-324C144.5,-324 114.5,-324 114.5,-324 108.5,-324 102.5,-318 102.5,-312 102.5,-312 102.5,-300 102.5,-300 102.5,-294 108.5,-288 114.5,-288 114.5,-288 144.5,-288 144.5,-288 150.5,-288 156.5,-294 156.5,-300 156.5,-300 156.5,-312 156.5,-312 156.5,-318 150.5,-324 144.5,-324"/>
<text text-anchor="middle" x="129.5" y="-303.5" font-family="sans" font-size="10.00">sort</text>
</g>
<!-- 2&#45;&gt;1 -->
<g id="edge17" class="edge">
<title>2&#45;&gt;1</title>
<path fill="none" stroke="grey" stroke-width="2" d="M132.27,-287.87C136.19,-263.67 143.4,-219.21 148.06,-190.39"/>
<polygon fill="grey" stroke="grey" stroke-width="2" points="151.57,-190.62 149.72,-180.19 144.66,-189.5 151.57,-190.62"/>
</g>
<!-- 6 -->
<g id="node7" class="node">
<title>6</title>
<path fill="none" stroke="#56d88a" stroke-width="2" d="M116.5,-252C116.5,-252 86.5,-252 86.5,-252 80.5,-252 74.5,-246 74.5,-240 74.5,-240 74.5,-228 74.5,-228 74.5,-222 80.5,-216 86.5,-216 86.5,-216 116.5,-216 116.5,-216 122.5,-216 128.5,-222 128.5,-228 128.5,-228 128.5,-240 128.5,-240 128.5,-246 122.5,-252 116.5,-252"/>
<text text-anchor="middle" x="101.5" y="-231.5" font-family="sans" font-size="10.00">index</text>
</g>
<!-- 2&#45;&gt;6 -->
<g id="edge22" class="edge">
<title>2&#45;&gt;6</title>
<path fill="none" stroke="grey" stroke-width="2" d="M122.58,-287.7C119.43,-279.81 115.62,-270.3 112.12,-261.55"/>
<polygon fill="grey" stroke="grey" stroke-width="2" points="115.31,-260.09 108.34,-252.1 108.81,-262.69 115.31,-260.09"/>
</g>
<!-- 32 -->
<g id="node33" class="node">
<title>32</title>
<path fill="none" stroke="#88d856" stroke-width="2" d="M81,-180C81,-180 12,-180 12,-180 6,-180 0,-174 0,-168 0,-168 0,-156 0,-156 0,-150 6,-144 12,-144 12,-144 81,-144 81,-144 87,-144 93,-150 93,-156 93,-156 93,-168 93,-168 93,-174 87,-180 81,-180"/>
<text text-anchor="middle" x="46.5" y="-159.5" font-family="sans" font-size="10.00">extract_mapping</text>
</g>
<!-- 2&#45;&gt;32 -->
<g id="edge53" class="edge">
<title>2&#45;&gt;32</title>
<path fill="none" stroke="grey" stroke-width="2" d="M102.42,-288.78C89.34,-279.59 74.55,-266.93 65.5,-252 54.21,-233.36 49.57,-208.97 47.69,-190.44"/>
<polygon fill="grey" stroke="grey" stroke-width="2" points="51.16,-189.98 46.87,-180.29 44.19,-190.54 51.16,-189.98"/>
</g>
<!-- 3 -->
<g id="node4" class="node">
<title>3</title>
<path fill="none" stroke="#bed856" stroke-width="2" d="M176.5,-396C176.5,-396 146.5,-396 146.5,-396 140.5,-396 134.5,-390 134.5,-384 134.5,-384 134.5,-372 134.5,-372 134.5,-366 140.5,-360 146.5,-360 146.5,-360 176.5,-360 176.5,-360 182.5,-360 188.5,-366 188.5,-372 188.5,-372 188.5,-384 188.5,-384 188.5,-390 182.5,-396 176.5,-396"/>
<text text-anchor="middle" x="161.5" y="-375.5" font-family="sans" font-size="10.00">convert</text>
</g>
<!-- 3&#45;&gt;2 -->
<g id="edge19" class="edge">
<title>3&#45;&gt;2</title>
<path fill="none" stroke="grey" stroke-width="2" d="M153.59,-359.7C149.95,-351.73 145.55,-342.1 141.51,-333.26"/>
<polygon fill="grey" stroke="grey" stroke-width="2" points="144.66,-331.74 137.32,-324.1 138.29,-334.65 144.66,-331.74"/>
</g>
<!-- 4 -->
<g id="node5" class="node">
<title>4</title>
<path fill="none" stroke="#56c1d8" stroke-width="2" d="M261.5,-468C261.5,-468 155.5,-468 155.5,-468 149.5,-468 143.5,-462 143.5,-456 143.5,-456 143.5,-444 143.5,-444 143.5,-438 149.5,-432 155.5,-432 155.5,-432 261.5,-432 261.5,-432 267.5,-432 273.5,-438 273.5,-444 273.5,-444 273.5,-456 273.5,-456 273.5,-462 267.5,-468 261.5,-468"/>
<text text-anchor="middle" x="208.5" y="-453" font-family="sans" font-size="10.00">map</text>
<text text-anchor="middle" x="208.5" y="-442" font-family="sans" font-size="10.00">sample: ERR024604_tiny</text>
</g>
<!-- 4&#45;&gt;3 -->
<g id="edge20" class="edge">
<title>4&#45;&gt;3</title>
<path fill="none" stroke="grey" stroke-width="2" d="M196.88,-431.7C191.36,-423.47 184.65,-413.48 178.57,-404.42"/>
<polygon fill="grey" stroke="grey" stroke-width="2" points="181.46,-402.46 172.98,-396.1 175.65,-406.36 181.46,-402.46"/>
</g>
<!-- 5 -->
<g id="node6" class="node">
<title>5</title>
<path fill="none" stroke="#56d8c1" stroke-width="2" d="M632,-540C632,-540 597,-540 597,-540 591,-540 585,-534 585,-528 585,-528 585,-516 585,-516 585,-510 591,-504 597,-504 597,-504 632,-504 632,-504 638,-504 644,-510 644,-516 644,-516 644,-528 644,-528 644,-534 638,-540 632,-540"/>
<text text-anchor="middle" x="614.5" y="-519.5" font-family="sans" font-size="10.00">index_ref</text>
</g>
<!-- 5&#45;&gt;4 -->
<g id="edge21" class="edge">
<title>5&#45;&gt;4</title>
<path fill="none" stroke="grey" stroke-width="2" d="M584.77,-515.9C529.81,-506.46 408.62,-485.64 306.5,-468 299.11,-466.72 291.4,-465.39 283.7,-464.05"/>
<polygon fill="grey" stroke="grey" stroke-width="2" points="284.05,-460.56 273.6,-462.31 282.86,-467.46 284.05,-460.56"/>
</g>
<!-- 10 -->
<g id="node11" class="node">
<title>10</title>
<path fill="none" stroke="#56c1d8" stroke-width="2" d="M433.5,-468C433.5,-468 327.5,-468 327.5,-468 321.5,-468 315.5,-462 315.5,-456 315.5,-456 315.5,-444 315.5,-444 315.5,-438 321.5,-432 327.5,-432 327.5,-432 433.5,-432 433.5,-432 439.5,-432 445.5,-438 445.5,-444 445.5,-444 445.5,-456 445.5,-456 445.5,-462 439.5,-468 433.5,-468"/>
<text text-anchor="middle" x="380.5" y="-453" font-family="sans" font-size="10.00">map</text>
<text text-anchor="middle" x="380.5" y="-442" font-family="sans" font-size="10.00">sample: ERR024605_tiny</text>
</g>
<!-- 5&#45;&gt;10 -->
<g id="edge27" class="edge">
<title>5&#45;&gt;10</title>
<path fill="none" stroke="grey" stroke-width="2" d="M584.86,-512.13C550.49,-501.85 492.75,-484.58 447.39,-471.01"/>
<polygon fill="grey" stroke="grey" stroke-width="2" points="448.2,-467.6 437.62,-468.09 446.2,-474.31 448.2,-467.6"/>
</g>
<!-- 15 -->
<g id="node16" class="node">
<title>15</title>
<path fill="none" stroke="#56c1d8" stroke-width="2" d="M593.5,-468C593.5,-468 487.5,-468 487.5,-468 481.5,-468 475.5,-462 475.5,-456 475.5,-456 475.5,-444 475.5,-444 475.5,-438 481.5,-432 487.5,-432 487.5,-432 593.5,-432 593.5,-432 599.5,-432 605.5,-438 605.5,-444 605.5,-444 605.5,-456 605.5,-456 605.5,-462 599.5,-468 593.5,-468"/>
<text text-anchor="middle" x="540.5" y="-453" font-family="sans" font-size="10.00">map</text>
<text text-anchor="middle" x="540.5" y="-442" font-family="sans" font-size="10.00">sample: ERR024606_tiny</text>
</g>
<!-- 5&#45;&gt;15 -->
<g id="edge33" class="edge">
<title>5&#45;&gt;15</title>
<path fill="none" stroke="grey" stroke-width="2" d="M596.21,-503.7C587.07,-495.05 575.86,-484.45 565.9,-475.03"/>
<polygon fill="grey" stroke="grey" stroke-width="2" points="568.25,-472.43 558.58,-468.1 563.44,-477.52 568.25,-472.43"/>
</g>
<!-- 20 -->
<g id="node21" class="node">
<title>20</title>
<path fill="none" stroke="#56c1d8" stroke-width="2" d="M747.5,-468C747.5,-468 641.5,-468 641.5,-468 635.5,-468 629.5,-462 629.5,-456 629.5,-456 629.5,-444 629.5,-444 629.5,-438 635.5,-432 641.5,-432 641.5,-432 747.5,-432 747.5,-432 753.5,-432 759.5,-438 759.5,-444 759.5,-444 759.5,-456 759.5,-456 759.5,-462 753.5,-468 747.5,-468"/>
<text text-anchor="middle" x="694.5" y="-453" font-family="sans" font-size="10.00">map</text>
<text text-anchor="middle" x="694.5" y="-442" font-family="sans" font-size="10.00">sample: ERR024607_tiny</text>
</g>
<!-- 5&#45;&gt;20 -->
<g id="edge39" class="edge">
<title>5&#45;&gt;20</title>
<path fill="none" stroke="grey" stroke-width="2" d="M634.28,-503.7C644.25,-494.97 656.51,-484.24 667.36,-474.75"/>
<polygon fill="grey" stroke="grey" stroke-width="2" points="669.73,-477.32 674.95,-468.1 665.12,-472.06 669.73,-477.32"/>
</g>
<!-- 25 -->
<g id="node26" class="node">
<title>25</title>
<path fill="none" stroke="#56c1d8" stroke-width="2" d="M898.5,-468C898.5,-468 792.5,-468 792.5,-468 786.5,-468 780.5,-462 780.5,-456 780.5,-456 780.5,-444 780.5,-444 780.5,-438 786.5,-432 792.5,-432 792.5,-432 898.5,-432 898.5,-432 904.5,-432 910.5,-438 910.5,-444 910.5,-444 910.5,-456 910.5,-456 910.5,-462 904.5,-468 898.5,-468"/>
<text text-anchor="middle" x="845.5" y="-453" font-family="sans" font-size="10.00">map</text>
<text text-anchor="middle" x="845.5" y="-442" font-family="sans" font-size="10.00">sample: ERR024608_tiny</text>
</g>
<!-- 5&#45;&gt;25 -->
<g id="edge45" class="edge">
<title>5&#45;&gt;25</title>
<path fill="none" stroke="grey" stroke-width="2" d="M644.23,-511.99C678.28,-501.67 735.14,-484.44 779.75,-470.93"/>
<polygon fill="grey" stroke="grey" stroke-width="2" points="780.8,-474.26 789.36,-468.01 778.77,-467.56 780.8,-474.26"/>
</g>
<!-- 30 -->
<g id="node31" class="node">
<title>30</title>
<path fill="none" stroke="#56c1d8" stroke-width="2" d="M1047.5,-468C1047.5,-468 941.5,-468 941.5,-468 935.5,-468 929.5,-462 929.5,-456 929.5,-456 929.5,-444 929.5,-444 929.5,-438 935.5,-432 941.5,-432 941.5,-432 1047.5,-432 1047.5,-432 1053.5,-432 1059.5,-438 1059.5,-444 1059.5,-444 1059.5,-456 1059.5,-456 1059.5,-462 1053.5,-468 1047.5,-468"/>
<text text-anchor="middle" x="994.5" y="-453" font-family="sans" font-size="10.00">map</text>
<text text-anchor="middle" x="994.5" y="-442" font-family="sans" font-size="10.00">sample: ERR024609_tiny</text>
</g>
<!-- 5&#45;&gt;30 -->
<g id="edge51" class="edge">
<title>5&#45;&gt;30</title>
<path fill="none" stroke="grey" stroke-width="2" d="M644.04,-516.38C696.95,-507.99 811.62,-489.32 919.06,-468.03"/>
<polygon fill="grey" stroke="grey" stroke-width="2" points="919.97,-471.42 929.1,-466.03 918.6,-464.55 919.97,-471.42"/>
</g>
<!-- 6&#45;&gt;1 -->
<g id="edge18" class="edge">
<title>6&#45;&gt;1</title>
<path fill="none" stroke="grey" stroke-width="2" d="M114.11,-215.7C120.1,-207.47 127.38,-197.48 133.98,-188.42"/>
<polygon fill="grey" stroke="grey" stroke-width="2" points="136.98,-190.25 140.04,-180.1 131.32,-186.13 136.98,-190.25"/>
</g>
<!-- 6&#45;&gt;32 -->
<g id="edge54" class="edge">
<title>6&#45;&gt;32</title>
<path fill="none" stroke="grey" stroke-width="2" d="M87.9,-215.7C81.38,-207.39 73.43,-197.28 66.25,-188.14"/>
<polygon fill="grey" stroke="grey" stroke-width="2" points="68.87,-185.81 59.94,-180.1 63.37,-190.13 68.87,-185.81"/>
</g>
<!-- 7 -->
<g id="node8" class="node">
<title>7</title>
<path fill="none" stroke="#d8bc56" stroke-width="2" d="M394,-180C394,-180 335,-180 335,-180 329,-180 323,-174 323,-168 323,-168 323,-156 323,-156 323,-150 329,-144 335,-144 335,-144 394,-144 394,-144 400,-144 406,-150 406,-156 406,-156 406,-168 406,-168 406,-174 400,-180 394,-180"/>
<text text-anchor="middle" x="364.5" y="-159.5" font-family="sans" font-size="10.00">calculate_stats</text>
</g>
<!-- 7&#45;&gt;0 -->
<g id="edge2" class="edge">
<title>7&#45;&gt;0</title>
<path fill="none" stroke="grey" stroke-width="2" d="M374.56,-143.71C387.09,-123.66 410.31,-90.93 438.5,-72 478.71,-45 533.46,-31.12 569.38,-24.46"/>
<polygon fill="grey" stroke="grey" stroke-width="2" points="570.19,-27.88 579.43,-22.7 568.98,-20.98 570.19,-27.88"/>
</g>
<!-- 39 -->
<g id="node40" class="node">
<title>39</title>
<path fill="none" stroke="#59d856" stroke-width="2" d="M529,-108C529,-108 470,-108 470,-108 464,-108 458,-102 458,-96 458,-96 458,-84 458,-84 458,-78 464,-72 470,-72 470,-72 529,-72 529,-72 535,-72 541,-78 541,-84 541,-84 541,-96 541,-96 541,-102 535,-108 529,-108"/>
<text text-anchor="middle" x="499.5" y="-93" font-family="sans" font-size="10.00">grouped_stats</text>
<text text-anchor="middle" x="499.5" y="-82" font-family="sans" font-size="10.00">group: B</text>
</g>
<!-- 7&#45;&gt;39 -->
<g id="edge67" class="edge">
<title>7&#45;&gt;39</title>
<path fill="none" stroke="grey" stroke-width="2" d="M397.52,-143.88C415.58,-134.51 438.15,-122.81 457.45,-112.8"/>
<polygon fill="grey" stroke="grey" stroke-width="2" points="459.08,-115.9 466.35,-108.19 455.86,-109.69 459.08,-115.9"/>
</g>
<!-- 7&#45;&gt;41 -->
<g id="edge72" class="edge">
<title>7&#45;&gt;41</title>
<path fill="none" stroke="grey" stroke-width="2" d="M406.15,-146.76C409.3,-145.79 412.45,-144.86 415.5,-144 473.8,-127.55 541.51,-112.28 587.9,-102.4"/>
<polygon fill="grey" stroke="grey" stroke-width="2" points="588.7,-105.81 597.76,-100.32 587.25,-98.97 588.7,-105.81"/>
</g>
<!-- 8 -->
<g id="node9" class="node">
<title>8</title>
<path fill="none" stroke="#568ad8" stroke-width="2" d="M355.5,-324C355.5,-324 325.5,-324 325.5,-324 319.5,-324 313.5,-318 313.5,-312 313.5,-312 313.5,-300 313.5,-300 313.5,-294 319.5,-288 325.5,-288 325.5,-288 355.5,-288 355.5,-288 361.5,-288 367.5,-294 367.5,-300 367.5,-300 367.5,-312 367.5,-312 367.5,-318 361.5,-324 355.5,-324"/>
<text text-anchor="middle" x="340.5" y="-303.5" font-family="sans" font-size="10.00">sort</text>
</g>
<!-- 8&#45;&gt;7 -->
<g id="edge23" class="edge">
<title>8&#45;&gt;7</title>
<path fill="none" stroke="grey" stroke-width="2" d="M343.42,-287.82C345.19,-277.44 347.48,-263.96 349.5,-252 353.01,-231.27 356.96,-207.83 359.92,-190.21"/>
<polygon fill="grey" stroke="grey" stroke-width="2" points="363.42,-190.51 361.63,-180.06 356.52,-189.34 363.42,-190.51"/>
</g>
<!-- 11 -->
<g id="node12" class="node">
<title>11</title>
<path fill="none" stroke="#56d88a" stroke-width="2" d="M328.5,-252C328.5,-252 298.5,-252 298.5,-252 292.5,-252 286.5,-246 286.5,-240 286.5,-240 286.5,-228 286.5,-228 286.5,-222 292.5,-216 298.5,-216 298.5,-216 328.5,-216 328.5,-216 334.5,-216 340.5,-222 340.5,-228 340.5,-228 340.5,-240 340.5,-240 340.5,-246 334.5,-252 328.5,-252"/>
<text text-anchor="middle" x="313.5" y="-231.5" font-family="sans" font-size="10.00">index</text>
</g>
<!-- 8&#45;&gt;11 -->
<g id="edge28" class="edge">
<title>8&#45;&gt;11</title>
<path fill="none" stroke="grey" stroke-width="2" d="M333.83,-287.7C330.79,-279.81 327.12,-270.3 323.74,-261.55"/>
<polygon fill="grey" stroke="grey" stroke-width="2" points="326.96,-260.17 320.1,-252.1 320.43,-262.69 326.96,-260.17"/>
</g>
<!-- 33 -->
<g id="node34" class="node">
<title>33</title>
<path fill="none" stroke="#88d856" stroke-width="2" d="M293,-180C293,-180 224,-180 224,-180 218,-180 212,-174 212,-168 212,-168 212,-156 212,-156 212,-150 218,-144 224,-144 224,-144 293,-144 293,-144 299,-144 305,-150 305,-156 305,-156 305,-168 305,-168 305,-174 299,-180 293,-180"/>
<text text-anchor="middle" x="258.5" y="-159.5" font-family="sans" font-size="10.00">extract_mapping</text>
</g>
<!-- 8&#45;&gt;33 -->
<g id="edge55" class="edge">
<title>8&#45;&gt;33</title>
<path fill="none" stroke="grey" stroke-width="2" d="M313.21,-288.24C300.49,-279.06 286.26,-266.58 277.5,-252 266.28,-233.32 261.63,-208.93 259.74,-190.41"/>
<polygon fill="grey" stroke="grey" stroke-width="2" points="263.21,-189.95 258.91,-180.27 256.23,-190.52 263.21,-189.95"/>
</g>
<!-- 9 -->
<g id="node10" class="node">
<title>9</title>
<path fill="none" stroke="#bed856" stroke-width="2" d="M375.5,-396C375.5,-396 345.5,-396 345.5,-396 339.5,-396 333.5,-390 333.5,-384 333.5,-384 333.5,-372 333.5,-372 333.5,-366 339.5,-360 345.5,-360 345.5,-360 375.5,-360 375.5,-360 381.5,-360 387.5,-366 387.5,-372 387.5,-372 387.5,-384 387.5,-384 387.5,-390 381.5,-396 375.5,-396"/>
<text text-anchor="middle" x="360.5" y="-375.5" font-family="sans" font-size="10.00">convert</text>
</g>
<!-- 9&#45;&gt;8 -->
<g id="edge25" class="edge">
<title>9&#45;&gt;8</title>
<path fill="none" stroke="grey" stroke-width="2" d="M355.56,-359.7C353.33,-351.9 350.65,-342.51 348.17,-333.83"/>
<polygon fill="grey" stroke="grey" stroke-width="2" points="351.5,-332.76 345.39,-324.1 344.77,-334.68 351.5,-332.76"/>
</g>
<!-- 10&#45;&gt;9 -->
<g id="edge26" class="edge">
<title>10&#45;&gt;9</title>
<path fill="none" stroke="grey" stroke-width="2" d="M375.56,-431.7C373.33,-423.9 370.65,-414.51 368.17,-405.83"/>
<polygon fill="grey" stroke="grey" stroke-width="2" points="371.5,-404.76 365.39,-396.1 364.77,-406.68 371.5,-404.76"/>
</g>
<!-- 11&#45;&gt;7 -->
<g id="edge24" class="edge">
<title>11&#45;&gt;7</title>
<path fill="none" stroke="grey" stroke-width="2" d="M326.11,-215.7C332.1,-207.47 339.38,-197.48 345.98,-188.42"/>
<polygon fill="grey" stroke="grey" stroke-width="2" points="348.98,-190.25 352.04,-180.1 343.32,-186.13 348.98,-190.25"/>
</g>
<!-- 11&#45;&gt;33 -->
<g id="edge56" class="edge">
<title>11&#45;&gt;33</title>
<path fill="none" stroke="grey" stroke-width="2" d="M299.9,-215.7C293.38,-207.39 285.43,-197.28 278.25,-188.14"/>
<polygon fill="grey" stroke="grey" stroke-width="2" points="280.87,-185.81 271.94,-180.1 275.37,-190.13 280.87,-185.81"/>
</g>
<!-- 12 -->
<g id="node13" class="node">
<title>12</title>
<path fill="none" stroke="#d8bc56" stroke-width="2" d="M606,-180C606,-180 547,-180 547,-180 541,-180 535,-174 535,-168 535,-168 535,-156 535,-156 535,-150 541,-144 547,-144 547,-144 606,-144 606,-144 612,-144 618,-150 618,-156 618,-156 618,-168 618,-168 618,-174 612,-180 606,-180"/>
<text text-anchor="middle" x="576.5" y="-159.5" font-family="sans" font-size="10.00">calculate_stats</text>
</g>
<!-- 12&#45;&gt;0 -->
<g id="edge3" class="edge">
<title>12&#45;&gt;0</title>
<path fill="none" stroke="grey" stroke-width="2" d="M578.16,-143.78C580.1,-125.74 583.79,-96.64 589.5,-72 591.49,-63.43 594.21,-54.26 596.89,-45.99"/>
<polygon fill="grey" stroke="grey" stroke-width="2" points="600.23,-47.06 600.09,-36.46 593.59,-44.83 600.23,-47.06"/>
</g>
<!-- 40 -->
<g id="node41" class="node">
<title>40</title>
<path fill="none" stroke="#59d856" stroke-width="2" d="M855,-108C855,-108 796,-108 796,-108 790,-108 784,-102 784,-96 784,-96 784,-84 784,-84 784,-78 790,-72 796,-72 796,-72 855,-72 855,-72 861,-72 867,-78 867,-84 867,-84 867,-96 867,-96 867,-102 861,-108 855,-108"/>
<text text-anchor="middle" x="825.5" y="-93" font-family="sans" font-size="10.00">grouped_stats</text>
<text text-anchor="middle" x="825.5" y="-82" font-family="sans" font-size="10.00">group: C</text>
</g>
<!-- 12&#45;&gt;40 -->
<g id="edge69" class="edge">
<title>12&#45;&gt;40</title>
<path fill="none" stroke="grey" stroke-width="2" d="M618.18,-146.88C621.33,-145.88 624.46,-144.91 627.5,-144 676.99,-129.14 734.03,-114.09 774.14,-103.84"/>
<polygon fill="grey" stroke="grey" stroke-width="2" points="775.13,-107.2 783.96,-101.34 773.41,-100.42 775.13,-107.2"/>
</g>
<!-- 12&#45;&gt;41 -->
<g id="edge73" class="edge">
<title>12&#45;&gt;41</title>
<path fill="none" stroke="grey" stroke-width="2" d="M593.06,-143.7C601.18,-135.22 611.09,-124.86 619.97,-115.58"/>
<polygon fill="grey" stroke="grey" stroke-width="2" points="622.74,-117.75 627.13,-108.1 617.69,-112.91 622.74,-117.75"/>
</g>
<!-- 13 -->
<g id="node14" class="node">
<title>13</title>
<path fill="none" stroke="#568ad8" stroke-width="2" d="M547.5,-324C547.5,-324 517.5,-324 517.5,-324 511.5,-324 505.5,-318 505.5,-312 505.5,-312 505.5,-300 505.5,-300 505.5,-294 511.5,-288 517.5,-288 517.5,-288 547.5,-288 547.5,-288 553.5,-288 559.5,-294 559.5,-300 559.5,-300 559.5,-312 559.5,-312 559.5,-318 553.5,-324 547.5,-324"/>
<text text-anchor="middle" x="532.5" y="-303.5" font-family="sans" font-size="10.00">sort</text>
</g>
<!-- 13&#45;&gt;12 -->
<g id="edge29" class="edge">
<title>13&#45;&gt;12</title>
<path fill="none" stroke="grey" stroke-width="2" d="M543.99,-287.54C550.08,-277.52 557.17,-264.49 561.5,-252 568.46,-231.92 572.26,-208.14 574.29,-190.21"/>
<polygon fill="grey" stroke="grey" stroke-width="2" points="577.78,-190.45 575.31,-180.15 570.82,-189.74 577.78,-190.45"/>
</g>
<!-- 16 -->
<g id="node17" class="node">
<title>16</title>
<path fill="none" stroke="#56d88a" stroke-width="2" d="M540.5,-252C540.5,-252 510.5,-252 510.5,-252 504.5,-252 498.5,-246 498.5,-240 498.5,-240 498.5,-228 498.5,-228 498.5,-222 504.5,-216 510.5,-216 510.5,-216 540.5,-216 540.5,-216 546.5,-216 552.5,-222 552.5,-228 552.5,-228 552.5,-240 552.5,-240 552.5,-246 546.5,-252 540.5,-252"/>
<text text-anchor="middle" x="525.5" y="-231.5" font-family="sans" font-size="10.00">index</text>
</g>
<!-- 13&#45;&gt;16 -->
<g id="edge34" class="edge">
<title>13&#45;&gt;16</title>
<path fill="none" stroke="grey" stroke-width="2" d="M530.77,-287.7C530,-279.98 529.07,-270.71 528.21,-262.11"/>
<polygon fill="grey" stroke="grey" stroke-width="2" points="531.69,-261.71 527.21,-252.1 524.72,-262.4 531.69,-261.71"/>
</g>
<!-- 34 -->
<g id="node35" class="node">
<title>34</title>
<path fill="none" stroke="#88d856" stroke-width="2" d="M505,-180C505,-180 436,-180 436,-180 430,-180 424,-174 424,-168 424,-168 424,-156 424,-156 424,-150 430,-144 436,-144 436,-144 505,-144 505,-144 511,-144 517,-150 517,-156 517,-156 517,-168 517,-168 517,-174 511,-180 505,-180"/>
<text text-anchor="middle" x="470.5" y="-159.5" font-family="sans" font-size="10.00">extract_mapping</text>
</g>
<!-- 13&#45;&gt;34 -->
<g id="edge57" class="edge">
<title>13&#45;&gt;34</title>
<path fill="none" stroke="grey" stroke-width="2" d="M515.05,-287.83C506.12,-278.1 495.84,-265.26 489.5,-252 480.16,-232.46 475.37,-208.32 472.94,-190.12"/>
<polygon fill="grey" stroke="grey" stroke-width="2" points="476.42,-189.68 471.77,-180.16 469.46,-190.51 476.42,-189.68"/>
</g>
<!-- 14 -->
<g id="node15" class="node">
<title>14</title>
<path fill="none" stroke="#bed856" stroke-width="2" d="M551.5,-396C551.5,-396 521.5,-396 521.5,-396 515.5,-396 509.5,-390 509.5,-384 509.5,-384 509.5,-372 509.5,-372 509.5,-366 515.5,-360 521.5,-360 521.5,-360 551.5,-360 551.5,-360 557.5,-360 563.5,-366 563.5,-372 563.5,-372 563.5,-384 563.5,-384 563.5,-390 557.5,-396 551.5,-396"/>
<text text-anchor="middle" x="536.5" y="-375.5" font-family="sans" font-size="10.00">convert</text>
</g>
<!-- 14&#45;&gt;13 -->
<g id="edge31" class="edge">
<title>14&#45;&gt;13</title>
<path fill="none" stroke="grey" stroke-width="2" d="M535.51,-359.7C535.07,-351.98 534.54,-342.71 534.05,-334.11"/>
<polygon fill="grey" stroke="grey" stroke-width="2" points="537.54,-333.89 533.48,-324.1 530.55,-334.29 537.54,-333.89"/>
</g>
<!-- 15&#45;&gt;14 -->
<g id="edge32" class="edge">
<title>15&#45;&gt;14</title>
<path fill="none" stroke="grey" stroke-width="2" d="M539.51,-431.7C539.07,-423.98 538.54,-414.71 538.05,-406.11"/>
<polygon fill="grey" stroke="grey" stroke-width="2" points="541.54,-405.89 537.48,-396.1 534.55,-406.29 541.54,-405.89"/>
</g>
<!-- 16&#45;&gt;12 -->
<g id="edge30" class="edge">
<title>16&#45;&gt;12</title>
<path fill="none" stroke="grey" stroke-width="2" d="M538.11,-215.7C544.1,-207.47 551.38,-197.48 557.98,-188.42"/>
<polygon fill="grey" stroke="grey" stroke-width="2" points="560.98,-190.25 564.04,-180.1 555.32,-186.13 560.98,-190.25"/>
</g>
<!-- 16&#45;&gt;34 -->
<g id="edge58" class="edge">
<title>16&#45;&gt;34</title>
<path fill="none" stroke="grey" stroke-width="2" d="M511.9,-215.7C505.38,-207.39 497.43,-197.28 490.25,-188.14"/>
<polygon fill="grey" stroke="grey" stroke-width="2" points="492.87,-185.81 483.94,-180.1 487.37,-190.13 492.87,-185.81"/>
</g>
<!-- 17 -->
<g id="node18" class="node">
<title>17</title>
<path fill="none" stroke="#d8bc56" stroke-width="2" d="M707,-180C707,-180 648,-180 648,-180 642,-180 636,-174 636,-168 636,-168 636,-156 636,-156 636,-150 642,-144 648,-144 648,-144 707,-144 707,-144 713,-144 719,-150 719,-156 719,-156 719,-168 719,-168 719,-174 713,-180 707,-180"/>
<text text-anchor="middle" x="677.5" y="-159.5" font-family="sans" font-size="10.00">calculate_stats</text>
</g>
<!-- 17&#45;&gt;0 -->
<g id="edge4" class="edge">
<title>17&#45;&gt;0</title>
<path fill="none" stroke="grey" stroke-width="2" d="M688.54,-143.85C699.1,-125.1 711.61,-94.68 698.5,-72 686.61,-51.43 663.37,-38.14 643.22,-30.01"/>
<polygon fill="grey" stroke="grey" stroke-width="2" points="644.23,-26.65 633.64,-26.42 641.78,-33.21 644.23,-26.65"/>
</g>
<!-- 17&#45;&gt;38 -->
<g id="edge66" class="edge">
<title>17&#45;&gt;38</title>
<path fill="none" stroke="grey" stroke-width="2" d="M635.92,-146.26C633.09,-145.44 630.26,-144.68 627.5,-144 525.34,-118.97 403.07,-103.47 335.26,-96.12"/>
<polygon fill="grey" stroke="grey" stroke-width="2" points="335.58,-92.63 325.26,-95.05 334.83,-99.59 335.58,-92.63"/>
</g>
<!-- 17&#45;&gt;41 -->
<g id="edge74" class="edge">
<title>17&#45;&gt;41</title>
<path fill="none" stroke="grey" stroke-width="2" d="M669.1,-143.7C665.23,-135.73 660.55,-126.1 656.26,-117.26"/>
<polygon fill="grey" stroke="grey" stroke-width="2" points="659.33,-115.57 651.81,-108.1 653.03,-118.63 659.33,-115.57"/>
</g>
<!-- 18 -->
<g id="node19" class="node">
<title>18</title>
<path fill="none" stroke="#568ad8" stroke-width="2" d="M731.5,-324C731.5,-324 701.5,-324 701.5,-324 695.5,-324 689.5,-318 689.5,-312 689.5,-312 689.5,-300 689.5,-300 689.5,-294 695.5,-288 701.5,-288 701.5,-288 731.5,-288 731.5,-288 737.5,-288 743.5,-294 743.5,-300 743.5,-300 743.5,-312 743.5,-312 743.5,-318 737.5,-324 731.5,-324"/>
<text text-anchor="middle" x="716.5" y="-303.5" font-family="sans" font-size="10.00">sort</text>
</g>
<!-- 18&#45;&gt;17 -->
<g id="edge35" class="edge">
<title>18&#45;&gt;17</title>
<path fill="none" stroke="grey" stroke-width="2" d="M707.33,-287.77C702.27,-277.62 696.27,-264.37 692.5,-252 686.3,-231.67 682.46,-207.91 680.22,-190.05"/>
<polygon fill="grey" stroke="grey" stroke-width="2" points="683.68,-189.56 679.05,-180.03 676.73,-190.37 683.68,-189.56"/>
</g>
<!-- 21 -->
<g id="node22" class="node">
<title>21</title>
<path fill="none" stroke="#56d88a" stroke-width="2" d="M743.5,-252C743.5,-252 713.5,-252 713.5,-252 707.5,-252 701.5,-246 701.5,-240 701.5,-240 701.5,-228 701.5,-228 701.5,-222 707.5,-216 713.5,-216 713.5,-216 743.5,-216 743.5,-216 749.5,-216 755.5,-222 755.5,-228 755.5,-228 755.5,-240 755.5,-240 755.5,-246 749.5,-252 743.5,-252"/>
<text text-anchor="middle" x="728.5" y="-231.5" font-family="sans" font-size="10.00">index</text>
</g>
<!-- 18&#45;&gt;21 -->
<g id="edge40" class="edge">
<title>18&#45;&gt;21</title>
<path fill="none" stroke="grey" stroke-width="2" d="M719.47,-287.7C720.79,-279.98 722.38,-270.71 723.85,-262.11"/>
<polygon fill="grey" stroke="grey" stroke-width="2" points="727.33,-262.55 725.57,-252.1 720.43,-261.37 727.33,-262.55"/>
</g>
<!-- 35 -->
<g id="node36" class="node">
<title>35</title>
<path fill="none" stroke="#88d856" stroke-width="2" d="M818,-180C818,-180 749,-180 749,-180 743,-180 737,-174 737,-168 737,-168 737,-156 737,-156 737,-150 743,-144 749,-144 749,-144 818,-144 818,-144 824,-144 830,-150 830,-156 830,-156 830,-168 830,-168 830,-174 824,-180 818,-180"/>
<text text-anchor="middle" x="783.5" y="-159.5" font-family="sans" font-size="10.00">extract_mapping</text>
</g>
<!-- 18&#45;&gt;35 -->
<g id="edge59" class="edge">
<title>18&#45;&gt;35</title>
<path fill="none" stroke="grey" stroke-width="2" d="M736.51,-287.72C746.37,-278.15 757.6,-265.48 764.5,-252 774.37,-232.72 779.12,-208.57 781.4,-190.29"/>
<polygon fill="grey" stroke="grey" stroke-width="2" points="784.88,-190.6 782.48,-180.29 777.93,-189.85 784.88,-190.6"/>
</g>
<!-- 19 -->
<g id="node20" class="node">
<title>19</title>
<path fill="none" stroke="#bed856" stroke-width="2" d="M722.5,-396C722.5,-396 692.5,-396 692.5,-396 686.5,-396 680.5,-390 680.5,-384 680.5,-384 680.5,-372 680.5,-372 680.5,-366 686.5,-360 692.5,-360 692.5,-360 722.5,-360 722.5,-360 728.5,-360 734.5,-366 734.5,-372 734.5,-372 734.5,-384 734.5,-384 734.5,-390 728.5,-396 722.5,-396"/>
<text text-anchor="middle" x="707.5" y="-375.5" font-family="sans" font-size="10.00">convert</text>
</g>
<!-- 19&#45;&gt;18 -->
<g id="edge37" class="edge">
<title>19&#45;&gt;18</title>
<path fill="none" stroke="grey" stroke-width="2" d="M709.72,-359.7C710.72,-351.98 711.91,-342.71 713.01,-334.11"/>
<polygon fill="grey" stroke="grey" stroke-width="2" points="716.5,-334.47 714.3,-324.1 709.55,-333.58 716.5,-334.47"/>
</g>
<!-- 20&#45;&gt;19 -->
<g id="edge38" class="edge">
<title>20&#45;&gt;19</title>
<path fill="none" stroke="grey" stroke-width="2" d="M697.71,-431.7C699.15,-423.98 700.87,-414.71 702.46,-406.11"/>
<polygon fill="grey" stroke="grey" stroke-width="2" points="705.94,-406.58 704.32,-396.1 699.06,-405.3 705.94,-406.58"/>
</g>
<!-- 21&#45;&gt;17 -->
<g id="edge36" class="edge">
<title>21&#45;&gt;17</title>
<path fill="none" stroke="grey" stroke-width="2" d="M715.89,-215.7C709.9,-207.47 702.62,-197.48 696.02,-188.42"/>
<polygon fill="grey" stroke="grey" stroke-width="2" points="698.68,-186.13 689.96,-180.1 693.02,-190.25 698.68,-186.13"/>
</g>
<!-- 21&#45;&gt;35 -->
<g id="edge60" class="edge">
<title>21&#45;&gt;35</title>
<path fill="none" stroke="grey" stroke-width="2" d="M742.1,-215.7C748.62,-207.39 756.57,-197.28 763.75,-188.14"/>
<polygon fill="grey" stroke="grey" stroke-width="2" points="766.63,-190.13 770.06,-180.1 761.13,-185.81 766.63,-190.13"/>
</g>
<!-- 22 -->
<g id="node23" class="node">
<title>22</title>
<path fill="none" stroke="#d8bc56" stroke-width="2" d="M919,-180C919,-180 860,-180 860,-180 854,-180 848,-174 848,-168 848,-168 848,-156 848,-156 848,-150 854,-144 860,-144 860,-144 919,-144 919,-144 925,-144 931,-150 931,-156 931,-156 931,-168 931,-168 931,-174 925,-180 919,-180"/>
<text text-anchor="middle" x="889.5" y="-159.5" font-family="sans" font-size="10.00">calculate_stats</text>
</g>
<!-- 22&#45;&gt;0 -->
<g id="edge5" class="edge">
<title>22&#45;&gt;0</title>
<path fill="none" stroke="grey" stroke-width="2" d="M892.32,-143.77C894.54,-123.78 894.7,-91.11 876.5,-72 845.07,-39 710.52,-25.75 644.01,-21.14"/>
<polygon fill="grey" stroke="grey" stroke-width="2" points="644.16,-17.64 633.95,-20.47 643.69,-24.63 644.16,-17.64"/>
</g>
<!-- 22&#45;&gt;39 -->
<g id="edge68" class="edge">
<title>22&#45;&gt;39</title>
<path fill="none" stroke="grey" stroke-width="2" d="M847.93,-146.22C845.09,-145.41 842.26,-144.66 839.5,-144 730.34,-117.82 700.24,-126.42 589.5,-108 577,-105.92 563.56,-103.49 550.98,-101.12"/>
<polygon fill="grey" stroke="grey" stroke-width="2" points="551.58,-97.68 541.1,-99.25 550.28,-104.55 551.58,-97.68"/>
</g>
<!-- 22&#45;&gt;41 -->
<g id="edge75" class="edge">
<title>22&#45;&gt;41</title>
<path fill="none" stroke="grey" stroke-width="2" d="M847.82,-146.61C845.01,-145.71 842.22,-144.83 839.5,-144 792.41,-129.64 738.36,-115.18 698.97,-104.99"/>
<polygon fill="grey" stroke="grey" stroke-width="2" points="699.84,-101.6 689.28,-102.5 698.09,-108.38 699.84,-101.6"/>
</g>
<!-- 23 -->
<g id="node24" class="node">
<title>23</title>
<path fill="none" stroke="#568ad8" stroke-width="2" d="M950.5,-324C950.5,-324 920.5,-324 920.5,-324 914.5,-324 908.5,-318 908.5,-312 908.5,-312 908.5,-300 908.5,-300 908.5,-294 914.5,-288 920.5,-288 920.5,-288 950.5,-288 950.5,-288 956.5,-288 962.5,-294 962.5,-300 962.5,-300 962.5,-312 962.5,-312 962.5,-318 956.5,-324 950.5,-324"/>
<text text-anchor="middle" x="935.5" y="-303.5" font-family="sans" font-size="10.00">sort</text>
</g>
<!-- 23&#45;&gt;22 -->
<g id="edge41" class="edge">
<title>23&#45;&gt;22</title>
<path fill="none" stroke="grey" stroke-width="2" d="M923.18,-287.65C916.66,-277.66 909.08,-264.63 904.5,-252 897.25,-232.02 893.47,-208.23 891.52,-190.28"/>
<polygon fill="grey" stroke="grey" stroke-width="2" points="894.99,-189.82 890.55,-180.2 888.03,-190.49 894.99,-189.82"/>
</g>
<!-- 26 -->
<g id="node27" class="node">
<title>26</title>
<path fill="none" stroke="#56d88a" stroke-width="2" d="M955.5,-252C955.5,-252 925.5,-252 925.5,-252 919.5,-252 913.5,-246 913.5,-240 913.5,-240 913.5,-228 913.5,-228 913.5,-222 919.5,-216 925.5,-216 925.5,-216 955.5,-216 955.5,-216 961.5,-216 967.5,-222 967.5,-228 967.5,-228 967.5,-240 967.5,-240 967.5,-246 961.5,-252 955.5,-252"/>
<text text-anchor="middle" x="940.5" y="-231.5" font-family="sans" font-size="10.00">index</text>
</g>
<!-- 23&#45;&gt;26 -->
<g id="edge46" class="edge">
<title>23&#45;&gt;26</title>
<path fill="none" stroke="grey" stroke-width="2" d="M936.74,-287.7C937.29,-279.98 937.95,-270.71 938.56,-262.11"/>
<polygon fill="grey" stroke="grey" stroke-width="2" points="942.06,-262.33 939.28,-252.1 935.07,-261.83 942.06,-262.33"/>
</g>
<!-- 36 -->
<g id="node37" class="node">
<title>36</title>
<path fill="none" stroke="#88d856" stroke-width="2" d="M1030,-180C1030,-180 961,-180 961,-180 955,-180 949,-174 949,-168 949,-168 949,-156 949,-156 949,-150 955,-144 961,-144 961,-144 1030,-144 1030,-144 1036,-144 1042,-150 1042,-156 1042,-156 1042,-168 1042,-168 1042,-174 1036,-180 1030,-180"/>
<text text-anchor="middle" x="995.5" y="-159.5" font-family="sans" font-size="10.00">extract_mapping</text>
</g>
<!-- 23&#45;&gt;36 -->
<g id="edge61" class="edge">
<title>23&#45;&gt;36</title>
<path fill="none" stroke="grey" stroke-width="2" d="M952.12,-287.7C960.62,-277.93 970.43,-265.09 976.5,-252 985.62,-232.35 990.42,-208.22 992.91,-190.05"/>
<polygon fill="grey" stroke="grey" stroke-width="2" points="996.39,-190.47 994.13,-180.11 989.44,-189.61 996.39,-190.47"/>
</g>
<!-- 24 -->
<g id="node25" class="node">
<title>24</title>
<path fill="none" stroke="#bed856" stroke-width="2" d="M940.5,-396C940.5,-396 910.5,-396 910.5,-396 904.5,-396 898.5,-390 898.5,-384 898.5,-384 898.5,-372 898.5,-372 898.5,-366 904.5,-360 910.5,-360 910.5,-360 940.5,-360 940.5,-360 946.5,-360 952.5,-366 952.5,-372 952.5,-372 952.5,-384 952.5,-384 952.5,-390 946.5,-396 940.5,-396"/>
<text text-anchor="middle" x="925.5" y="-375.5" font-family="sans" font-size="10.00">convert</text>
</g>
<!-- 24&#45;&gt;23 -->
<g id="edge43" class="edge">
<title>24&#45;&gt;23</title>
<path fill="none" stroke="grey" stroke-width="2" d="M927.97,-359.7C929.07,-351.98 930.4,-342.71 931.63,-334.11"/>
<polygon fill="grey" stroke="grey" stroke-width="2" points="935.11,-334.5 933.06,-324.1 928.18,-333.51 935.11,-334.5"/>
</g>
<!-- 25&#45;&gt;24 -->
<g id="edge44" class="edge">
<title>25&#45;&gt;24</title>
<path fill="none" stroke="grey" stroke-width="2" d="M865.28,-431.7C875.25,-422.97 887.51,-412.24 898.36,-402.75"/>
<polygon fill="grey" stroke="grey" stroke-width="2" points="900.73,-405.32 905.95,-396.1 896.12,-400.06 900.73,-405.32"/>
</g>
<!-- 26&#45;&gt;22 -->
<g id="edge42" class="edge">
<title>26&#45;&gt;22</title>
<path fill="none" stroke="grey" stroke-width="2" d="M927.89,-215.7C921.9,-207.47 914.62,-197.48 908.02,-188.42"/>
<polygon fill="grey" stroke="grey" stroke-width="2" points="910.68,-186.13 901.96,-180.1 905.02,-190.25 910.68,-186.13"/>
</g>
<!-- 26&#45;&gt;36 -->
<g id="edge62" class="edge">
<title>26&#45;&gt;36</title>
<path fill="none" stroke="grey" stroke-width="2" d="M954.1,-215.7C960.62,-207.39 968.57,-197.28 975.75,-188.14"/>
<polygon fill="grey" stroke="grey" stroke-width="2" points="978.63,-190.13 982.06,-180.1 973.13,-185.81 978.63,-190.13"/>
</g>
<!-- 27 -->
<g id="node28" class="node">
<title>27</title>
<path fill="none" stroke="#d8bc56" stroke-width="2" d="M1131,-180C1131,-180 1072,-180 1072,-180 1066,-180 1060,-174 1060,-168 1060,-168 1060,-156 1060,-156 1060,-150 1066,-144 1072,-144 1072,-144 1131,-144 1131,-144 1137,-144 1143,-150 1143,-156 1143,-156 1143,-168 1143,-168 1143,-174 1137,-180 1131,-180"/>
<text text-anchor="middle" x="1101.5" y="-159.5" font-family="sans" font-size="10.00">calculate_stats</text>
</g>
<!-- 27&#45;&gt;0 -->
<g id="edge6" class="edge">
<title>27&#45;&gt;0</title>
<path fill="none" stroke="grey" stroke-width="2" d="M1075.99,-143.82C1044.41,-123.4 988.32,-89.85 935.5,-72 833.43,-37.5 705.76,-25.15 643.75,-20.98"/>
<polygon fill="grey" stroke="grey" stroke-width="2" points="643.87,-17.48 633.67,-20.33 643.42,-24.46 643.87,-17.48"/>
</g>
<!-- 27&#45;&gt;40 -->
<g id="edge70" class="edge">
<title>27&#45;&gt;40</title>
<path fill="none" stroke="grey" stroke-width="2" d="M1059.85,-146.5C1057.04,-145.63 1054.23,-144.78 1051.5,-144 992.25,-127.02 923.14,-111.42 877.09,-101.6"/>
<polygon fill="grey" stroke="grey" stroke-width="2" points="877.56,-98.12 867.05,-99.47 876.11,-104.97 877.56,-98.12"/>
</g>
<!-- 27&#45;&gt;41 -->
<g id="edge76" class="edge">
<title>27&#45;&gt;41</title>
<path fill="none" stroke="grey" stroke-width="2" d="M1059.94,-146.18C1057.1,-145.38 1054.27,-144.64 1051.5,-144 1049.37,-143.5 810.44,-112.58 699.25,-98.21"/>
<polygon fill="grey" stroke="grey" stroke-width="2" points="699.59,-94.72 689.22,-96.91 698.69,-101.66 699.59,-94.72"/>
</g>
<!-- 28 -->
<g id="node29" class="node">
<title>28</title>
<path fill="none" stroke="#568ad8" stroke-width="2" d="M1139.5,-324C1139.5,-324 1109.5,-324 1109.5,-324 1103.5,-324 1097.5,-318 1097.5,-312 1097.5,-312 1097.5,-300 1097.5,-300 1097.5,-294 1103.5,-288 1109.5,-288 1109.5,-288 1139.5,-288 1139.5,-288 1145.5,-288 1151.5,-294 1151.5,-300 1151.5,-300 1151.5,-312 1151.5,-312 1151.5,-318 1145.5,-324 1139.5,-324"/>
<text text-anchor="middle" x="1124.5" y="-303.5" font-family="sans" font-size="10.00">sort</text>
</g>
<!-- 28&#45;&gt;27 -->
<g id="edge47" class="edge">
<title>28&#45;&gt;27</title>
<path fill="none" stroke="grey" stroke-width="2" d="M1121.73,-287.87C1117.81,-263.67 1110.6,-219.21 1105.94,-190.39"/>
<polygon fill="grey" stroke="grey" stroke-width="2" points="1109.34,-189.5 1104.28,-180.19 1102.43,-190.62 1109.34,-189.5"/>
</g>
<!-- 31 -->
<g id="node32" class="node">
<title>31</title>
<path fill="none" stroke="#56d88a" stroke-width="2" d="M1167.5,-252C1167.5,-252 1137.5,-252 1137.5,-252 1131.5,-252 1125.5,-246 1125.5,-240 1125.5,-240 1125.5,-228 1125.5,-228 1125.5,-222 1131.5,-216 1137.5,-216 1137.5,-216 1167.5,-216 1167.5,-216 1173.5,-216 1179.5,-222 1179.5,-228 1179.5,-228 1179.5,-240 1179.5,-240 1179.5,-246 1173.5,-252 1167.5,-252"/>
<text text-anchor="middle" x="1152.5" y="-231.5" font-family="sans" font-size="10.00">index</text>
</g>
<!-- 28&#45;&gt;31 -->
<g id="edge52" class="edge">
<title>28&#45;&gt;31</title>
<path fill="none" stroke="grey" stroke-width="2" d="M1131.42,-287.7C1134.57,-279.81 1138.38,-270.3 1141.88,-261.55"/>
<polygon fill="grey" stroke="grey" stroke-width="2" points="1145.19,-262.69 1145.66,-252.1 1138.69,-260.09 1145.19,-262.69"/>
</g>
<!-- 37 -->
<g id="node38" class="node">
<title>37</title>
<path fill="none" stroke="#88d856" stroke-width="2" d="M1242,-180C1242,-180 1173,-180 1173,-180 1167,-180 1161,-174 1161,-168 1161,-168 1161,-156 1161,-156 1161,-150 1167,-144 1173,-144 1173,-144 1242,-144 1242,-144 1248,-144 1254,-150 1254,-156 1254,-156 1254,-168 1254,-168 1254,-174 1248,-180 1242,-180"/>
<text text-anchor="middle" x="1207.5" y="-159.5" font-family="sans" font-size="10.00">extract_mapping</text>
</g>
<!-- 28&#45;&gt;37 -->
<g id="edge63" class="edge">
<title>28&#45;&gt;37</title>
<path fill="none" stroke="grey" stroke-width="2" d="M1151.58,-288.78C1164.66,-279.59 1179.45,-266.93 1188.5,-252 1199.79,-233.36 1204.43,-208.97 1206.31,-190.44"/>
<polygon fill="grey" stroke="grey" stroke-width="2" points="1209.81,-190.54 1207.13,-180.29 1202.84,-189.98 1209.81,-190.54"/>
</g>
<!-- 29 -->
<g id="node30" class="node">
<title>29</title>
<path fill="none" stroke="#bed856" stroke-width="2" d="M1030.5,-396C1030.5,-396 1000.5,-396 1000.5,-396 994.5,-396 988.5,-390 988.5,-384 988.5,-384 988.5,-372 988.5,-372 988.5,-366 994.5,-360 1000.5,-360 1000.5,-360 1030.5,-360 1030.5,-360 1036.5,-360 1042.5,-366 1042.5,-372 1042.5,-372 1042.5,-384 1042.5,-384 1042.5,-390 1036.5,-396 1030.5,-396"/>
<text text-anchor="middle" x="1015.5" y="-375.5" font-family="sans" font-size="10.00">convert</text>
</g>
<!-- 29&#45;&gt;28 -->
<g id="edge49" class="edge">
<title>29&#45;&gt;28</title>
<path fill="none" stroke="grey" stroke-width="2" d="M1042.16,-359.88C1056.28,-350.81 1073.81,-339.55 1089.06,-329.76"/>
<polygon fill="grey" stroke="grey" stroke-width="2" points="1091.21,-332.54 1097.73,-324.19 1087.43,-326.65 1091.21,-332.54"/>
</g>
<!-- 30&#45;&gt;29 -->
<g id="edge50" class="edge">
<title>30&#45;&gt;29</title>
<path fill="none" stroke="grey" stroke-width="2" d="M999.69,-431.7C1002.03,-423.9 1004.85,-414.51 1007.45,-405.83"/>
<polygon fill="grey" stroke="grey" stroke-width="2" points="1010.85,-406.69 1010.37,-396.1 1004.14,-404.68 1010.85,-406.69"/>
</g>
<!-- 31&#45;&gt;27 -->
<g id="edge48" class="edge">
<title>31&#45;&gt;27</title>
<path fill="none" stroke="grey" stroke-width="2" d="M1139.89,-215.7C1133.9,-207.47 1126.62,-197.48 1120.02,-188.42"/>
<polygon fill="grey" stroke="grey" stroke-width="2" points="1122.68,-186.13 1113.96,-180.1 1117.02,-190.25 1122.68,-186.13"/>
</g>
<!-- 31&#45;&gt;37 -->
<g id="edge64" class="edge">
<title>31&#45;&gt;37</title>
<path fill="none" stroke="grey" stroke-width="2" d="M1166.1,-215.7C1172.62,-207.39 1180.57,-197.28 1187.75,-188.14"/>
<polygon fill="grey" stroke="grey" stroke-width="2" points="1190.63,-190.13 1194.06,-180.1 1185.13,-185.81 1190.63,-190.13"/>
</g>
<!-- 32&#45;&gt;0 -->
<g id="edge7" class="edge">
<title>32&#45;&gt;0</title>
<path fill="none" stroke="grey" stroke-width="2" d="M66.94,-143.97C93.09,-123.21 140.63,-88.81 187.5,-72 321.69,-23.86 493.75,-18.27 568.74,-18.37"/>
<polygon fill="grey" stroke="grey" stroke-width="2" points="569.07,-21.87 579.09,-18.42 569.1,-14.87 569.07,-21.87"/>
</g>
<!-- 33&#45;&gt;0 -->
<g id="edge8" class="edge">
<title>33&#45;&gt;0</title>
<path fill="none" stroke="grey" stroke-width="2" d="M283.11,-143.88C316.37,-120.99 374.17,-82.11 397.5,-72 454.93,-47.11 526.51,-32.12 569.24,-24.72"/>
<polygon fill="grey" stroke="grey" stroke-width="2" points="569.92,-28.16 579.2,-23.04 568.76,-21.25 569.92,-28.16"/>
</g>
<!-- 34&#45;&gt;0 -->
<g id="edge9" class="edge">
<title>34&#45;&gt;0</title>
<path fill="none" stroke="grey" stroke-width="2" d="M458.84,-143.67C447.52,-124.47 434.13,-93.41 449.5,-72 476.53,-34.35 531.71,-23.1 568.91,-19.93"/>
<polygon fill="grey" stroke="grey" stroke-width="2" points="569.62,-23.39 579.36,-19.21 569.14,-16.4 569.62,-23.39"/>
</g>
<!-- 35&#45;&gt;0 -->
<g id="edge10" class="edge">
<title>35&#45;&gt;0</title>
<path fill="none" stroke="grey" stroke-width="2" d="M773.46,-143.69C761.46,-124.22 739.81,-92.63 714.5,-72 693.2,-54.65 665.28,-41.13 643.16,-32.1"/>
<polygon fill="grey" stroke="grey" stroke-width="2" points="644.35,-28.8 633.76,-28.38 641.78,-35.31 644.35,-28.8"/>
</g>
<!-- 36&#45;&gt;0 -->
<g id="edge11" class="edge">
<title>36&#45;&gt;0</title>
<path fill="none" stroke="grey" stroke-width="2" d="M981.92,-143.84C964.63,-123.27 932.74,-89.4 897.5,-72 813.41,-30.47 701.2,-21.22 643.78,-19.33"/>
<polygon fill="grey" stroke="grey" stroke-width="2" points="643.81,-15.83 633.72,-19.06 643.62,-22.83 643.81,-15.83"/>
</g>
<!-- 37&#45;&gt;0 -->
<g id="edge12" class="edge">
<title>37&#45;&gt;0</title>
<path fill="none" stroke="grey" stroke-width="2" d="M1173.15,-143.91C1130.79,-123.58 1056.09,-90.12 988.5,-72 865.11,-38.92 713.46,-25.71 644.21,-21.13"/>
<polygon fill="grey" stroke="grey" stroke-width="2" points="644.02,-17.61 633.82,-20.46 643.58,-24.59 644.02,-17.61"/>
</g>
<!-- 38&#45;&gt;0 -->
<g id="edge13" class="edge">
<title>38&#45;&gt;0</title>
<path fill="none" stroke="grey" stroke-width="2" d="M325.27,-75.83C330.05,-74.47 334.87,-73.16 339.5,-72 420.77,-51.65 517.53,-34.07 569.35,-25.18"/>
<polygon fill="grey" stroke="grey" stroke-width="2" points="570.13,-28.6 579.4,-23.47 568.95,-21.7 570.13,-28.6"/>
</g>
<!-- 39&#45;&gt;0 -->
<g id="edge14" class="edge">
<title>39&#45;&gt;0</title>
<path fill="none" stroke="grey" stroke-width="2" d="M525.68,-71.88C539.54,-62.81 556.74,-51.55 571.71,-41.76"/>
<polygon fill="grey" stroke="grey" stroke-width="2" points="573.77,-44.59 580.22,-36.19 569.94,-38.74 573.77,-44.59"/>
</g>
<!-- 40&#45;&gt;0 -->
<g id="edge15" class="edge">
<title>40&#45;&gt;0</title>
<path fill="none" stroke="grey" stroke-width="2" d="M783.79,-75.67C743.24,-62.71 682.22,-43.2 643.39,-30.79"/>
<polygon fill="grey" stroke="grey" stroke-width="2" points="644.13,-27.35 633.54,-27.64 642,-34.02 644.13,-27.35"/>
</g>
<!-- 41&#45;&gt;0 -->
<g id="edge16" class="edge">
<title>41&#45;&gt;0</title>
<path fill="none" stroke="grey" stroke-width="2" d="M634.35,-71.7C630.1,-63.64 624.94,-53.89 620.23,-44.98"/>
<polygon fill="grey" stroke="grey" stroke-width="2" points="623.31,-43.31 615.54,-36.1 617.12,-46.58 623.31,-43.31"/>
</g>
</g>
</svg>
