<?xml version="1.0" encoding="UTF-8" standalone="no"?>
<!DOCTYPE svg PUBLIC "-//W3C//DTD SVG 1.1//EN"
 "http://www.w3.org/Graphics/SVG/1.1/DTD/svg11.dtd">
<!-- Generated by graphviz version 2.42.4 (0)
 -->
<!-- Title: snakemake_dag Pages: 1 -->
<svg width="4809pt" height="553pt"
 viewBox="0.00 0.00 4808.50 553.00" xmlns="http://www.w3.org/2000/svg" xmlns:xlink="http://www.w3.org/1999/xlink">
<g id="graph0" class="graph" transform="scale(1 1) rotate(0) translate(4 549)">
<title>snakemake_dag</title>
<polygon fill="white" stroke="transparent" points="-4,4 -4,-549 4804.5,-549 4804.5,4 -4,4"/>
<!-- 0 -->
<g id="node1" class="node">
<title>0</title>
<path fill="none" stroke="#d87556" stroke-width="2" d="M1014.5,-36C1014.5,-36 984.5,-36 984.5,-36 978.5,-36 972.5,-30 972.5,-24 972.5,-24 972.5,-12 972.5,-12 972.5,-6 978.5,0 984.5,0 984.5,0 1014.5,0 1014.5,0 1020.5,0 1026.5,-6 1026.5,-12 1026.5,-12 1026.5,-24 1026.5,-24 1026.5,-30 1020.5,-36 1014.5,-36"/>
<text text-anchor="middle" x="999.5" y="-15.5" font-family="sans" font-size="10.00">all</text>
</g>
<!-- 1 -->
<g id="node2" class="node">
<title>1</title>
<path fill="none" stroke="#d6d856" stroke-width="2" d="M81,-182.5C81,-182.5 12,-182.5 12,-182.5 6,-182.5 0,-176.5 0,-170.5 0,-170.5 0,-158.5 0,-158.5 0,-152.5 6,-146.5 12,-146.5 12,-146.5 81,-146.5 81,-146.5 87,-146.5 93,-152.5 93,-158.5 93,-158.5 93,-170.5 93,-170.5 93,-176.5 87,-182.5 81,-182.5"/>
<text text-anchor="middle" x="46.5" y="-162" font-family="sans" font-size="10.00">extract_mapping</text>
</g>
<!-- 1&#45;&gt;0 -->
<g id="edge1" class="edge">
<title>1&#45;&gt;0</title>
<path fill="none" stroke="grey" stroke-width="2" d="M92.51,-146.45C95.54,-145.56 98.55,-144.73 101.5,-144 429.22,-62.8 838.2,-29.92 962.19,-21.39"/>
<polygon fill="grey" stroke="grey" stroke-width="2" points="962.55,-24.87 972.29,-20.7 962.08,-17.89 962.55,-24.87"/>
</g>
<!-- 2 -->
<g id="node3" class="node">
<title>2</title>
<path fill="none" stroke="#569ad8" stroke-width="2" d="M218.5,-329C218.5,-329 188.5,-329 188.5,-329 182.5,-329 176.5,-323 176.5,-317 176.5,-317 176.5,-305 176.5,-305 176.5,-299 182.5,-293 188.5,-293 188.5,-293 218.5,-293 218.5,-293 224.5,-293 230.5,-299 230.5,-305 230.5,-305 230.5,-317 230.5,-317 230.5,-323 224.5,-329 218.5,-329"/>
<text text-anchor="middle" x="203.5" y="-308.5" font-family="sans" font-size="10.00">sort</text>
</g>
<!-- 2&#45;&gt;1 -->
<g id="edge13" class="edge">
<title>2&#45;&gt;1</title>
<path fill="none" stroke="grey" stroke-width="2" d="M176.47,-298.01C157.26,-288.64 131.59,-274.32 112.5,-257 91.46,-237.92 73.08,-211.09 61.09,-191.42"/>
<polygon fill="grey" stroke="grey" stroke-width="2" points="64.01,-189.48 55.89,-182.67 57.99,-193.05 64.01,-189.48"/>
</g>
<!-- 6 -->
<g id="node7" class="node">
<title>6</title>
<path fill="none" stroke="#97d856" stroke-width="2" d="M163.5,-257C163.5,-257 133.5,-257 133.5,-257 127.5,-257 121.5,-251 121.5,-245 121.5,-245 121.5,-233 121.5,-233 121.5,-227 127.5,-221 133.5,-221 133.5,-221 163.5,-221 163.5,-221 169.5,-221 175.5,-227 175.5,-233 175.5,-233 175.5,-245 175.5,-245 175.5,-251 169.5,-257 163.5,-257"/>
<text text-anchor="middle" x="148.5" y="-236.5" font-family="sans" font-size="10.00">index</text>
</g>
<!-- 2&#45;&gt;6 -->
<g id="edge18" class="edge">
<title>2&#45;&gt;6</title>
<path fill="none" stroke="grey" stroke-width="2" d="M189.9,-292.7C183.38,-284.39 175.43,-274.28 168.25,-265.14"/>
<polygon fill="grey" stroke="grey" stroke-width="2" points="170.87,-262.81 161.94,-257.1 165.37,-267.13 170.87,-262.81"/>
</g>
<!-- 33 -->
<g id="node34" class="node">
<title>33</title>
<path fill="none" stroke="#d89556" stroke-width="2" d="M182,-182.5C182,-182.5 123,-182.5 123,-182.5 117,-182.5 111,-176.5 111,-170.5 111,-170.5 111,-158.5 111,-158.5 111,-152.5 117,-146.5 123,-146.5 123,-146.5 182,-146.5 182,-146.5 188,-146.5 194,-152.5 194,-158.5 194,-158.5 194,-170.5 194,-170.5 194,-176.5 188,-182.5 182,-182.5"/>
<text text-anchor="middle" x="152.5" y="-162" font-family="sans" font-size="10.00">calculate_stats</text>
</g>
<!-- 2&#45;&gt;33 -->
<g id="edge51" class="edge">
<title>2&#45;&gt;33</title>
<path fill="none" stroke="grey" stroke-width="2" d="M201.45,-292.82C198.91,-274.55 193.73,-245.04 184.5,-221 180.61,-210.88 175.04,-200.41 169.64,-191.34"/>
<polygon fill="grey" stroke="grey" stroke-width="2" points="172.59,-189.46 164.36,-182.79 166.64,-193.14 172.59,-189.46"/>
</g>
<!-- 43 -->
<g id="node44" class="node">
<title>43</title>
<path fill="none" stroke="#56d89a" stroke-width="2" d="M259,-182.5C259,-182.5 224,-182.5 224,-182.5 218,-182.5 212,-176.5 212,-170.5 212,-170.5 212,-158.5 212,-158.5 212,-152.5 218,-146.5 224,-146.5 224,-146.5 259,-146.5 259,-146.5 265,-146.5 271,-152.5 271,-158.5 271,-158.5 271,-170.5 271,-170.5 271,-176.5 265,-182.5 259,-182.5"/>
<text text-anchor="middle" x="241.5" y="-162" font-family="sans" font-size="10.00">qualimap</text>
</g>
<!-- 2&#45;&gt;43 -->
<g id="edge91" class="edge">
<title>2&#45;&gt;43</title>
<path fill="none" stroke="grey" stroke-width="2" d="M208.05,-292.82C210.79,-282.44 214.35,-268.96 217.5,-257 223.2,-235.36 229.63,-210.83 234.4,-192.63"/>
<polygon fill="grey" stroke="grey" stroke-width="2" points="237.85,-193.26 237,-182.7 231.08,-191.49 237.85,-193.26"/>
</g>
<!-- 3 -->
<g id="node4" class="node">
<title>3</title>
<path fill="none" stroke="#d8b456" stroke-width="2" d="M459.5,-401C459.5,-401 429.5,-401 429.5,-401 423.5,-401 417.5,-395 417.5,-389 417.5,-389 417.5,-377 417.5,-377 417.5,-371 423.5,-365 429.5,-365 429.5,-365 459.5,-365 459.5,-365 465.5,-365 471.5,-371 471.5,-377 471.5,-377 471.5,-389 471.5,-389 471.5,-395 465.5,-401 459.5,-401"/>
<text text-anchor="middle" x="444.5" y="-380.5" font-family="sans" font-size="10.00">convert</text>
</g>
<!-- 3&#45;&gt;2 -->
<g id="edge15" class="edge">
<title>3&#45;&gt;2</title>
<path fill="none" stroke="grey" stroke-width="2" d="M417.32,-374.11C374,-361.52 289.19,-336.89 240.41,-322.72"/>
<polygon fill="grey" stroke="grey" stroke-width="2" points="241.16,-319.29 230.58,-319.86 239.2,-326.02 241.16,-319.29"/>
</g>
<!-- 4 -->
<g id="node5" class="node">
<title>4</title>
<path fill="none" stroke="#59d856" stroke-width="2" d="M529.5,-473C529.5,-473 423.5,-473 423.5,-473 417.5,-473 411.5,-467 411.5,-461 411.5,-461 411.5,-449 411.5,-449 411.5,-443 417.5,-437 423.5,-437 423.5,-437 529.5,-437 529.5,-437 535.5,-437 541.5,-443 541.5,-449 541.5,-449 541.5,-461 541.5,-461 541.5,-467 535.5,-473 529.5,-473"/>
<text text-anchor="middle" x="476.5" y="-458" font-family="sans" font-size="10.00">map</text>
<text text-anchor="middle" x="476.5" y="-447" font-family="sans" font-size="10.00">sample: ERR024604_tiny</text>
</g>
<!-- 4&#45;&gt;3 -->
<g id="edge16" class="edge">
<title>4&#45;&gt;3</title>
<path fill="none" stroke="grey" stroke-width="2" d="M468.59,-436.7C464.95,-428.73 460.55,-419.1 456.51,-410.26"/>
<polygon fill="grey" stroke="grey" stroke-width="2" points="459.66,-408.74 452.32,-401.1 453.29,-411.65 459.66,-408.74"/>
</g>
<!-- 5 -->
<g id="node6" class="node">
<title>5</title>
<path fill="none" stroke="#78d856" stroke-width="2" d="M888,-545C888,-545 853,-545 853,-545 847,-545 841,-539 841,-533 841,-533 841,-521 841,-521 841,-515 847,-509 853,-509 853,-509 888,-509 888,-509 894,-509 900,-515 900,-521 900,-521 900,-533 900,-533 900,-539 894,-545 888,-545"/>
<text text-anchor="middle" x="870.5" y="-524.5" font-family="sans" font-size="10.00">index_ref</text>
</g>
<!-- 5&#45;&gt;4 -->
<g id="edge17" class="edge">
<title>5&#45;&gt;4</title>
<path fill="none" stroke="grey" stroke-width="2" d="M840.7,-520.95C786.22,-511.68 666.92,-491.24 566.5,-473 561.76,-472.14 556.89,-471.24 551.97,-470.34"/>
<polygon fill="grey" stroke="grey" stroke-width="2" points="552.33,-466.84 541.86,-468.46 551.05,-473.72 552.33,-466.84"/>
</g>
<!-- 10 -->
<g id="node11" class="node">
<title>10</title>
<path fill="none" stroke="#59d856" stroke-width="2" d="M693.5,-473C693.5,-473 587.5,-473 587.5,-473 581.5,-473 575.5,-467 575.5,-461 575.5,-461 575.5,-449 575.5,-449 575.5,-443 581.5,-437 587.5,-437 587.5,-437 693.5,-437 693.5,-437 699.5,-437 705.5,-443 705.5,-449 705.5,-449 705.5,-461 705.5,-461 705.5,-467 699.5,-473 693.5,-473"/>
<text text-anchor="middle" x="640.5" y="-458" font-family="sans" font-size="10.00">map</text>
<text text-anchor="middle" x="640.5" y="-447" font-family="sans" font-size="10.00">sample: ERR024605_tiny</text>
</g>
<!-- 5&#45;&gt;10 -->
<g id="edge23" class="edge">
<title>5&#45;&gt;10</title>
<path fill="none" stroke="grey" stroke-width="2" d="M840.9,-516.99C806.99,-506.67 750.39,-489.44 705.97,-475.93"/>
<polygon fill="grey" stroke="grey" stroke-width="2" points="706.99,-472.58 696.4,-473.01 704.95,-479.27 706.99,-472.58"/>
</g>
<!-- 15 -->
<g id="node16" class="node">
<title>15</title>
<path fill="none" stroke="#59d856" stroke-width="2" d="M849.5,-473C849.5,-473 743.5,-473 743.5,-473 737.5,-473 731.5,-467 731.5,-461 731.5,-461 731.5,-449 731.5,-449 731.5,-443 737.5,-437 743.5,-437 743.5,-437 849.5,-437 849.5,-437 855.5,-437 861.5,-443 861.5,-449 861.5,-449 861.5,-461 861.5,-461 861.5,-467 855.5,-473 849.5,-473"/>
<text text-anchor="middle" x="796.5" y="-458" font-family="sans" font-size="10.00">map</text>
<text text-anchor="middle" x="796.5" y="-447" font-family="sans" font-size="10.00">sample: ERR024606_tiny</text>
</g>
<!-- 5&#45;&gt;15 -->
<g id="edge29" class="edge">
<title>5&#45;&gt;15</title>
<path fill="none" stroke="grey" stroke-width="2" d="M852.21,-508.7C843.07,-500.05 831.86,-489.45 821.9,-480.03"/>
<polygon fill="grey" stroke="grey" stroke-width="2" points="824.25,-477.43 814.58,-473.1 819.44,-482.52 824.25,-477.43"/>
</g>
<!-- 20 -->
<g id="node21" class="node">
<title>20</title>
<path fill="none" stroke="#59d856" stroke-width="2" d="M1016.5,-473C1016.5,-473 910.5,-473 910.5,-473 904.5,-473 898.5,-467 898.5,-461 898.5,-461 898.5,-449 898.5,-449 898.5,-443 904.5,-437 910.5,-437 910.5,-437 1016.5,-437 1016.5,-437 1022.5,-437 1028.5,-443 1028.5,-449 1028.5,-449 1028.5,-461 1028.5,-461 1028.5,-467 1022.5,-473 1016.5,-473"/>
<text text-anchor="middle" x="963.5" y="-458" font-family="sans" font-size="10.00">map</text>
<text text-anchor="middle" x="963.5" y="-447" font-family="sans" font-size="10.00">sample: ERR024607_tiny</text>
</g>
<!-- 5&#45;&gt;20 -->
<g id="edge35" class="edge">
<title>5&#45;&gt;20</title>
<path fill="none" stroke="grey" stroke-width="2" d="M893.49,-508.7C905.31,-499.8 919.89,-488.82 932.68,-479.2"/>
<polygon fill="grey" stroke="grey" stroke-width="2" points="934.89,-481.91 940.78,-473.1 930.68,-476.32 934.89,-481.91"/>
</g>
<!-- 25 -->
<g id="node26" class="node">
<title>25</title>
<path fill="none" stroke="#59d856" stroke-width="2" d="M1206.5,-473C1206.5,-473 1100.5,-473 1100.5,-473 1094.5,-473 1088.5,-467 1088.5,-461 1088.5,-461 1088.5,-449 1088.5,-449 1088.5,-443 1094.5,-437 1100.5,-437 1100.5,-437 1206.5,-437 1206.5,-437 1212.5,-437 1218.5,-443 1218.5,-449 1218.5,-449 1218.5,-461 1218.5,-461 1218.5,-467 1212.5,-473 1206.5,-473"/>
<text text-anchor="middle" x="1153.5" y="-458" font-family="sans" font-size="10.00">map</text>
<text text-anchor="middle" x="1153.5" y="-447" font-family="sans" font-size="10.00">sample: ERR024608_tiny</text>
</g>
<!-- 5&#45;&gt;25 -->
<g id="edge41" class="edge">
<title>5&#45;&gt;25</title>
<path fill="none" stroke="grey" stroke-width="2" d="M900.25,-518.64C942.17,-508.27 1020.03,-489.01 1078.39,-474.58"/>
<polygon fill="grey" stroke="grey" stroke-width="2" points="1079.45,-477.92 1088.31,-472.12 1077.77,-471.13 1079.45,-477.92"/>
</g>
<!-- 30 -->
<g id="node31" class="node">
<title>30</title>
<path fill="none" stroke="#59d856" stroke-width="2" d="M1375.5,-473C1375.5,-473 1269.5,-473 1269.5,-473 1263.5,-473 1257.5,-467 1257.5,-461 1257.5,-461 1257.5,-449 1257.5,-449 1257.5,-443 1263.5,-437 1269.5,-437 1269.5,-437 1375.5,-437 1375.5,-437 1381.5,-437 1387.5,-443 1387.5,-449 1387.5,-449 1387.5,-461 1387.5,-461 1387.5,-467 1381.5,-473 1375.5,-473"/>
<text text-anchor="middle" x="1322.5" y="-458" font-family="sans" font-size="10.00">map</text>
<text text-anchor="middle" x="1322.5" y="-447" font-family="sans" font-size="10.00">sample: ERR024609_tiny</text>
</g>
<!-- 5&#45;&gt;30 -->
<g id="edge47" class="edge">
<title>5&#45;&gt;30</title>
<path fill="none" stroke="grey" stroke-width="2" d="M900.17,-521.9C961.42,-513.37 1106.3,-492.84 1227.5,-473 1234,-471.94 1240.74,-470.8 1247.5,-469.63"/>
<polygon fill="grey" stroke="grey" stroke-width="2" points="1248.13,-473.08 1257.39,-467.92 1246.94,-466.18 1248.13,-473.08"/>
</g>
<!-- 6&#45;&gt;1 -->
<g id="edge14" class="edge">
<title>6&#45;&gt;1</title>
<path fill="none" stroke="grey" stroke-width="2" d="M124.33,-220.82C110.74,-211.16 93.59,-198.97 78.85,-188.5"/>
<polygon fill="grey" stroke="grey" stroke-width="2" points="80.68,-185.5 70.5,-182.56 76.62,-191.2 80.68,-185.5"/>
</g>
<!-- 6&#45;&gt;33 -->
<g id="edge52" class="edge">
<title>6&#45;&gt;33</title>
<path fill="none" stroke="grey" stroke-width="2" d="M149.45,-220.82C149.91,-212.42 150.48,-202.12 151,-192.69"/>
<polygon fill="grey" stroke="grey" stroke-width="2" points="154.5,-192.74 151.56,-182.56 147.51,-192.35 154.5,-192.74"/>
</g>
<!-- 6&#45;&gt;43 -->
<g id="edge92" class="edge">
<title>6&#45;&gt;43</title>
<path fill="none" stroke="grey" stroke-width="2" d="M170.54,-220.82C182.82,-211.25 198.27,-199.2 211.62,-188.79"/>
<polygon fill="grey" stroke="grey" stroke-width="2" points="213.88,-191.47 219.62,-182.56 209.58,-185.95 213.88,-191.47"/>
</g>
<!-- 7 -->
<g id="node8" class="node">
<title>7</title>
<path fill="none" stroke="#d6d856" stroke-width="2" d="M370,-182.5C370,-182.5 301,-182.5 301,-182.5 295,-182.5 289,-176.5 289,-170.5 289,-170.5 289,-158.5 289,-158.5 289,-152.5 295,-146.5 301,-146.5 301,-146.5 370,-146.5 370,-146.5 376,-146.5 382,-152.5 382,-158.5 382,-158.5 382,-170.5 382,-170.5 382,-176.5 376,-182.5 370,-182.5"/>
<text text-anchor="middle" x="335.5" y="-162" font-family="sans" font-size="10.00">extract_mapping</text>
</g>
<!-- 7&#45;&gt;0 -->
<g id="edge2" class="edge">
<title>7&#45;&gt;0</title>
<path fill="none" stroke="grey" stroke-width="2" d="M381.19,-146.44C384.32,-145.54 387.44,-144.71 390.5,-144 523.43,-113 571.51,-165.08 695.5,-108 716.93,-98.14 713.48,-82.71 734.5,-72 809.35,-33.85 909.14,-23.14 962.36,-20.15"/>
<polygon fill="grey" stroke="grey" stroke-width="2" points="962.55,-23.64 972.36,-19.64 962.2,-16.65 962.55,-23.64"/>
</g>
<!-- 8 -->
<g id="node9" class="node">
<title>8</title>
<path fill="none" stroke="#569ad8" stroke-width="2" d="M507.5,-329C507.5,-329 477.5,-329 477.5,-329 471.5,-329 465.5,-323 465.5,-317 465.5,-317 465.5,-305 465.5,-305 465.5,-299 471.5,-293 477.5,-293 477.5,-293 507.5,-293 507.5,-293 513.5,-293 519.5,-299 519.5,-305 519.5,-305 519.5,-317 519.5,-317 519.5,-323 513.5,-329 507.5,-329"/>
<text text-anchor="middle" x="492.5" y="-308.5" font-family="sans" font-size="10.00">sort</text>
</g>
<!-- 8&#45;&gt;7 -->
<g id="edge19" class="edge">
<title>8&#45;&gt;7</title>
<path fill="none" stroke="grey" stroke-width="2" d="M465.47,-298.01C446.26,-288.64 420.59,-274.32 401.5,-257 380.46,-237.92 362.08,-211.09 350.09,-191.42"/>
<polygon fill="grey" stroke="grey" stroke-width="2" points="353.01,-189.48 344.89,-182.67 346.99,-193.05 353.01,-189.48"/>
</g>
<!-- 11 -->
<g id="node12" class="node">
<title>11</title>
<path fill="none" stroke="#97d856" stroke-width="2" d="M452.5,-257C452.5,-257 422.5,-257 422.5,-257 416.5,-257 410.5,-251 410.5,-245 410.5,-245 410.5,-233 410.5,-233 410.5,-227 416.5,-221 422.5,-221 422.5,-221 452.5,-221 452.5,-221 458.5,-221 464.5,-227 464.5,-233 464.5,-233 464.5,-245 464.5,-245 464.5,-251 458.5,-257 452.5,-257"/>
<text text-anchor="middle" x="437.5" y="-236.5" font-family="sans" font-size="10.00">index</text>
</g>
<!-- 8&#45;&gt;11 -->
<g id="edge24" class="edge">
<title>8&#45;&gt;11</title>
<path fill="none" stroke="grey" stroke-width="2" d="M478.9,-292.7C472.38,-284.39 464.43,-274.28 457.25,-265.14"/>
<polygon fill="grey" stroke="grey" stroke-width="2" points="459.87,-262.81 450.94,-257.1 454.37,-267.13 459.87,-262.81"/>
</g>
<!-- 36 -->
<g id="node37" class="node">
<title>36</title>
<path fill="none" stroke="#d89556" stroke-width="2" d="M471,-182.5C471,-182.5 412,-182.5 412,-182.5 406,-182.5 400,-176.5 400,-170.5 400,-170.5 400,-158.5 400,-158.5 400,-152.5 406,-146.5 412,-146.5 412,-146.5 471,-146.5 471,-146.5 477,-146.5 483,-152.5 483,-158.5 483,-158.5 483,-170.5 483,-170.5 483,-176.5 477,-182.5 471,-182.5"/>
<text text-anchor="middle" x="441.5" y="-162" font-family="sans" font-size="10.00">calculate_stats</text>
</g>
<!-- 8&#45;&gt;36 -->
<g id="edge57" class="edge">
<title>8&#45;&gt;36</title>
<path fill="none" stroke="grey" stroke-width="2" d="M490.45,-292.82C487.91,-274.55 482.73,-245.04 473.5,-221 469.61,-210.88 464.04,-200.41 458.64,-191.34"/>
<polygon fill="grey" stroke="grey" stroke-width="2" points="461.59,-189.46 453.36,-182.79 455.64,-193.14 461.59,-189.46"/>
</g>
<!-- 44 -->
<g id="node45" class="node">
<title>44</title>
<path fill="none" stroke="#56d89a" stroke-width="2" d="M548,-182.5C548,-182.5 513,-182.5 513,-182.5 507,-182.5 501,-176.5 501,-170.5 501,-170.5 501,-158.5 501,-158.5 501,-152.5 507,-146.5 513,-146.5 513,-146.5 548,-146.5 548,-146.5 554,-146.5 560,-152.5 560,-158.5 560,-158.5 560,-170.5 560,-170.5 560,-176.5 554,-182.5 548,-182.5"/>
<text text-anchor="middle" x="530.5" y="-162" font-family="sans" font-size="10.00">qualimap</text>
</g>
<!-- 8&#45;&gt;44 -->
<g id="edge93" class="edge">
<title>8&#45;&gt;44</title>
<path fill="none" stroke="grey" stroke-width="2" d="M497.05,-292.82C499.79,-282.44 503.35,-268.96 506.5,-257 512.2,-235.36 518.63,-210.83 523.4,-192.63"/>
<polygon fill="grey" stroke="grey" stroke-width="2" points="526.85,-193.26 526,-182.7 520.08,-191.49 526.85,-193.26"/>
</g>
<!-- 9 -->
<g id="node10" class="node">
<title>9</title>
<path fill="none" stroke="#d8b456" stroke-width="2" d="M593.5,-401C593.5,-401 563.5,-401 563.5,-401 557.5,-401 551.5,-395 551.5,-389 551.5,-389 551.5,-377 551.5,-377 551.5,-371 557.5,-365 563.5,-365 563.5,-365 593.5,-365 593.5,-365 599.5,-365 605.5,-371 605.5,-377 605.5,-377 605.5,-389 605.5,-389 605.5,-395 599.5,-401 593.5,-401"/>
<text text-anchor="middle" x="578.5" y="-380.5" font-family="sans" font-size="10.00">convert</text>
</g>
<!-- 9&#45;&gt;8 -->
<g id="edge21" class="edge">
<title>9&#45;&gt;8</title>
<path fill="none" stroke="grey" stroke-width="2" d="M557.24,-364.7C546.41,-355.88 533.08,-345.03 521.34,-335.47"/>
<polygon fill="grey" stroke="grey" stroke-width="2" points="523.48,-332.7 513.51,-329.1 519.06,-338.13 523.48,-332.7"/>
</g>
<!-- 10&#45;&gt;9 -->
<g id="edge22" class="edge">
<title>10&#45;&gt;9</title>
<path fill="none" stroke="grey" stroke-width="2" d="M625.17,-436.7C617.74,-428.3 608.68,-418.07 600.52,-408.86"/>
<polygon fill="grey" stroke="grey" stroke-width="2" points="602.9,-406.27 593.65,-401.1 597.66,-410.91 602.9,-406.27"/>
</g>
<!-- 11&#45;&gt;7 -->
<g id="edge20" class="edge">
<title>11&#45;&gt;7</title>
<path fill="none" stroke="grey" stroke-width="2" d="M413.33,-220.82C399.74,-211.16 382.59,-198.97 367.85,-188.5"/>
<polygon fill="grey" stroke="grey" stroke-width="2" points="369.68,-185.5 359.5,-182.56 365.62,-191.2 369.68,-185.5"/>
</g>
<!-- 11&#45;&gt;36 -->
<g id="edge58" class="edge">
<title>11&#45;&gt;36</title>
<path fill="none" stroke="grey" stroke-width="2" d="M438.45,-220.82C438.91,-212.42 439.48,-202.12 440,-192.69"/>
<polygon fill="grey" stroke="grey" stroke-width="2" points="443.5,-192.74 440.56,-182.56 436.51,-192.35 443.5,-192.74"/>
</g>
<!-- 11&#45;&gt;44 -->
<g id="edge94" class="edge">
<title>11&#45;&gt;44</title>
<path fill="none" stroke="grey" stroke-width="2" d="M459.54,-220.82C471.82,-211.25 487.27,-199.2 500.62,-188.79"/>
<polygon fill="grey" stroke="grey" stroke-width="2" points="502.88,-191.47 508.62,-182.56 498.58,-185.95 502.88,-191.47"/>
</g>
<!-- 12 -->
<g id="node13" class="node">
<title>12</title>
<path fill="none" stroke="#d6d856" stroke-width="2" d="M659,-182.5C659,-182.5 590,-182.5 590,-182.5 584,-182.5 578,-176.5 578,-170.5 578,-170.5 578,-158.5 578,-158.5 578,-152.5 584,-146.5 590,-146.5 590,-146.5 659,-146.5 659,-146.5 665,-146.5 671,-152.5 671,-158.5 671,-158.5 671,-170.5 671,-170.5 671,-176.5 665,-182.5 659,-182.5"/>
<text text-anchor="middle" x="624.5" y="-162" font-family="sans" font-size="10.00">extract_mapping</text>
</g>
<!-- 12&#45;&gt;0 -->
<g id="edge3" class="edge">
<title>12&#45;&gt;0</title>
<path fill="none" stroke="grey" stroke-width="2" d="M670.51,-146.42C673.53,-145.53 676.55,-144.72 679.5,-144 795.01,-115.99 844.83,-172.75 944.5,-108 966.88,-93.46 981.69,-66.28 990.25,-45.77"/>
<polygon fill="grey" stroke="grey" stroke-width="2" points="993.56,-46.91 993.95,-36.32 987.04,-44.36 993.56,-46.91"/>
</g>
<!-- 13 -->
<g id="node14" class="node">
<title>13</title>
<path fill="none" stroke="#569ad8" stroke-width="2" d="M796.5,-329C796.5,-329 766.5,-329 766.5,-329 760.5,-329 754.5,-323 754.5,-317 754.5,-317 754.5,-305 754.5,-305 754.5,-299 760.5,-293 766.5,-293 766.5,-293 796.5,-293 796.5,-293 802.5,-293 808.5,-299 808.5,-305 808.5,-305 808.5,-317 808.5,-317 808.5,-323 802.5,-329 796.5,-329"/>
<text text-anchor="middle" x="781.5" y="-308.5" font-family="sans" font-size="10.00">sort</text>
</g>
<!-- 13&#45;&gt;12 -->
<g id="edge25" class="edge">
<title>13&#45;&gt;12</title>
<path fill="none" stroke="grey" stroke-width="2" d="M754.47,-298.01C735.26,-288.64 709.59,-274.32 690.5,-257 669.46,-237.92 651.08,-211.09 639.09,-191.42"/>
<polygon fill="grey" stroke="grey" stroke-width="2" points="642.01,-189.48 633.89,-182.67 635.99,-193.05 642.01,-189.48"/>
</g>
<!-- 16 -->
<g id="node17" class="node">
<title>16</title>
<path fill="none" stroke="#97d856" stroke-width="2" d="M741.5,-257C741.5,-257 711.5,-257 711.5,-257 705.5,-257 699.5,-251 699.5,-245 699.5,-245 699.5,-233 699.5,-233 699.5,-227 705.5,-221 711.5,-221 711.5,-221 741.5,-221 741.5,-221 747.5,-221 753.5,-227 753.5,-233 753.5,-233 753.5,-245 753.5,-245 753.5,-251 747.5,-257 741.5,-257"/>
<text text-anchor="middle" x="726.5" y="-236.5" font-family="sans" font-size="10.00">index</text>
</g>
<!-- 13&#45;&gt;16 -->
<g id="edge30" class="edge">
<title>13&#45;&gt;16</title>
<path fill="none" stroke="grey" stroke-width="2" d="M767.9,-292.7C761.38,-284.39 753.43,-274.28 746.25,-265.14"/>
<polygon fill="grey" stroke="grey" stroke-width="2" points="748.87,-262.81 739.94,-257.1 743.37,-267.13 748.87,-262.81"/>
</g>
<!-- 39 -->
<g id="node40" class="node">
<title>39</title>
<path fill="none" stroke="#d89556" stroke-width="2" d="M760,-182.5C760,-182.5 701,-182.5 701,-182.5 695,-182.5 689,-176.5 689,-170.5 689,-170.5 689,-158.5 689,-158.5 689,-152.5 695,-146.5 701,-146.5 701,-146.5 760,-146.5 760,-146.5 766,-146.5 772,-152.5 772,-158.5 772,-158.5 772,-170.5 772,-170.5 772,-176.5 766,-182.5 760,-182.5"/>
<text text-anchor="middle" x="730.5" y="-162" font-family="sans" font-size="10.00">calculate_stats</text>
</g>
<!-- 13&#45;&gt;39 -->
<g id="edge63" class="edge">
<title>13&#45;&gt;39</title>
<path fill="none" stroke="grey" stroke-width="2" d="M779.45,-292.82C776.91,-274.55 771.73,-245.04 762.5,-221 758.61,-210.88 753.04,-200.41 747.64,-191.34"/>
<polygon fill="grey" stroke="grey" stroke-width="2" points="750.59,-189.46 742.36,-182.79 744.64,-193.14 750.59,-189.46"/>
</g>
<!-- 45 -->
<g id="node46" class="node">
<title>45</title>
<path fill="none" stroke="#56d89a" stroke-width="2" d="M837,-182.5C837,-182.5 802,-182.5 802,-182.5 796,-182.5 790,-176.5 790,-170.5 790,-170.5 790,-158.5 790,-158.5 790,-152.5 796,-146.5 802,-146.5 802,-146.5 837,-146.5 837,-146.5 843,-146.5 849,-152.5 849,-158.5 849,-158.5 849,-170.5 849,-170.5 849,-176.5 843,-182.5 837,-182.5"/>
<text text-anchor="middle" x="819.5" y="-162" font-family="sans" font-size="10.00">qualimap</text>
</g>
<!-- 13&#45;&gt;45 -->
<g id="edge95" class="edge">
<title>13&#45;&gt;45</title>
<path fill="none" stroke="grey" stroke-width="2" d="M786.05,-292.82C788.79,-282.44 792.35,-268.96 795.5,-257 801.2,-235.36 807.63,-210.83 812.4,-192.63"/>
<polygon fill="grey" stroke="grey" stroke-width="2" points="815.85,-193.26 815,-182.7 809.08,-191.49 815.85,-193.26"/>
</g>
<!-- 14 -->
<g id="node15" class="node">
<title>14</title>
<path fill="none" stroke="#d8b456" stroke-width="2" d="M801.5,-401C801.5,-401 771.5,-401 771.5,-401 765.5,-401 759.5,-395 759.5,-389 759.5,-389 759.5,-377 759.5,-377 759.5,-371 765.5,-365 771.5,-365 771.5,-365 801.5,-365 801.5,-365 807.5,-365 813.5,-371 813.5,-377 813.5,-377 813.5,-389 813.5,-389 813.5,-395 807.5,-401 801.5,-401"/>
<text text-anchor="middle" x="786.5" y="-380.5" font-family="sans" font-size="10.00">convert</text>
</g>
<!-- 14&#45;&gt;13 -->
<g id="edge27" class="edge">
<title>14&#45;&gt;13</title>
<path fill="none" stroke="grey" stroke-width="2" d="M785.26,-364.7C784.71,-356.98 784.05,-347.71 783.44,-339.11"/>
<polygon fill="grey" stroke="grey" stroke-width="2" points="786.93,-338.83 782.72,-329.1 779.94,-339.33 786.93,-338.83"/>
</g>
<!-- 15&#45;&gt;14 -->
<g id="edge28" class="edge">
<title>15&#45;&gt;14</title>
<path fill="none" stroke="grey" stroke-width="2" d="M794.03,-436.7C792.93,-428.98 791.6,-419.71 790.37,-411.11"/>
<polygon fill="grey" stroke="grey" stroke-width="2" points="793.82,-410.51 788.94,-401.1 786.89,-411.5 793.82,-410.51"/>
</g>
<!-- 16&#45;&gt;12 -->
<g id="edge26" class="edge">
<title>16&#45;&gt;12</title>
<path fill="none" stroke="grey" stroke-width="2" d="M702.33,-220.82C688.74,-211.16 671.59,-198.97 656.85,-188.5"/>
<polygon fill="grey" stroke="grey" stroke-width="2" points="658.68,-185.5 648.5,-182.56 654.62,-191.2 658.68,-185.5"/>
</g>
<!-- 16&#45;&gt;39 -->
<g id="edge64" class="edge">
<title>16&#45;&gt;39</title>
<path fill="none" stroke="grey" stroke-width="2" d="M727.45,-220.82C727.91,-212.42 728.48,-202.12 729,-192.69"/>
<polygon fill="grey" stroke="grey" stroke-width="2" points="732.5,-192.74 729.56,-182.56 725.51,-192.35 732.5,-192.74"/>
</g>
<!-- 16&#45;&gt;45 -->
<g id="edge96" class="edge">
<title>16&#45;&gt;45</title>
<path fill="none" stroke="grey" stroke-width="2" d="M748.54,-220.82C760.82,-211.25 776.27,-199.2 789.62,-188.79"/>
<polygon fill="grey" stroke="grey" stroke-width="2" points="791.88,-191.47 797.62,-182.56 787.58,-185.95 791.88,-191.47"/>
</g>
<!-- 17 -->
<g id="node18" class="node">
<title>17</title>
<path fill="none" stroke="#d6d856" stroke-width="2" d="M948,-182.5C948,-182.5 879,-182.5 879,-182.5 873,-182.5 867,-176.5 867,-170.5 867,-170.5 867,-158.5 867,-158.5 867,-152.5 873,-146.5 879,-146.5 879,-146.5 948,-146.5 948,-146.5 954,-146.5 960,-152.5 960,-158.5 960,-158.5 960,-170.5 960,-170.5 960,-176.5 954,-182.5 948,-182.5"/>
<text text-anchor="middle" x="913.5" y="-162" font-family="sans" font-size="10.00">extract_mapping</text>
</g>
<!-- 17&#45;&gt;0 -->
<g id="edge4" class="edge">
<title>17&#45;&gt;0</title>
<path fill="none" stroke="grey" stroke-width="2" d="M960.26,-146.78C963.05,-145.83 965.81,-144.89 968.5,-144 1019.73,-126.98 1052.48,-151.46 1084.5,-108 1093.99,-95.12 1092.26,-85.99 1084.5,-72 1074.08,-53.22 1053.94,-40.23 1035.88,-31.81"/>
<polygon fill="grey" stroke="grey" stroke-width="2" points="1037.25,-28.59 1026.68,-27.82 1034.46,-35.01 1037.25,-28.59"/>
</g>
<!-- 18 -->
<g id="node19" class="node">
<title>18</title>
<path fill="none" stroke="#569ad8" stroke-width="2" d="M983.5,-329C983.5,-329 953.5,-329 953.5,-329 947.5,-329 941.5,-323 941.5,-317 941.5,-317 941.5,-305 941.5,-305 941.5,-299 947.5,-293 953.5,-293 953.5,-293 983.5,-293 983.5,-293 989.5,-293 995.5,-299 995.5,-305 995.5,-305 995.5,-317 995.5,-317 995.5,-323 989.5,-329 983.5,-329"/>
<text text-anchor="middle" x="968.5" y="-308.5" font-family="sans" font-size="10.00">sort</text>
</g>
<!-- 18&#45;&gt;17 -->
<g id="edge31" class="edge">
<title>18&#45;&gt;17</title>
<path fill="none" stroke="grey" stroke-width="2" d="M954.31,-292.86C946.77,-282.95 937.97,-269.91 932.5,-257 923.77,-236.39 918.93,-211.43 916.33,-192.79"/>
<polygon fill="grey" stroke="grey" stroke-width="2" points="919.77,-192.1 915.04,-182.62 912.82,-192.98 919.77,-192.1"/>
</g>
<!-- 21 -->
<g id="node22" class="node">
<title>21</title>
<path fill="none" stroke="#97d856" stroke-width="2" d="M983.5,-257C983.5,-257 953.5,-257 953.5,-257 947.5,-257 941.5,-251 941.5,-245 941.5,-245 941.5,-233 941.5,-233 941.5,-227 947.5,-221 953.5,-221 953.5,-221 983.5,-221 983.5,-221 989.5,-221 995.5,-227 995.5,-233 995.5,-233 995.5,-245 995.5,-245 995.5,-251 989.5,-257 983.5,-257"/>
<text text-anchor="middle" x="968.5" y="-236.5" font-family="sans" font-size="10.00">index</text>
</g>
<!-- 18&#45;&gt;21 -->
<g id="edge36" class="edge">
<title>18&#45;&gt;21</title>
<path fill="none" stroke="grey" stroke-width="2" d="M968.5,-292.7C968.5,-284.98 968.5,-275.71 968.5,-267.11"/>
<polygon fill="grey" stroke="grey" stroke-width="2" points="972,-267.1 968.5,-257.1 965,-267.1 972,-267.1"/>
</g>
<!-- 34 -->
<g id="node35" class="node">
<title>34</title>
<path fill="none" stroke="#d89556" stroke-width="2" d="M1049,-182.5C1049,-182.5 990,-182.5 990,-182.5 984,-182.5 978,-176.5 978,-170.5 978,-170.5 978,-158.5 978,-158.5 978,-152.5 984,-146.5 990,-146.5 990,-146.5 1049,-146.5 1049,-146.5 1055,-146.5 1061,-152.5 1061,-158.5 1061,-158.5 1061,-170.5 1061,-170.5 1061,-176.5 1055,-182.5 1049,-182.5"/>
<text text-anchor="middle" x="1019.5" y="-162" font-family="sans" font-size="10.00">calculate_stats</text>
</g>
<!-- 18&#45;&gt;34 -->
<g id="edge53" class="edge">
<title>18&#45;&gt;34</title>
<path fill="none" stroke="grey" stroke-width="2" d="M982.9,-292.95C990.5,-283.06 999.31,-270.02 1004.5,-257 1012.73,-236.38 1016.44,-211.42 1018.12,-192.78"/>
<polygon fill="grey" stroke="grey" stroke-width="2" points="1021.63,-192.85 1018.89,-182.61 1014.65,-192.32 1021.63,-192.85"/>
</g>
<!-- 46 -->
<g id="node47" class="node">
<title>46</title>
<path fill="none" stroke="#56d89a" stroke-width="2" d="M1126,-182.5C1126,-182.5 1091,-182.5 1091,-182.5 1085,-182.5 1079,-176.5 1079,-170.5 1079,-170.5 1079,-158.5 1079,-158.5 1079,-152.5 1085,-146.5 1091,-146.5 1091,-146.5 1126,-146.5 1126,-146.5 1132,-146.5 1138,-152.5 1138,-158.5 1138,-158.5 1138,-170.5 1138,-170.5 1138,-176.5 1132,-182.5 1126,-182.5"/>
<text text-anchor="middle" x="1108.5" y="-162" font-family="sans" font-size="10.00">qualimap</text>
</g>
<!-- 18&#45;&gt;46 -->
<g id="edge97" class="edge">
<title>18&#45;&gt;46</title>
<path fill="none" stroke="grey" stroke-width="2" d="M987.08,-292.58C997.86,-282.36 1011.61,-269.11 1023.5,-257 1045.3,-234.8 1069.37,-208.74 1086.31,-190.12"/>
<polygon fill="grey" stroke="grey" stroke-width="2" points="1088.98,-192.38 1093.11,-182.63 1083.8,-187.68 1088.98,-192.38"/>
</g>
<!-- 19 -->
<g id="node20" class="node">
<title>19</title>
<path fill="none" stroke="#d8b456" stroke-width="2" d="M981.5,-401C981.5,-401 951.5,-401 951.5,-401 945.5,-401 939.5,-395 939.5,-389 939.5,-389 939.5,-377 939.5,-377 939.5,-371 945.5,-365 951.5,-365 951.5,-365 981.5,-365 981.5,-365 987.5,-365 993.5,-371 993.5,-377 993.5,-377 993.5,-389 993.5,-389 993.5,-395 987.5,-401 981.5,-401"/>
<text text-anchor="middle" x="966.5" y="-380.5" font-family="sans" font-size="10.00">convert</text>
</g>
<!-- 19&#45;&gt;18 -->
<g id="edge33" class="edge">
<title>19&#45;&gt;18</title>
<path fill="none" stroke="grey" stroke-width="2" d="M966.99,-364.7C967.21,-356.98 967.48,-347.71 967.73,-339.11"/>
<polygon fill="grey" stroke="grey" stroke-width="2" points="971.22,-339.2 968.01,-329.1 964.23,-339 971.22,-339.2"/>
</g>
<!-- 20&#45;&gt;19 -->
<g id="edge34" class="edge">
<title>20&#45;&gt;19</title>
<path fill="none" stroke="grey" stroke-width="2" d="M964.24,-436.7C964.57,-428.98 964.97,-419.71 965.34,-411.11"/>
<polygon fill="grey" stroke="grey" stroke-width="2" points="968.84,-411.25 965.77,-401.1 961.84,-410.95 968.84,-411.25"/>
</g>
<!-- 21&#45;&gt;17 -->
<g id="edge32" class="edge">
<title>21&#45;&gt;17</title>
<path fill="none" stroke="grey" stroke-width="2" d="M955.47,-220.82C948.62,-211.79 940.09,-200.55 932.52,-190.57"/>
<polygon fill="grey" stroke="grey" stroke-width="2" points="935.27,-188.41 926.44,-182.56 929.7,-192.64 935.27,-188.41"/>
</g>
<!-- 21&#45;&gt;34 -->
<g id="edge54" class="edge">
<title>21&#45;&gt;34</title>
<path fill="none" stroke="grey" stroke-width="2" d="M980.59,-220.82C986.87,-211.88 994.68,-200.78 1001.65,-190.87"/>
<polygon fill="grey" stroke="grey" stroke-width="2" points="1004.61,-192.75 1007.5,-182.56 998.88,-188.72 1004.61,-192.75"/>
</g>
<!-- 21&#45;&gt;46 -->
<g id="edge98" class="edge">
<title>21&#45;&gt;46</title>
<path fill="none" stroke="grey" stroke-width="2" d="M995.83,-223.85C1016.9,-212.94 1046.32,-197.7 1069.81,-185.53"/>
<polygon fill="grey" stroke="grey" stroke-width="2" points="1071.55,-188.58 1078.82,-180.87 1068.33,-182.36 1071.55,-188.58"/>
</g>
<!-- 22 -->
<g id="node23" class="node">
<title>22</title>
<path fill="none" stroke="#d6d856" stroke-width="2" d="M1237,-182.5C1237,-182.5 1168,-182.5 1168,-182.5 1162,-182.5 1156,-176.5 1156,-170.5 1156,-170.5 1156,-158.5 1156,-158.5 1156,-152.5 1162,-146.5 1168,-146.5 1168,-146.5 1237,-146.5 1237,-146.5 1243,-146.5 1249,-152.5 1249,-158.5 1249,-158.5 1249,-170.5 1249,-170.5 1249,-176.5 1243,-182.5 1237,-182.5"/>
<text text-anchor="middle" x="1202.5" y="-162" font-family="sans" font-size="10.00">extract_mapping</text>
</g>
<!-- 22&#45;&gt;0 -->
<g id="edge5" class="edge">
<title>22&#45;&gt;0</title>
<path fill="none" stroke="grey" stroke-width="2" d="M1186.34,-146.15C1167.48,-126.55 1134.75,-94.45 1102.5,-72 1081.7,-57.52 1056.41,-44.45 1036.1,-34.91"/>
<polygon fill="grey" stroke="grey" stroke-width="2" points="1037.41,-31.66 1026.86,-30.66 1034.48,-38.02 1037.41,-31.66"/>
</g>
<!-- 23 -->
<g id="node24" class="node">
<title>23</title>
<path fill="none" stroke="#569ad8" stroke-width="2" d="M1272.5,-329C1272.5,-329 1242.5,-329 1242.5,-329 1236.5,-329 1230.5,-323 1230.5,-317 1230.5,-317 1230.5,-305 1230.5,-305 1230.5,-299 1236.5,-293 1242.5,-293 1242.5,-293 1272.5,-293 1272.5,-293 1278.5,-293 1284.5,-299 1284.5,-305 1284.5,-305 1284.5,-317 1284.5,-317 1284.5,-323 1278.5,-329 1272.5,-329"/>
<text text-anchor="middle" x="1257.5" y="-308.5" font-family="sans" font-size="10.00">sort</text>
</g>
<!-- 23&#45;&gt;22 -->
<g id="edge37" class="edge">
<title>23&#45;&gt;22</title>
<path fill="none" stroke="grey" stroke-width="2" d="M1243.31,-292.86C1235.77,-282.95 1226.97,-269.91 1221.5,-257 1212.77,-236.39 1207.93,-211.43 1205.33,-192.79"/>
<polygon fill="grey" stroke="grey" stroke-width="2" points="1208.77,-192.1 1204.04,-182.62 1201.82,-192.98 1208.77,-192.1"/>
</g>
<!-- 26 -->
<g id="node27" class="node">
<title>26</title>
<path fill="none" stroke="#97d856" stroke-width="2" d="M1272.5,-257C1272.5,-257 1242.5,-257 1242.5,-257 1236.5,-257 1230.5,-251 1230.5,-245 1230.5,-245 1230.5,-233 1230.5,-233 1230.5,-227 1236.5,-221 1242.5,-221 1242.5,-221 1272.5,-221 1272.5,-221 1278.5,-221 1284.5,-227 1284.5,-233 1284.5,-233 1284.5,-245 1284.5,-245 1284.5,-251 1278.5,-257 1272.5,-257"/>
<text text-anchor="middle" x="1257.5" y="-236.5" font-family="sans" font-size="10.00">index</text>
</g>
<!-- 23&#45;&gt;26 -->
<g id="edge42" class="edge">
<title>23&#45;&gt;26</title>
<path fill="none" stroke="grey" stroke-width="2" d="M1257.5,-292.7C1257.5,-284.98 1257.5,-275.71 1257.5,-267.11"/>
<polygon fill="grey" stroke="grey" stroke-width="2" points="1261,-267.1 1257.5,-257.1 1254,-267.1 1261,-267.1"/>
</g>
<!-- 37 -->
<g id="node38" class="node">
<title>37</title>
<path fill="none" stroke="#d89556" stroke-width="2" d="M1338,-182.5C1338,-182.5 1279,-182.5 1279,-182.5 1273,-182.5 1267,-176.5 1267,-170.5 1267,-170.5 1267,-158.5 1267,-158.5 1267,-152.5 1273,-146.5 1279,-146.5 1279,-146.5 1338,-146.5 1338,-146.5 1344,-146.5 1350,-152.5 1350,-158.5 1350,-158.5 1350,-170.5 1350,-170.5 1350,-176.5 1344,-182.5 1338,-182.5"/>
<text text-anchor="middle" x="1308.5" y="-162" font-family="sans" font-size="10.00">calculate_stats</text>
</g>
<!-- 23&#45;&gt;37 -->
<g id="edge59" class="edge">
<title>23&#45;&gt;37</title>
<path fill="none" stroke="grey" stroke-width="2" d="M1271.9,-292.95C1279.5,-283.06 1288.31,-270.02 1293.5,-257 1301.73,-236.38 1305.44,-211.42 1307.12,-192.78"/>
<polygon fill="grey" stroke="grey" stroke-width="2" points="1310.63,-192.85 1307.89,-182.61 1303.65,-192.32 1310.63,-192.85"/>
</g>
<!-- 47 -->
<g id="node48" class="node">
<title>47</title>
<path fill="none" stroke="#56d89a" stroke-width="2" d="M1415,-182.5C1415,-182.5 1380,-182.5 1380,-182.5 1374,-182.5 1368,-176.5 1368,-170.5 1368,-170.5 1368,-158.5 1368,-158.5 1368,-152.5 1374,-146.5 1380,-146.5 1380,-146.5 1415,-146.5 1415,-146.5 1421,-146.5 1427,-152.5 1427,-158.5 1427,-158.5 1427,-170.5 1427,-170.5 1427,-176.5 1421,-182.5 1415,-182.5"/>
<text text-anchor="middle" x="1397.5" y="-162" font-family="sans" font-size="10.00">qualimap</text>
</g>
<!-- 23&#45;&gt;47 -->
<g id="edge99" class="edge">
<title>23&#45;&gt;47</title>
<path fill="none" stroke="grey" stroke-width="2" d="M1276.08,-292.58C1286.86,-282.36 1300.61,-269.11 1312.5,-257 1334.3,-234.8 1358.37,-208.74 1375.31,-190.12"/>
<polygon fill="grey" stroke="grey" stroke-width="2" points="1377.98,-192.38 1382.11,-182.63 1372.8,-187.68 1377.98,-192.38"/>
</g>
<!-- 24 -->
<g id="node25" class="node">
<title>24</title>
<path fill="none" stroke="#d8b456" stroke-width="2" d="M1244.5,-401C1244.5,-401 1214.5,-401 1214.5,-401 1208.5,-401 1202.5,-395 1202.5,-389 1202.5,-389 1202.5,-377 1202.5,-377 1202.5,-371 1208.5,-365 1214.5,-365 1214.5,-365 1244.5,-365 1244.5,-365 1250.5,-365 1256.5,-371 1256.5,-377 1256.5,-377 1256.5,-389 1256.5,-389 1256.5,-395 1250.5,-401 1244.5,-401"/>
<text text-anchor="middle" x="1229.5" y="-380.5" font-family="sans" font-size="10.00">convert</text>
</g>
<!-- 24&#45;&gt;23 -->
<g id="edge39" class="edge">
<title>24&#45;&gt;23</title>
<path fill="none" stroke="grey" stroke-width="2" d="M1236.42,-364.7C1239.57,-356.81 1243.38,-347.3 1246.88,-338.55"/>
<polygon fill="grey" stroke="grey" stroke-width="2" points="1250.19,-339.69 1250.66,-329.1 1243.69,-337.09 1250.19,-339.69"/>
</g>
<!-- 25&#45;&gt;24 -->
<g id="edge40" class="edge">
<title>25&#45;&gt;24</title>
<path fill="none" stroke="grey" stroke-width="2" d="M1172.29,-436.7C1181.67,-428.05 1193.18,-417.45 1203.41,-408.03"/>
<polygon fill="grey" stroke="grey" stroke-width="2" points="1205.95,-410.45 1210.93,-401.1 1201.2,-405.3 1205.95,-410.45"/>
</g>
<!-- 26&#45;&gt;22 -->
<g id="edge38" class="edge">
<title>26&#45;&gt;22</title>
<path fill="none" stroke="grey" stroke-width="2" d="M1244.47,-220.82C1237.62,-211.79 1229.09,-200.55 1221.52,-190.57"/>
<polygon fill="grey" stroke="grey" stroke-width="2" points="1224.27,-188.41 1215.44,-182.56 1218.7,-192.64 1224.27,-188.41"/>
</g>
<!-- 26&#45;&gt;37 -->
<g id="edge60" class="edge">
<title>26&#45;&gt;37</title>
<path fill="none" stroke="grey" stroke-width="2" d="M1269.59,-220.82C1275.87,-211.88 1283.68,-200.78 1290.65,-190.87"/>
<polygon fill="grey" stroke="grey" stroke-width="2" points="1293.61,-192.75 1296.5,-182.56 1287.88,-188.72 1293.61,-192.75"/>
</g>
<!-- 26&#45;&gt;47 -->
<g id="edge100" class="edge">
<title>26&#45;&gt;47</title>
<path fill="none" stroke="grey" stroke-width="2" d="M1284.83,-223.85C1305.9,-212.94 1335.32,-197.7 1358.81,-185.53"/>
<polygon fill="grey" stroke="grey" stroke-width="2" points="1360.55,-188.58 1367.82,-180.87 1357.33,-182.36 1360.55,-188.58"/>
</g>
<!-- 27 -->
<g id="node28" class="node">
<title>27</title>
<path fill="none" stroke="#d6d856" stroke-width="2" d="M1526,-182.5C1526,-182.5 1457,-182.5 1457,-182.5 1451,-182.5 1445,-176.5 1445,-170.5 1445,-170.5 1445,-158.5 1445,-158.5 1445,-152.5 1451,-146.5 1457,-146.5 1457,-146.5 1526,-146.5 1526,-146.5 1532,-146.5 1538,-152.5 1538,-158.5 1538,-158.5 1538,-170.5 1538,-170.5 1538,-176.5 1532,-182.5 1526,-182.5"/>
<text text-anchor="middle" x="1491.5" y="-162" font-family="sans" font-size="10.00">extract_mapping</text>
</g>
<!-- 27&#45;&gt;0 -->
<g id="edge6" class="edge">
<title>27&#45;&gt;0</title>
<path fill="none" stroke="grey" stroke-width="2" d="M1444.81,-147.02C1441.67,-145.98 1438.54,-144.96 1435.5,-144 1288.9,-97.5 1112.21,-49.19 1036.67,-28.9"/>
<polygon fill="grey" stroke="grey" stroke-width="2" points="1037.26,-25.44 1026.7,-26.23 1035.45,-32.2 1037.26,-25.44"/>
</g>
<!-- 28 -->
<g id="node29" class="node">
<title>28</title>
<path fill="none" stroke="#569ad8" stroke-width="2" d="M1561.5,-329C1561.5,-329 1531.5,-329 1531.5,-329 1525.5,-329 1519.5,-323 1519.5,-317 1519.5,-317 1519.5,-305 1519.5,-305 1519.5,-299 1525.5,-293 1531.5,-293 1531.5,-293 1561.5,-293 1561.5,-293 1567.5,-293 1573.5,-299 1573.5,-305 1573.5,-305 1573.5,-317 1573.5,-317 1573.5,-323 1567.5,-329 1561.5,-329"/>
<text text-anchor="middle" x="1546.5" y="-308.5" font-family="sans" font-size="10.00">sort</text>
</g>
<!-- 28&#45;&gt;27 -->
<g id="edge43" class="edge">
<title>28&#45;&gt;27</title>
<path fill="none" stroke="grey" stroke-width="2" d="M1532.31,-292.86C1524.77,-282.95 1515.97,-269.91 1510.5,-257 1501.77,-236.39 1496.93,-211.43 1494.33,-192.79"/>
<polygon fill="grey" stroke="grey" stroke-width="2" points="1497.77,-192.1 1493.04,-182.62 1490.82,-192.98 1497.77,-192.1"/>
</g>
<!-- 31 -->
<g id="node32" class="node">
<title>31</title>
<path fill="none" stroke="#97d856" stroke-width="2" d="M1561.5,-257C1561.5,-257 1531.5,-257 1531.5,-257 1525.5,-257 1519.5,-251 1519.5,-245 1519.5,-245 1519.5,-233 1519.5,-233 1519.5,-227 1525.5,-221 1531.5,-221 1531.5,-221 1561.5,-221 1561.5,-221 1567.5,-221 1573.5,-227 1573.5,-233 1573.5,-233 1573.5,-245 1573.5,-245 1573.5,-251 1567.5,-257 1561.5,-257"/>
<text text-anchor="middle" x="1546.5" y="-236.5" font-family="sans" font-size="10.00">index</text>
</g>
<!-- 28&#45;&gt;31 -->
<g id="edge48" class="edge">
<title>28&#45;&gt;31</title>
<path fill="none" stroke="grey" stroke-width="2" d="M1546.5,-292.7C1546.5,-284.98 1546.5,-275.71 1546.5,-267.11"/>
<polygon fill="grey" stroke="grey" stroke-width="2" points="1550,-267.1 1546.5,-257.1 1543,-267.1 1550,-267.1"/>
</g>
<!-- 40 -->
<g id="node41" class="node">
<title>40</title>
<path fill="none" stroke="#d89556" stroke-width="2" d="M1627,-182.5C1627,-182.5 1568,-182.5 1568,-182.5 1562,-182.5 1556,-176.5 1556,-170.5 1556,-170.5 1556,-158.5 1556,-158.5 1556,-152.5 1562,-146.5 1568,-146.5 1568,-146.5 1627,-146.5 1627,-146.5 1633,-146.5 1639,-152.5 1639,-158.5 1639,-158.5 1639,-170.5 1639,-170.5 1639,-176.5 1633,-182.5 1627,-182.5"/>
<text text-anchor="middle" x="1597.5" y="-162" font-family="sans" font-size="10.00">calculate_stats</text>
</g>
<!-- 28&#45;&gt;40 -->
<g id="edge65" class="edge">
<title>28&#45;&gt;40</title>
<path fill="none" stroke="grey" stroke-width="2" d="M1560.9,-292.95C1568.5,-283.06 1577.31,-270.02 1582.5,-257 1590.73,-236.38 1594.44,-211.42 1596.12,-192.78"/>
<polygon fill="grey" stroke="grey" stroke-width="2" points="1599.63,-192.85 1596.89,-182.61 1592.65,-192.32 1599.63,-192.85"/>
</g>
<!-- 48 -->
<g id="node49" class="node">
<title>48</title>
<path fill="none" stroke="#56d89a" stroke-width="2" d="M1704,-182.5C1704,-182.5 1669,-182.5 1669,-182.5 1663,-182.5 1657,-176.5 1657,-170.5 1657,-170.5 1657,-158.5 1657,-158.5 1657,-152.5 1663,-146.5 1669,-146.5 1669,-146.5 1704,-146.5 1704,-146.5 1710,-146.5 1716,-152.5 1716,-158.5 1716,-158.5 1716,-170.5 1716,-170.5 1716,-176.5 1710,-182.5 1704,-182.5"/>
<text text-anchor="middle" x="1686.5" y="-162" font-family="sans" font-size="10.00">qualimap</text>
</g>
<!-- 28&#45;&gt;48 -->
<g id="edge101" class="edge">
<title>28&#45;&gt;48</title>
<path fill="none" stroke="grey" stroke-width="2" d="M1565.08,-292.58C1575.86,-282.36 1589.61,-269.11 1601.5,-257 1623.3,-234.8 1647.37,-208.74 1664.31,-190.12"/>
<polygon fill="grey" stroke="grey" stroke-width="2" points="1666.98,-192.38 1671.11,-182.63 1661.8,-187.68 1666.98,-192.38"/>
</g>
<!-- 29 -->
<g id="node30" class="node">
<title>29</title>
<path fill="none" stroke="#d8b456" stroke-width="2" d="M1364.5,-401C1364.5,-401 1334.5,-401 1334.5,-401 1328.5,-401 1322.5,-395 1322.5,-389 1322.5,-389 1322.5,-377 1322.5,-377 1322.5,-371 1328.5,-365 1334.5,-365 1334.5,-365 1364.5,-365 1364.5,-365 1370.5,-365 1376.5,-371 1376.5,-377 1376.5,-377 1376.5,-389 1376.5,-389 1376.5,-395 1370.5,-401 1364.5,-401"/>
<text text-anchor="middle" x="1349.5" y="-380.5" font-family="sans" font-size="10.00">convert</text>
</g>
<!-- 29&#45;&gt;28 -->
<g id="edge45" class="edge">
<title>29&#45;&gt;28</title>
<path fill="none" stroke="grey" stroke-width="2" d="M1376.89,-372.27C1411.44,-359.99 1470.98,-338.83 1509.54,-325.13"/>
<polygon fill="grey" stroke="grey" stroke-width="2" points="1511.09,-328.3 1519.34,-321.65 1508.75,-321.7 1511.09,-328.3"/>
</g>
<!-- 30&#45;&gt;29 -->
<g id="edge46" class="edge">
<title>30&#45;&gt;29</title>
<path fill="none" stroke="grey" stroke-width="2" d="M1329.17,-436.7C1332.21,-428.81 1335.88,-419.3 1339.26,-410.55"/>
<polygon fill="grey" stroke="grey" stroke-width="2" points="1342.57,-411.69 1342.9,-401.1 1336.04,-409.17 1342.57,-411.69"/>
</g>
<!-- 31&#45;&gt;27 -->
<g id="edge44" class="edge">
<title>31&#45;&gt;27</title>
<path fill="none" stroke="grey" stroke-width="2" d="M1533.47,-220.82C1526.62,-211.79 1518.09,-200.55 1510.52,-190.57"/>
<polygon fill="grey" stroke="grey" stroke-width="2" points="1513.27,-188.41 1504.44,-182.56 1507.7,-192.64 1513.27,-188.41"/>
</g>
<!-- 31&#45;&gt;40 -->
<g id="edge66" class="edge">
<title>31&#45;&gt;40</title>
<path fill="none" stroke="grey" stroke-width="2" d="M1558.59,-220.82C1564.87,-211.88 1572.68,-200.78 1579.65,-190.87"/>
<polygon fill="grey" stroke="grey" stroke-width="2" points="1582.61,-192.75 1585.5,-182.56 1576.88,-188.72 1582.61,-192.75"/>
</g>
<!-- 31&#45;&gt;48 -->
<g id="edge102" class="edge">
<title>31&#45;&gt;48</title>
<path fill="none" stroke="grey" stroke-width="2" d="M1573.83,-223.85C1594.9,-212.94 1624.32,-197.7 1647.81,-185.53"/>
<polygon fill="grey" stroke="grey" stroke-width="2" points="1649.55,-188.58 1656.82,-180.87 1646.33,-182.36 1649.55,-188.58"/>
</g>
<!-- 32 -->
<g id="node33" class="node">
<title>32</title>
<path fill="none" stroke="#b6d856" stroke-width="2" d="M675,-108C675,-108 616,-108 616,-108 610,-108 604,-102 604,-96 604,-96 604,-84 604,-84 604,-78 610,-72 616,-72 616,-72 675,-72 675,-72 681,-72 687,-78 687,-84 687,-84 687,-96 687,-96 687,-102 681,-108 675,-108"/>
<text text-anchor="middle" x="645.5" y="-93" font-family="sans" font-size="10.00">grouped_stats</text>
<text text-anchor="middle" x="645.5" y="-82" font-family="sans" font-size="10.00">group: A</text>
</g>
<!-- 32&#45;&gt;0 -->
<g id="edge7" class="edge">
<title>32&#45;&gt;0</title>
<path fill="none" stroke="grey" stroke-width="2" d="M687.25,-75.74C692.03,-74.39 696.86,-73.11 701.5,-72 794.34,-49.73 905.51,-32.38 962.22,-24.18"/>
<polygon fill="grey" stroke="grey" stroke-width="2" points="962.76,-27.64 972.16,-22.75 961.76,-20.71 962.76,-27.64"/>
</g>
<!-- 33&#45;&gt;32 -->
<g id="edge49" class="edge">
<title>33&#45;&gt;32</title>
<path fill="none" stroke="grey" stroke-width="2" d="M193.99,-146.42C196.84,-145.52 199.7,-144.7 202.5,-144 341.21,-109.25 510.23,-97.06 593.72,-92.96"/>
<polygon fill="grey" stroke="grey" stroke-width="2" points="594.13,-96.44 603.95,-92.48 593.8,-89.45 594.13,-96.44"/>
</g>
<!-- 41 -->
<g id="node42" class="node">
<title>41</title>
<path fill="none" stroke="#d85656" stroke-width="2" d="M823,-108C823,-108 756,-108 756,-108 750,-108 744,-102 744,-96 744,-96 744,-84 744,-84 744,-78 750,-72 756,-72 756,-72 823,-72 823,-72 829,-72 835,-78 835,-84 835,-84 835,-96 835,-96 835,-102 829,-108 823,-108"/>
<text text-anchor="middle" x="789.5" y="-87.5" font-family="sans" font-size="10.00">aggregate_stats</text>
</g>
<!-- 33&#45;&gt;41 -->
<g id="edge67" class="edge">
<title>33&#45;&gt;41</title>
<path fill="none" stroke="grey" stroke-width="2" d="M193.39,-146.43C196.44,-145.51 199.5,-144.68 202.5,-144 416.78,-95.55 477.54,-135.59 695.5,-108 707.96,-106.42 721.28,-104.29 733.86,-102.07"/>
<polygon fill="grey" stroke="grey" stroke-width="2" points="734.53,-105.5 743.75,-100.28 733.29,-98.62 734.53,-105.5"/>
</g>
<!-- 34&#45;&gt;32 -->
<g id="edge50" class="edge">
<title>34&#45;&gt;32</title>
<path fill="none" stroke="grey" stroke-width="2" d="M977.99,-146.8C974.8,-145.78 971.62,-144.83 968.5,-144 866.78,-117.06 838.19,-125.87 734.5,-108 722.39,-105.91 709.38,-103.52 697.15,-101.19"/>
<polygon fill="grey" stroke="grey" stroke-width="2" points="697.58,-97.71 687.1,-99.27 696.26,-104.59 697.58,-97.71"/>
</g>
<!-- 34&#45;&gt;41 -->
<g id="edge70" class="edge">
<title>34&#45;&gt;41</title>
<path fill="none" stroke="grey" stroke-width="2" d="M977.86,-147.25C974.7,-146.12 971.56,-145.02 968.5,-144 916.56,-126.63 900.53,-124.83 844.83,-108.35"/>
<polygon fill="grey" stroke="grey" stroke-width="2" points="845.72,-104.97 835.14,-105.46 843.72,-111.67 845.72,-104.97"/>
</g>
<!-- 35 -->
<g id="node36" class="node">
<title>35</title>
<path fill="none" stroke="#b6d856" stroke-width="2" d="M924,-108C924,-108 865,-108 865,-108 859,-108 853,-102 853,-96 853,-96 853,-84 853,-84 853,-78 859,-72 865,-72 865,-72 924,-72 924,-72 930,-72 936,-78 936,-84 936,-84 936,-96 936,-96 936,-102 930,-108 924,-108"/>
<text text-anchor="middle" x="894.5" y="-93" font-family="sans" font-size="10.00">grouped_stats</text>
<text text-anchor="middle" x="894.5" y="-82" font-family="sans" font-size="10.00">group: B</text>
</g>
<!-- 35&#45;&gt;0 -->
<g id="edge8" class="edge">
<title>35&#45;&gt;0</title>
<path fill="none" stroke="grey" stroke-width="2" d="M920.19,-71.88C933.79,-62.81 950.67,-51.55 965.36,-41.76"/>
<polygon fill="grey" stroke="grey" stroke-width="2" points="967.34,-44.65 973.72,-36.19 963.45,-38.82 967.34,-44.65"/>
</g>
<!-- 36&#45;&gt;35 -->
<g id="edge55" class="edge">
<title>36&#45;&gt;35</title>
<path fill="none" stroke="grey" stroke-width="2" d="M482.69,-146.45C485.65,-145.53 488.6,-144.7 491.5,-144 641.23,-107.85 687.85,-139.7 843.06,-107.77"/>
<polygon fill="grey" stroke="grey" stroke-width="2" points="843.9,-111.17 852.96,-105.67 842.45,-104.32 843.9,-111.17"/>
</g>
<!-- 36&#45;&gt;41 -->
<g id="edge68" class="edge">
<title>36&#45;&gt;41</title>
<path fill="none" stroke="grey" stroke-width="2" d="M483.01,-146.52C485.86,-145.6 488.71,-144.75 491.5,-144 594.86,-116.39 624.94,-130.63 729.5,-108 730.95,-107.69 732.43,-107.36 733.91,-107.01"/>
<polygon fill="grey" stroke="grey" stroke-width="2" points="734.91,-110.37 743.79,-104.59 733.24,-103.57 734.91,-110.37"/>
</g>
<!-- 37&#45;&gt;35 -->
<g id="edge56" class="edge">
<title>37&#45;&gt;35</title>
<path fill="none" stroke="grey" stroke-width="2" d="M1266.73,-146.64C1263.63,-145.66 1260.53,-144.77 1257.5,-144 1138.43,-113.86 1104.76,-127.53 983.5,-108 971.37,-106.05 958.35,-103.7 946.12,-101.39"/>
<polygon fill="grey" stroke="grey" stroke-width="2" points="946.55,-97.9 936.07,-99.46 945.23,-104.78 946.55,-97.9"/>
</g>
<!-- 37&#45;&gt;41 -->
<g id="edge71" class="edge">
<title>37&#45;&gt;41</title>
<path fill="none" stroke="grey" stroke-width="2" d="M1266.76,-146.48C1263.66,-145.55 1260.55,-144.7 1257.5,-144 1080.67,-103.35 1026.56,-142.52 845.14,-108.08"/>
<polygon fill="grey" stroke="grey" stroke-width="2" points="845.76,-104.64 835.28,-106.16 844.43,-111.51 845.76,-104.64"/>
</g>
<!-- 38 -->
<g id="node39" class="node">
<title>38</title>
<path fill="none" stroke="#b6d856" stroke-width="2" d="M1064,-108C1064,-108 1005,-108 1005,-108 999,-108 993,-102 993,-96 993,-96 993,-84 993,-84 993,-78 999,-72 1005,-72 1005,-72 1064,-72 1064,-72 1070,-72 1076,-78 1076,-84 1076,-84 1076,-96 1076,-96 1076,-102 1070,-108 1064,-108"/>
<text text-anchor="middle" x="1034.5" y="-93" font-family="sans" font-size="10.00">grouped_stats</text>
<text text-anchor="middle" x="1034.5" y="-82" font-family="sans" font-size="10.00">group: C</text>
</g>
<!-- 38&#45;&gt;0 -->
<g id="edge9" class="edge">
<title>38&#45;&gt;0</title>
<path fill="none" stroke="grey" stroke-width="2" d="M1025.85,-71.7C1021.86,-63.73 1017.05,-54.1 1012.63,-45.26"/>
<polygon fill="grey" stroke="grey" stroke-width="2" points="1015.65,-43.48 1008.05,-36.1 1009.39,-46.61 1015.65,-43.48"/>
</g>
<!-- 39&#45;&gt;38 -->
<g id="edge61" class="edge">
<title>39&#45;&gt;38</title>
<path fill="none" stroke="grey" stroke-width="2" d="M772.04,-146.61C774.88,-145.67 777.72,-144.79 780.5,-144 866.56,-119.64 891.56,-129.03 978.5,-108 979.95,-107.65 981.42,-107.28 982.9,-106.9"/>
<polygon fill="grey" stroke="grey" stroke-width="2" points="984.01,-110.23 992.75,-104.25 982.18,-103.47 984.01,-110.23"/>
</g>
<!-- 39&#45;&gt;41 -->
<g id="edge69" class="edge">
<title>39&#45;&gt;41</title>
<path fill="none" stroke="grey" stroke-width="2" d="M744.48,-146.32C751.83,-137.29 760.97,-126.05 769.1,-116.07"/>
<polygon fill="grey" stroke="grey" stroke-width="2" points="772.02,-118.02 775.62,-108.06 766.59,-113.61 772.02,-118.02"/>
</g>
<!-- 40&#45;&gt;38 -->
<g id="edge62" class="edge">
<title>40&#45;&gt;38</title>
<path fill="none" stroke="grey" stroke-width="2" d="M1555.75,-146.54C1552.65,-145.59 1549.54,-144.73 1546.5,-144 1381.45,-104.63 1179.56,-94.5 1086.29,-91.9"/>
<polygon fill="grey" stroke="grey" stroke-width="2" points="1086.35,-88.4 1076.26,-91.64 1086.17,-95.4 1086.35,-88.4"/>
</g>
<!-- 40&#45;&gt;41 -->
<g id="edge72" class="edge">
<title>40&#45;&gt;41</title>
<path fill="none" stroke="grey" stroke-width="2" d="M1556.07,-146.44C1552.87,-145.5 1549.65,-144.67 1546.5,-144 1243.69,-80.03 1153.34,-161.63 845.37,-108.07"/>
<polygon fill="grey" stroke="grey" stroke-width="2" points="845.72,-104.57 835.26,-106.27 844.49,-111.47 845.72,-104.57"/>
</g>
<!-- 41&#45;&gt;0 -->
<g id="edge10" class="edge">
<title>41&#45;&gt;0</title>
<path fill="none" stroke="grey" stroke-width="2" d="M835.07,-73.81C873.33,-61.06 927.29,-43.07 962.81,-31.23"/>
<polygon fill="grey" stroke="grey" stroke-width="2" points="963.94,-34.54 972.32,-28.06 961.72,-27.9 963.94,-34.54"/>
</g>
<!-- 42 -->
<g id="node43" class="node">
<title>42</title>
<path fill="none" stroke="#56d87b" stroke-width="2" d="M2018,-108C2018,-108 1977,-108 1977,-108 1971,-108 1965,-102 1965,-96 1965,-96 1965,-84 1965,-84 1965,-78 1971,-72 1977,-72 1977,-72 2018,-72 2018,-72 2024,-72 2030,-78 2030,-84 2030,-84 2030,-96 2030,-96 2030,-102 2024,-108 2018,-108"/>
<text text-anchor="middle" x="1997.5" y="-87.5" font-family="sans" font-size="10.00">multiqc_all</text>
</g>
<!-- 42&#45;&gt;0 -->
<g id="edge11" class="edge">
<title>42&#45;&gt;0</title>
<path fill="none" stroke="grey" stroke-width="2" d="M1964.86,-86.71C1815.28,-76.22 1195.75,-32.76 1036.8,-21.62"/>
<polygon fill="grey" stroke="grey" stroke-width="2" points="1036.8,-18.11 1026.58,-20.9 1036.31,-25.09 1036.8,-18.11"/>
</g>
<!-- 43&#45;&gt;42 -->
<g id="edge73" class="edge">
<title>43&#45;&gt;42</title>
<path fill="none" stroke="grey" stroke-width="2" d="M271.3,-146.69C274.02,-145.63 276.77,-144.7 279.5,-144 363.04,-122.45 1698.02,-96.58 1954.92,-91.78"/>
<polygon fill="grey" stroke="grey" stroke-width="2" points="1955.04,-95.28 1964.97,-91.6 1954.91,-88.28 1955.04,-95.28"/>
</g>
<!-- 44&#45;&gt;42 -->
<g id="edge74" class="edge">
<title>44&#45;&gt;42</title>
<path fill="none" stroke="grey" stroke-width="2" d="M560.31,-146.71C563.02,-145.64 565.77,-144.71 568.5,-144 705.35,-108.24 1730.99,-94.15 1954.55,-91.48"/>
<polygon fill="grey" stroke="grey" stroke-width="2" points="1954.93,-94.98 1964.88,-91.36 1954.84,-87.98 1954.93,-94.98"/>
</g>
<!-- 45&#45;&gt;42 -->
<g id="edge75" class="edge">
<title>45&#45;&gt;42</title>
<path fill="none" stroke="grey" stroke-width="2" d="M849.31,-146.74C852.03,-145.66 854.78,-144.73 857.5,-144 1070.32,-87.32 1773.28,-89.11 1954.55,-90.57"/>
<polygon fill="grey" stroke="grey" stroke-width="2" points="1954.73,-94.07 1964.75,-90.65 1954.78,-87.07 1954.73,-94.07"/>
</g>
<!-- 46&#45;&gt;42 -->
<g id="edge76" class="edge">
<title>46&#45;&gt;42</title>
<path fill="none" stroke="grey" stroke-width="2" d="M1138.33,-146.79C1141.04,-145.7 1143.78,-144.75 1146.5,-144 1301.23,-101.48 1804.21,-92.97 1954.63,-91.36"/>
<polygon fill="grey" stroke="grey" stroke-width="2" points="1954.88,-94.85 1964.84,-91.25 1954.8,-87.86 1954.88,-94.85"/>
</g>
<!-- 47&#45;&gt;42 -->
<g id="edge77" class="edge">
<title>47&#45;&gt;42</title>
<path fill="none" stroke="grey" stroke-width="2" d="M1427.35,-146.88C1430.06,-145.77 1432.8,-144.79 1435.5,-144 1533,-115.53 1841.05,-98.42 1954.77,-92.94"/>
<polygon fill="grey" stroke="grey" stroke-width="2" points="1955.02,-96.43 1964.85,-92.46 1954.69,-89.44 1955.02,-96.43"/>
</g>
<!-- 48&#45;&gt;42 -->
<g id="edge78" class="edge">
<title>48&#45;&gt;42</title>
<path fill="none" stroke="grey" stroke-width="2" d="M1716.02,-147.35C1718.84,-146.11 1721.7,-144.97 1724.5,-144 1803.37,-116.72 1900.2,-102.12 1954.78,-95.51"/>
<polygon fill="grey" stroke="grey" stroke-width="2" points="1955.26,-98.98 1964.79,-94.33 1954.45,-92.02 1955.26,-98.98"/>
</g>
<!-- 49 -->
<g id="node50" class="node">
<title>49</title>
<path fill="none" stroke="#56d8b9" stroke-width="2" d="M1813,-182.5C1813,-182.5 1746,-182.5 1746,-182.5 1740,-182.5 1734,-176.5 1734,-170.5 1734,-170.5 1734,-158.5 1734,-158.5 1734,-152.5 1740,-146.5 1746,-146.5 1746,-146.5 1813,-146.5 1813,-146.5 1819,-146.5 1825,-152.5 1825,-158.5 1825,-158.5 1825,-170.5 1825,-170.5 1825,-176.5 1819,-182.5 1813,-182.5"/>
<text text-anchor="middle" x="1779.5" y="-167.5" font-family="sans" font-size="10.00">run_coocked_qc</text>
<text text-anchor="middle" x="1779.5" y="-156.5" font-family="sans" font-size="10.00">read: fq1</text>
</g>
<!-- 49&#45;&gt;42 -->
<g id="edge79" class="edge">
<title>49&#45;&gt;42</title>
<path fill="none" stroke="grey" stroke-width="2" d="M1825.13,-146.9C1827.96,-145.91 1830.76,-144.94 1833.5,-144 1874.55,-129.96 1921.71,-114.82 1954.89,-104.33"/>
<polygon fill="grey" stroke="grey" stroke-width="2" points="1956.24,-107.58 1964.72,-101.23 1954.13,-100.9 1956.24,-107.58"/>
</g>
<!-- 50 -->
<g id="node51" class="node">
<title>50</title>
<path fill="none" stroke="#567bd8" stroke-width="2" d="M1843.5,-257C1843.5,-257 1737.5,-257 1737.5,-257 1731.5,-257 1725.5,-251 1725.5,-245 1725.5,-245 1725.5,-233 1725.5,-233 1725.5,-227 1731.5,-221 1737.5,-221 1737.5,-221 1843.5,-221 1843.5,-221 1849.5,-221 1855.5,-227 1855.5,-233 1855.5,-233 1855.5,-245 1855.5,-245 1855.5,-251 1849.5,-257 1843.5,-257"/>
<text text-anchor="middle" x="1790.5" y="-242" font-family="sans" font-size="10.00">trimmomatic</text>
<text text-anchor="middle" x="1790.5" y="-231" font-family="sans" font-size="10.00">sample: ERR024604_tiny</text>
</g>
<!-- 50&#45;&gt;49 -->
<g id="edge103" class="edge">
<title>50&#45;&gt;49</title>
<path fill="none" stroke="grey" stroke-width="2" d="M1787.89,-220.82C1786.62,-212.42 1785.06,-202.12 1783.62,-192.69"/>
<polygon fill="grey" stroke="grey" stroke-width="2" points="1787.05,-191.92 1782.09,-182.56 1780.13,-192.97 1787.05,-191.92"/>
</g>
<!-- 51 -->
<g id="node52" class="node">
<title>51</title>
<path fill="none" stroke="#56d8b9" stroke-width="2" d="M1922,-182.5C1922,-182.5 1855,-182.5 1855,-182.5 1849,-182.5 1843,-176.5 1843,-170.5 1843,-170.5 1843,-158.5 1843,-158.5 1843,-152.5 1849,-146.5 1855,-146.5 1855,-146.5 1922,-146.5 1922,-146.5 1928,-146.5 1934,-152.5 1934,-158.5 1934,-158.5 1934,-170.5 1934,-170.5 1934,-176.5 1928,-182.5 1922,-182.5"/>
<text text-anchor="middle" x="1888.5" y="-167.5" font-family="sans" font-size="10.00">run_coocked_qc</text>
<text text-anchor="middle" x="1888.5" y="-156.5" font-family="sans" font-size="10.00">read: fq2</text>
</g>
<!-- 50&#45;&gt;51 -->
<g id="edge104" class="edge">
<title>50&#45;&gt;51</title>
<path fill="none" stroke="grey" stroke-width="2" d="M1813.72,-220.82C1826.66,-211.25 1842.95,-199.2 1857.02,-188.79"/>
<polygon fill="grey" stroke="grey" stroke-width="2" points="1859.48,-191.32 1865.44,-182.56 1855.32,-185.69 1859.48,-191.32"/>
</g>
<!-- 51&#45;&gt;42 -->
<g id="edge80" class="edge">
<title>51&#45;&gt;42</title>
<path fill="none" stroke="grey" stroke-width="2" d="M1914.33,-146.32C1928.99,-136.57 1947.52,-124.24 1963.37,-113.7"/>
<polygon fill="grey" stroke="grey" stroke-width="2" points="1965.47,-116.51 1971.85,-108.06 1961.59,-110.68 1965.47,-116.51"/>
</g>
<!-- 52 -->
<g id="node53" class="node">
<title>52</title>
<path fill="none" stroke="#56d8b9" stroke-width="2" d="M2031,-182.5C2031,-182.5 1964,-182.5 1964,-182.5 1958,-182.5 1952,-176.5 1952,-170.5 1952,-170.5 1952,-158.5 1952,-158.5 1952,-152.5 1958,-146.5 1964,-146.5 1964,-146.5 2031,-146.5 2031,-146.5 2037,-146.5 2043,-152.5 2043,-158.5 2043,-158.5 2043,-170.5 2043,-170.5 2043,-176.5 2037,-182.5 2031,-182.5"/>
<text text-anchor="middle" x="1997.5" y="-167.5" font-family="sans" font-size="10.00">run_coocked_qc</text>
<text text-anchor="middle" x="1997.5" y="-156.5" font-family="sans" font-size="10.00">read: fq1</text>
</g>
<!-- 52&#45;&gt;42 -->
<g id="edge81" class="edge">
<title>52&#45;&gt;42</title>
<path fill="none" stroke="grey" stroke-width="2" d="M1997.5,-146.32C1997.5,-137.92 1997.5,-127.62 1997.5,-118.19"/>
<polygon fill="grey" stroke="grey" stroke-width="2" points="2001,-118.06 1997.5,-108.06 1994,-118.06 2001,-118.06"/>
</g>
<!-- 53 -->
<g id="node54" class="node">
<title>53</title>
<path fill="none" stroke="#567bd8" stroke-width="2" d="M2085.5,-257C2085.5,-257 1979.5,-257 1979.5,-257 1973.5,-257 1967.5,-251 1967.5,-245 1967.5,-245 1967.5,-233 1967.5,-233 1967.5,-227 1973.5,-221 1979.5,-221 1979.5,-221 2085.5,-221 2085.5,-221 2091.5,-221 2097.5,-227 2097.5,-233 2097.5,-233 2097.5,-245 2097.5,-245 2097.5,-251 2091.5,-257 2085.5,-257"/>
<text text-anchor="middle" x="2032.5" y="-242" font-family="sans" font-size="10.00">trimmomatic</text>
<text text-anchor="middle" x="2032.5" y="-231" font-family="sans" font-size="10.00">sample: ERR024605_tiny</text>
</g>
<!-- 53&#45;&gt;52 -->
<g id="edge105" class="edge">
<title>53&#45;&gt;52</title>
<path fill="none" stroke="grey" stroke-width="2" d="M2024.21,-220.82C2020.02,-212.15 2014.85,-201.45 2010.18,-191.78"/>
<polygon fill="grey" stroke="grey" stroke-width="2" points="2013.23,-190.04 2005.73,-182.56 2006.93,-193.09 2013.23,-190.04"/>
</g>
<!-- 54 -->
<g id="node55" class="node">
<title>54</title>
<path fill="none" stroke="#56d8b9" stroke-width="2" d="M2140,-182.5C2140,-182.5 2073,-182.5 2073,-182.5 2067,-182.5 2061,-176.5 2061,-170.5 2061,-170.5 2061,-158.5 2061,-158.5 2061,-152.5 2067,-146.5 2073,-146.5 2073,-146.5 2140,-146.5 2140,-146.5 2146,-146.5 2152,-152.5 2152,-158.5 2152,-158.5 2152,-170.5 2152,-170.5 2152,-176.5 2146,-182.5 2140,-182.5"/>
<text text-anchor="middle" x="2106.5" y="-167.5" font-family="sans" font-size="10.00">run_coocked_qc</text>
<text text-anchor="middle" x="2106.5" y="-156.5" font-family="sans" font-size="10.00">read: fq2</text>
</g>
<!-- 53&#45;&gt;54 -->
<g id="edge106" class="edge">
<title>53&#45;&gt;54</title>
<path fill="none" stroke="grey" stroke-width="2" d="M2050.04,-220.82C2059.53,-211.52 2071.41,-199.88 2081.82,-189.68"/>
<polygon fill="grey" stroke="grey" stroke-width="2" points="2084.4,-192.06 2089.09,-182.56 2079.5,-187.06 2084.4,-192.06"/>
</g>
<!-- 54&#45;&gt;42 -->
<g id="edge82" class="edge">
<title>54&#45;&gt;42</title>
<path fill="none" stroke="grey" stroke-width="2" d="M2080.67,-146.32C2066.01,-136.57 2047.48,-124.24 2031.63,-113.7"/>
<polygon fill="grey" stroke="grey" stroke-width="2" points="2033.41,-110.68 2023.15,-108.06 2029.53,-116.51 2033.41,-110.68"/>
</g>
<!-- 55 -->
<g id="node56" class="node">
<title>55</title>
<path fill="none" stroke="#56d8b9" stroke-width="2" d="M2249,-182.5C2249,-182.5 2182,-182.5 2182,-182.5 2176,-182.5 2170,-176.5 2170,-170.5 2170,-170.5 2170,-158.5 2170,-158.5 2170,-152.5 2176,-146.5 2182,-146.5 2182,-146.5 2249,-146.5 2249,-146.5 2255,-146.5 2261,-152.5 2261,-158.5 2261,-158.5 2261,-170.5 2261,-170.5 2261,-176.5 2255,-182.5 2249,-182.5"/>
<text text-anchor="middle" x="2215.5" y="-167.5" font-family="sans" font-size="10.00">run_coocked_qc</text>
<text text-anchor="middle" x="2215.5" y="-156.5" font-family="sans" font-size="10.00">read: fq1</text>
</g>
<!-- 55&#45;&gt;42 -->
<g id="edge83" class="edge">
<title>55&#45;&gt;42</title>
<path fill="none" stroke="grey" stroke-width="2" d="M2169.91,-147.23C2166.73,-146.13 2163.57,-145.04 2160.5,-144 2119.65,-130.12 2072.78,-114.96 2039.82,-104.42"/>
<polygon fill="grey" stroke="grey" stroke-width="2" points="2040.65,-101.01 2030.06,-101.31 2038.52,-107.68 2040.65,-101.01"/>
</g>
<!-- 56 -->
<g id="node57" class="node">
<title>56</title>
<path fill="none" stroke="#567bd8" stroke-width="2" d="M2303.5,-257C2303.5,-257 2197.5,-257 2197.5,-257 2191.5,-257 2185.5,-251 2185.5,-245 2185.5,-245 2185.5,-233 2185.5,-233 2185.5,-227 2191.5,-221 2197.5,-221 2197.5,-221 2303.5,-221 2303.5,-221 2309.5,-221 2315.5,-227 2315.5,-233 2315.5,-233 2315.5,-245 2315.5,-245 2315.5,-251 2309.5,-257 2303.5,-257"/>
<text text-anchor="middle" x="2250.5" y="-242" font-family="sans" font-size="10.00">trimmomatic</text>
<text text-anchor="middle" x="2250.5" y="-231" font-family="sans" font-size="10.00">sample: ERR024606_tiny</text>
</g>
<!-- 56&#45;&gt;55 -->
<g id="edge107" class="edge">
<title>56&#45;&gt;55</title>
<path fill="none" stroke="grey" stroke-width="2" d="M2242.21,-220.82C2238.02,-212.15 2232.85,-201.45 2228.18,-191.78"/>
<polygon fill="grey" stroke="grey" stroke-width="2" points="2231.23,-190.04 2223.73,-182.56 2224.93,-193.09 2231.23,-190.04"/>
</g>
<!-- 57 -->
<g id="node58" class="node">
<title>57</title>
<path fill="none" stroke="#56d8b9" stroke-width="2" d="M2358,-182.5C2358,-182.5 2291,-182.5 2291,-182.5 2285,-182.5 2279,-176.5 2279,-170.5 2279,-170.5 2279,-158.5 2279,-158.5 2279,-152.5 2285,-146.5 2291,-146.5 2291,-146.5 2358,-146.5 2358,-146.5 2364,-146.5 2370,-152.5 2370,-158.5 2370,-158.5 2370,-170.5 2370,-170.5 2370,-176.5 2364,-182.5 2358,-182.5"/>
<text text-anchor="middle" x="2324.5" y="-167.5" font-family="sans" font-size="10.00">run_coocked_qc</text>
<text text-anchor="middle" x="2324.5" y="-156.5" font-family="sans" font-size="10.00">read: fq2</text>
</g>
<!-- 56&#45;&gt;57 -->
<g id="edge108" class="edge">
<title>56&#45;&gt;57</title>
<path fill="none" stroke="grey" stroke-width="2" d="M2268.04,-220.82C2277.53,-211.52 2289.41,-199.88 2299.82,-189.68"/>
<polygon fill="grey" stroke="grey" stroke-width="2" points="2302.4,-192.06 2307.09,-182.56 2297.5,-187.06 2302.4,-192.06"/>
</g>
<!-- 57&#45;&gt;42 -->
<g id="edge84" class="edge">
<title>57&#45;&gt;42</title>
<path fill="none" stroke="grey" stroke-width="2" d="M2278.75,-146.71C2275.63,-145.74 2272.53,-144.83 2269.5,-144 2189.49,-122.15 2093.9,-105.69 2039.99,-97.28"/>
<polygon fill="grey" stroke="grey" stroke-width="2" points="2040.52,-93.82 2030.1,-95.75 2039.45,-100.73 2040.52,-93.82"/>
</g>
<!-- 58 -->
<g id="node59" class="node">
<title>58</title>
<path fill="none" stroke="#56d8b9" stroke-width="2" d="M2467,-182.5C2467,-182.5 2400,-182.5 2400,-182.5 2394,-182.5 2388,-176.5 2388,-170.5 2388,-170.5 2388,-158.5 2388,-158.5 2388,-152.5 2394,-146.5 2400,-146.5 2400,-146.5 2467,-146.5 2467,-146.5 2473,-146.5 2479,-152.5 2479,-158.5 2479,-158.5 2479,-170.5 2479,-170.5 2479,-176.5 2473,-182.5 2467,-182.5"/>
<text text-anchor="middle" x="2433.5" y="-167.5" font-family="sans" font-size="10.00">run_coocked_qc</text>
<text text-anchor="middle" x="2433.5" y="-156.5" font-family="sans" font-size="10.00">read: fq1</text>
</g>
<!-- 58&#45;&gt;42 -->
<g id="edge85" class="edge">
<title>58&#45;&gt;42</title>
<path fill="none" stroke="grey" stroke-width="2" d="M2387.79,-146.51C2384.67,-145.6 2381.55,-144.74 2378.5,-144 2257.86,-114.54 2111.45,-99.92 2040.37,-94.12"/>
<polygon fill="grey" stroke="grey" stroke-width="2" points="2040.27,-90.6 2030.03,-93.29 2039.72,-97.58 2040.27,-90.6"/>
</g>
<!-- 59 -->
<g id="node60" class="node">
<title>59</title>
<path fill="none" stroke="#567bd8" stroke-width="2" d="M2521.5,-257C2521.5,-257 2415.5,-257 2415.5,-257 2409.5,-257 2403.5,-251 2403.5,-245 2403.5,-245 2403.5,-233 2403.5,-233 2403.5,-227 2409.5,-221 2415.5,-221 2415.5,-221 2521.5,-221 2521.5,-221 2527.5,-221 2533.5,-227 2533.5,-233 2533.5,-233 2533.5,-245 2533.5,-245 2533.5,-251 2527.5,-257 2521.5,-257"/>
<text text-anchor="middle" x="2468.5" y="-242" font-family="sans" font-size="10.00">trimmomatic</text>
<text text-anchor="middle" x="2468.5" y="-231" font-family="sans" font-size="10.00">sample: ERR024607_tiny</text>
</g>
<!-- 59&#45;&gt;58 -->
<g id="edge109" class="edge">
<title>59&#45;&gt;58</title>
<path fill="none" stroke="grey" stroke-width="2" d="M2460.21,-220.82C2456.02,-212.15 2450.85,-201.45 2446.18,-191.78"/>
<polygon fill="grey" stroke="grey" stroke-width="2" points="2449.23,-190.04 2441.73,-182.56 2442.93,-193.09 2449.23,-190.04"/>
</g>
<!-- 60 -->
<g id="node61" class="node">
<title>60</title>
<path fill="none" stroke="#56d8b9" stroke-width="2" d="M2576,-182.5C2576,-182.5 2509,-182.5 2509,-182.5 2503,-182.5 2497,-176.5 2497,-170.5 2497,-170.5 2497,-158.5 2497,-158.5 2497,-152.5 2503,-146.5 2509,-146.5 2509,-146.5 2576,-146.5 2576,-146.5 2582,-146.5 2588,-152.5 2588,-158.5 2588,-158.5 2588,-170.5 2588,-170.5 2588,-176.5 2582,-182.5 2576,-182.5"/>
<text text-anchor="middle" x="2542.5" y="-167.5" font-family="sans" font-size="10.00">run_coocked_qc</text>
<text text-anchor="middle" x="2542.5" y="-156.5" font-family="sans" font-size="10.00">read: fq2</text>
</g>
<!-- 59&#45;&gt;60 -->
<g id="edge110" class="edge">
<title>59&#45;&gt;60</title>
<path fill="none" stroke="grey" stroke-width="2" d="M2486.04,-220.82C2495.53,-211.52 2507.41,-199.88 2517.82,-189.68"/>
<polygon fill="grey" stroke="grey" stroke-width="2" points="2520.4,-192.06 2525.09,-182.56 2515.5,-187.06 2520.4,-192.06"/>
</g>
<!-- 60&#45;&gt;42 -->
<g id="edge86" class="edge">
<title>60&#45;&gt;42</title>
<path fill="none" stroke="grey" stroke-width="2" d="M2497.12,-146.49C2493.89,-145.57 2490.66,-144.72 2487.5,-144 2324.93,-106.92 2125.93,-95.58 2040.16,-92.28"/>
<polygon fill="grey" stroke="grey" stroke-width="2" points="2040.16,-88.78 2030.03,-91.91 2039.9,-95.77 2040.16,-88.78"/>
</g>
<!-- 61 -->
<g id="node62" class="node">
<title>61</title>
<path fill="none" stroke="#56d8b9" stroke-width="2" d="M2685,-182.5C2685,-182.5 2618,-182.5 2618,-182.5 2612,-182.5 2606,-176.5 2606,-170.5 2606,-170.5 2606,-158.5 2606,-158.5 2606,-152.5 2612,-146.5 2618,-146.5 2618,-146.5 2685,-146.5 2685,-146.5 2691,-146.5 2697,-152.5 2697,-158.5 2697,-158.5 2697,-170.5 2697,-170.5 2697,-176.5 2691,-182.5 2685,-182.5"/>
<text text-anchor="middle" x="2651.5" y="-167.5" font-family="sans" font-size="10.00">run_coocked_qc</text>
<text text-anchor="middle" x="2651.5" y="-156.5" font-family="sans" font-size="10.00">read: fq1</text>
</g>
<!-- 61&#45;&gt;42 -->
<g id="edge87" class="edge">
<title>61&#45;&gt;42</title>
<path fill="none" stroke="grey" stroke-width="2" d="M2606.14,-146.42C2602.9,-145.51 2599.67,-144.69 2596.5,-144 2391.54,-99.35 2139.31,-92.14 2040.28,-91.1"/>
<polygon fill="grey" stroke="grey" stroke-width="2" points="2040.1,-87.6 2030.07,-91.01 2040.04,-94.6 2040.1,-87.6"/>
</g>
<!-- 62 -->
<g id="node63" class="node">
<title>62</title>
<path fill="none" stroke="#567bd8" stroke-width="2" d="M2739.5,-257C2739.5,-257 2633.5,-257 2633.5,-257 2627.5,-257 2621.5,-251 2621.5,-245 2621.5,-245 2621.5,-233 2621.5,-233 2621.5,-227 2627.5,-221 2633.5,-221 2633.5,-221 2739.5,-221 2739.5,-221 2745.5,-221 2751.5,-227 2751.5,-233 2751.5,-233 2751.5,-245 2751.5,-245 2751.5,-251 2745.5,-257 2739.5,-257"/>
<text text-anchor="middle" x="2686.5" y="-242" font-family="sans" font-size="10.00">trimmomatic</text>
<text text-anchor="middle" x="2686.5" y="-231" font-family="sans" font-size="10.00">sample: ERR024608_tiny</text>
</g>
<!-- 62&#45;&gt;61 -->
<g id="edge111" class="edge">
<title>62&#45;&gt;61</title>
<path fill="none" stroke="grey" stroke-width="2" d="M2678.21,-220.82C2674.02,-212.15 2668.85,-201.45 2664.18,-191.78"/>
<polygon fill="grey" stroke="grey" stroke-width="2" points="2667.23,-190.04 2659.73,-182.56 2660.93,-193.09 2667.23,-190.04"/>
</g>
<!-- 63 -->
<g id="node64" class="node">
<title>63</title>
<path fill="none" stroke="#56d8b9" stroke-width="2" d="M2794,-182.5C2794,-182.5 2727,-182.5 2727,-182.5 2721,-182.5 2715,-176.5 2715,-170.5 2715,-170.5 2715,-158.5 2715,-158.5 2715,-152.5 2721,-146.5 2727,-146.5 2727,-146.5 2794,-146.5 2794,-146.5 2800,-146.5 2806,-152.5 2806,-158.5 2806,-158.5 2806,-170.5 2806,-170.5 2806,-176.5 2800,-182.5 2794,-182.5"/>
<text text-anchor="middle" x="2760.5" y="-167.5" font-family="sans" font-size="10.00">run_coocked_qc</text>
<text text-anchor="middle" x="2760.5" y="-156.5" font-family="sans" font-size="10.00">read: fq2</text>
</g>
<!-- 62&#45;&gt;63 -->
<g id="edge112" class="edge">
<title>62&#45;&gt;63</title>
<path fill="none" stroke="grey" stroke-width="2" d="M2704.04,-220.82C2713.53,-211.52 2725.41,-199.88 2735.82,-189.68"/>
<polygon fill="grey" stroke="grey" stroke-width="2" points="2738.4,-192.06 2743.09,-182.56 2733.5,-187.06 2738.4,-192.06"/>
</g>
<!-- 63&#45;&gt;42 -->
<g id="edge88" class="edge">
<title>63&#45;&gt;42</title>
<path fill="none" stroke="grey" stroke-width="2" d="M2715.45,-146.46C2712.11,-145.53 2708.77,-144.69 2705.5,-144 2457.5,-91.73 2151.14,-89.24 2040.16,-90.28"/>
<polygon fill="grey" stroke="grey" stroke-width="2" points="2040,-86.78 2030.04,-90.39 2040.07,-93.78 2040,-86.78"/>
</g>
<!-- 64 -->
<g id="node65" class="node">
<title>64</title>
<path fill="none" stroke="#56d8b9" stroke-width="2" d="M2903,-182.5C2903,-182.5 2836,-182.5 2836,-182.5 2830,-182.5 2824,-176.5 2824,-170.5 2824,-170.5 2824,-158.5 2824,-158.5 2824,-152.5 2830,-146.5 2836,-146.5 2836,-146.5 2903,-146.5 2903,-146.5 2909,-146.5 2915,-152.5 2915,-158.5 2915,-158.5 2915,-170.5 2915,-170.5 2915,-176.5 2909,-182.5 2903,-182.5"/>
<text text-anchor="middle" x="2869.5" y="-167.5" font-family="sans" font-size="10.00">run_coocked_qc</text>
<text text-anchor="middle" x="2869.5" y="-156.5" font-family="sans" font-size="10.00">read: fq1</text>
</g>
<!-- 64&#45;&gt;42 -->
<g id="edge89" class="edge">
<title>64&#45;&gt;42</title>
<path fill="none" stroke="grey" stroke-width="2" d="M2824.46,-146.42C2821.12,-145.5 2817.77,-144.67 2814.5,-144 2664.24,-113.11 2186.55,-96.63 2040.4,-92.22"/>
<polygon fill="grey" stroke="grey" stroke-width="2" points="2040.16,-88.71 2030.06,-91.91 2039.95,-95.71 2040.16,-88.71"/>
</g>
<!-- 65 -->
<g id="node66" class="node">
<title>65</title>
<path fill="none" stroke="#567bd8" stroke-width="2" d="M2976.5,-257C2976.5,-257 2870.5,-257 2870.5,-257 2864.5,-257 2858.5,-251 2858.5,-245 2858.5,-245 2858.5,-233 2858.5,-233 2858.5,-227 2864.5,-221 2870.5,-221 2870.5,-221 2976.5,-221 2976.5,-221 2982.5,-221 2988.5,-227 2988.5,-233 2988.5,-233 2988.5,-245 2988.5,-245 2988.5,-251 2982.5,-257 2976.5,-257"/>
<text text-anchor="middle" x="2923.5" y="-242" font-family="sans" font-size="10.00">trimmomatic</text>
<text text-anchor="middle" x="2923.5" y="-231" font-family="sans" font-size="10.00">sample: ERR024609_tiny</text>
</g>
<!-- 65&#45;&gt;64 -->
<g id="edge113" class="edge">
<title>65&#45;&gt;64</title>
<path fill="none" stroke="grey" stroke-width="2" d="M2910.7,-220.82C2904.04,-211.88 2895.78,-200.78 2888.4,-190.87"/>
<polygon fill="grey" stroke="grey" stroke-width="2" points="2890.99,-188.49 2882.21,-182.56 2885.37,-192.67 2890.99,-188.49"/>
</g>
<!-- 66 -->
<g id="node67" class="node">
<title>66</title>
<path fill="none" stroke="#56d8b9" stroke-width="2" d="M3012,-182.5C3012,-182.5 2945,-182.5 2945,-182.5 2939,-182.5 2933,-176.5 2933,-170.5 2933,-170.5 2933,-158.5 2933,-158.5 2933,-152.5 2939,-146.5 2945,-146.5 2945,-146.5 3012,-146.5 3012,-146.5 3018,-146.5 3024,-152.5 3024,-158.5 3024,-158.5 3024,-170.5 3024,-170.5 3024,-176.5 3018,-182.5 3012,-182.5"/>
<text text-anchor="middle" x="2978.5" y="-167.5" font-family="sans" font-size="10.00">run_coocked_qc</text>
<text text-anchor="middle" x="2978.5" y="-156.5" font-family="sans" font-size="10.00">read: fq2</text>
</g>
<!-- 65&#45;&gt;66 -->
<g id="edge114" class="edge">
<title>65&#45;&gt;66</title>
<path fill="none" stroke="grey" stroke-width="2" d="M2936.53,-220.82C2943.38,-211.79 2951.91,-200.55 2959.48,-190.57"/>
<polygon fill="grey" stroke="grey" stroke-width="2" points="2962.3,-192.64 2965.56,-182.56 2956.73,-188.41 2962.3,-192.64"/>
</g>
<!-- 66&#45;&gt;42 -->
<g id="edge90" class="edge">
<title>66&#45;&gt;42</title>
<path fill="none" stroke="grey" stroke-width="2" d="M2933.77,-146.48C2930.33,-145.52 2926.88,-144.68 2923.5,-144 2751.26,-109.27 2199.73,-95.24 2040.76,-91.85"/>
<polygon fill="grey" stroke="grey" stroke-width="2" points="2040.51,-88.35 2030.44,-91.64 2040.36,-95.35 2040.51,-88.35"/>
</g>
<!-- 67 -->
<g id="node68" class="node">
<title>67</title>
<path fill="none" stroke="#56d8d8" stroke-width="2" d="M3870,-108C3870,-108 3825,-108 3825,-108 3819,-108 3813,-102 3813,-96 3813,-96 3813,-84 3813,-84 3813,-78 3819,-72 3825,-72 3825,-72 3870,-72 3870,-72 3876,-72 3882,-78 3882,-84 3882,-84 3882,-96 3882,-96 3882,-102 3876,-108 3870,-108"/>
<text text-anchor="middle" x="3847.5" y="-87.5" font-family="sans" font-size="10.00">run_raw_qc</text>
</g>
<!-- 67&#45;&gt;0 -->
<g id="edge12" class="edge">
<title>67&#45;&gt;0</title>
<path fill="none" stroke="grey" stroke-width="2" d="M3812.77,-88.15C3511.84,-80.75 1349.1,-27.59 1036.99,-19.92"/>
<polygon fill="grey" stroke="grey" stroke-width="2" points="1036.76,-16.41 1026.68,-19.67 1036.59,-23.41 1036.76,-16.41"/>
</g>
<!-- 68 -->
<g id="node69" class="node">
<title>68</title>
<path fill="none" stroke="#56b9d8" stroke-width="2" d="M3160.5,-185C3160.5,-185 3054.5,-185 3054.5,-185 3048.5,-185 3042.5,-179 3042.5,-173 3042.5,-173 3042.5,-156 3042.5,-156 3042.5,-150 3048.5,-144 3054.5,-144 3054.5,-144 3160.5,-144 3160.5,-144 3166.5,-144 3172.5,-150 3172.5,-156 3172.5,-156 3172.5,-173 3172.5,-173 3172.5,-179 3166.5,-185 3160.5,-185"/>
<text text-anchor="middle" x="3107.5" y="-173" font-family="sans" font-size="10.00">run_raw_qc_per_file</text>
<text text-anchor="middle" x="3107.5" y="-162" font-family="sans" font-size="10.00">read: fq1</text>
<text text-anchor="middle" x="3107.5" y="-151" font-family="sans" font-size="10.00">sample: ERR024604_tiny</text>
</g>
<!-- 68&#45;&gt;67 -->
<g id="edge115" class="edge">
<title>68&#45;&gt;67</title>
<path fill="none" stroke="grey" stroke-width="2" d="M3172.73,-145.64C3175.69,-145.04 3178.62,-144.49 3181.5,-144 3413.06,-104.6 3695.02,-94.37 3802.75,-91.81"/>
<polygon fill="grey" stroke="grey" stroke-width="2" points="3803,-95.31 3812.92,-91.58 3802.84,-88.31 3803,-95.31"/>
</g>
<!-- 69 -->
<g id="node70" class="node">
<title>69</title>
<path fill="none" stroke="#56b9d8" stroke-width="2" d="M3308.5,-185C3308.5,-185 3202.5,-185 3202.5,-185 3196.5,-185 3190.5,-179 3190.5,-173 3190.5,-173 3190.5,-156 3190.5,-156 3190.5,-150 3196.5,-144 3202.5,-144 3202.5,-144 3308.5,-144 3308.5,-144 3314.5,-144 3320.5,-150 3320.5,-156 3320.5,-156 3320.5,-173 3320.5,-173 3320.5,-179 3314.5,-185 3308.5,-185"/>
<text text-anchor="middle" x="3255.5" y="-173" font-family="sans" font-size="10.00">run_raw_qc_per_file</text>
<text text-anchor="middle" x="3255.5" y="-162" font-family="sans" font-size="10.00">read: fq2</text>
<text text-anchor="middle" x="3255.5" y="-151" font-family="sans" font-size="10.00">sample: ERR024604_tiny</text>
</g>
<!-- 69&#45;&gt;67 -->
<g id="edge116" class="edge">
<title>69&#45;&gt;67</title>
<path fill="none" stroke="grey" stroke-width="2" d="M3320.75,-145.72C3323.7,-145.1 3326.62,-144.52 3329.5,-144 3502.96,-112.47 3712.77,-98.22 3802.86,-93.22"/>
<polygon fill="grey" stroke="grey" stroke-width="2" points="3803.2,-96.71 3812.99,-92.67 3802.82,-89.72 3803.2,-96.71"/>
</g>
<!-- 70 -->
<g id="node71" class="node">
<title>70</title>
<path fill="none" stroke="#56b9d8" stroke-width="2" d="M3456.5,-185C3456.5,-185 3350.5,-185 3350.5,-185 3344.5,-185 3338.5,-179 3338.5,-173 3338.5,-173 3338.5,-156 3338.5,-156 3338.5,-150 3344.5,-144 3350.5,-144 3350.5,-144 3456.5,-144 3456.5,-144 3462.5,-144 3468.5,-150 3468.5,-156 3468.5,-156 3468.5,-173 3468.5,-173 3468.5,-179 3462.5,-185 3456.5,-185"/>
<text text-anchor="middle" x="3403.5" y="-173" font-family="sans" font-size="10.00">run_raw_qc_per_file</text>
<text text-anchor="middle" x="3403.5" y="-162" font-family="sans" font-size="10.00">read: fq1</text>
<text text-anchor="middle" x="3403.5" y="-151" font-family="sans" font-size="10.00">sample: ERR024605_tiny</text>
</g>
<!-- 70&#45;&gt;67 -->
<g id="edge117" class="edge">
<title>70&#45;&gt;67</title>
<path fill="none" stroke="grey" stroke-width="2" d="M3468.77,-145.86C3471.72,-145.21 3474.64,-144.58 3477.5,-144 3593.8,-120.43 3732.74,-103.49 3802.63,-95.73"/>
<polygon fill="grey" stroke="grey" stroke-width="2" points="3803.28,-99.18 3812.84,-94.61 3802.52,-92.23 3803.28,-99.18"/>
</g>
<!-- 71 -->
<g id="node72" class="node">
<title>71</title>
<path fill="none" stroke="#56b9d8" stroke-width="2" d="M3604.5,-185C3604.5,-185 3498.5,-185 3498.5,-185 3492.5,-185 3486.5,-179 3486.5,-173 3486.5,-173 3486.5,-156 3486.5,-156 3486.5,-150 3492.5,-144 3498.5,-144 3498.5,-144 3604.5,-144 3604.5,-144 3610.5,-144 3616.5,-150 3616.5,-156 3616.5,-156 3616.5,-173 3616.5,-173 3616.5,-179 3610.5,-185 3604.5,-185"/>
<text text-anchor="middle" x="3551.5" y="-173" font-family="sans" font-size="10.00">run_raw_qc_per_file</text>
<text text-anchor="middle" x="3551.5" y="-162" font-family="sans" font-size="10.00">read: fq2</text>
<text text-anchor="middle" x="3551.5" y="-151" font-family="sans" font-size="10.00">sample: ERR024605_tiny</text>
</g>
<!-- 71&#45;&gt;67 -->
<g id="edge118" class="edge">
<title>71&#45;&gt;67</title>
<path fill="none" stroke="grey" stroke-width="2" d="M3616.85,-146.19C3619.77,-145.45 3622.67,-144.71 3625.5,-144 3686.83,-128.6 3757.95,-111.81 3802.84,-101.34"/>
<polygon fill="grey" stroke="grey" stroke-width="2" points="3803.89,-104.69 3812.83,-99.01 3802.3,-97.87 3803.89,-104.69"/>
</g>
<!-- 72 -->
<g id="node73" class="node">
<title>72</title>
<path fill="none" stroke="#56b9d8" stroke-width="2" d="M3752.5,-185C3752.5,-185 3646.5,-185 3646.5,-185 3640.5,-185 3634.5,-179 3634.5,-173 3634.5,-173 3634.5,-156 3634.5,-156 3634.5,-150 3640.5,-144 3646.5,-144 3646.5,-144 3752.5,-144 3752.5,-144 3758.5,-144 3764.5,-150 3764.5,-156 3764.5,-156 3764.5,-173 3764.5,-173 3764.5,-179 3758.5,-185 3752.5,-185"/>
<text text-anchor="middle" x="3699.5" y="-173" font-family="sans" font-size="10.00">run_raw_qc_per_file</text>
<text text-anchor="middle" x="3699.5" y="-162" font-family="sans" font-size="10.00">read: fq1</text>
<text text-anchor="middle" x="3699.5" y="-151" font-family="sans" font-size="10.00">sample: ERR024606_tiny</text>
</g>
<!-- 72&#45;&gt;67 -->
<g id="edge119" class="edge">
<title>72&#45;&gt;67</title>
<path fill="none" stroke="grey" stroke-width="2" d="M3739.55,-143.88C3759.45,-134.13 3783.52,-122.34 3803.88,-112.37"/>
<polygon fill="grey" stroke="grey" stroke-width="2" points="3805.51,-115.47 3812.95,-107.93 3802.43,-109.18 3805.51,-115.47"/>
</g>
<!-- 73 -->
<g id="node74" class="node">
<title>73</title>
<path fill="none" stroke="#56b9d8" stroke-width="2" d="M3900.5,-185C3900.5,-185 3794.5,-185 3794.5,-185 3788.5,-185 3782.5,-179 3782.5,-173 3782.5,-173 3782.5,-156 3782.5,-156 3782.5,-150 3788.5,-144 3794.5,-144 3794.5,-144 3900.5,-144 3900.5,-144 3906.5,-144 3912.5,-150 3912.5,-156 3912.5,-156 3912.5,-173 3912.5,-173 3912.5,-179 3906.5,-185 3900.5,-185"/>
<text text-anchor="middle" x="3847.5" y="-173" font-family="sans" font-size="10.00">run_raw_qc_per_file</text>
<text text-anchor="middle" x="3847.5" y="-162" font-family="sans" font-size="10.00">read: fq2</text>
<text text-anchor="middle" x="3847.5" y="-151" font-family="sans" font-size="10.00">sample: ERR024606_tiny</text>
</g>
<!-- 73&#45;&gt;67 -->
<g id="edge120" class="edge">
<title>73&#45;&gt;67</title>
<path fill="none" stroke="grey" stroke-width="2" d="M3847.5,-143.69C3847.5,-135.91 3847.5,-126.84 3847.5,-118.45"/>
<polygon fill="grey" stroke="grey" stroke-width="2" points="3851,-118.32 3847.5,-108.32 3844,-118.32 3851,-118.32"/>
</g>
<!-- 74 -->
<g id="node75" class="node">
<title>74</title>
<path fill="none" stroke="#56b9d8" stroke-width="2" d="M4048.5,-185C4048.5,-185 3942.5,-185 3942.5,-185 3936.5,-185 3930.5,-179 3930.5,-173 3930.5,-173 3930.5,-156 3930.5,-156 3930.5,-150 3936.5,-144 3942.5,-144 3942.5,-144 4048.5,-144 4048.5,-144 4054.5,-144 4060.5,-150 4060.5,-156 4060.5,-156 4060.5,-173 4060.5,-173 4060.5,-179 4054.5,-185 4048.5,-185"/>
<text text-anchor="middle" x="3995.5" y="-173" font-family="sans" font-size="10.00">run_raw_qc_per_file</text>
<text text-anchor="middle" x="3995.5" y="-162" font-family="sans" font-size="10.00">read: fq1</text>
<text text-anchor="middle" x="3995.5" y="-151" font-family="sans" font-size="10.00">sample: ERR024607_tiny</text>
</g>
<!-- 74&#45;&gt;67 -->
<g id="edge121" class="edge">
<title>74&#45;&gt;67</title>
<path fill="none" stroke="grey" stroke-width="2" d="M3955.45,-143.88C3935.55,-134.13 3911.48,-122.34 3891.12,-112.37"/>
<polygon fill="grey" stroke="grey" stroke-width="2" points="3892.57,-109.18 3882.05,-107.93 3889.49,-115.47 3892.57,-109.18"/>
</g>
<!-- 75 -->
<g id="node76" class="node">
<title>75</title>
<path fill="none" stroke="#56b9d8" stroke-width="2" d="M4196.5,-185C4196.5,-185 4090.5,-185 4090.5,-185 4084.5,-185 4078.5,-179 4078.5,-173 4078.5,-173 4078.5,-156 4078.5,-156 4078.5,-150 4084.5,-144 4090.5,-144 4090.5,-144 4196.5,-144 4196.5,-144 4202.5,-144 4208.5,-150 4208.5,-156 4208.5,-156 4208.5,-173 4208.5,-173 4208.5,-179 4202.5,-185 4196.5,-185"/>
<text text-anchor="middle" x="4143.5" y="-173" font-family="sans" font-size="10.00">run_raw_qc_per_file</text>
<text text-anchor="middle" x="4143.5" y="-162" font-family="sans" font-size="10.00">read: fq2</text>
<text text-anchor="middle" x="4143.5" y="-151" font-family="sans" font-size="10.00">sample: ERR024607_tiny</text>
</g>
<!-- 75&#45;&gt;67 -->
<g id="edge122" class="edge">
<title>75&#45;&gt;67</title>
<path fill="none" stroke="grey" stroke-width="2" d="M4078.15,-146.19C4075.23,-145.45 4072.33,-144.71 4069.5,-144 4008.17,-128.6 3937.05,-111.81 3892.16,-101.34"/>
<polygon fill="grey" stroke="grey" stroke-width="2" points="3892.7,-97.87 3882.17,-99.01 3891.11,-104.69 3892.7,-97.87"/>
</g>
<!-- 76 -->
<g id="node77" class="node">
<title>76</title>
<path fill="none" stroke="#56b9d8" stroke-width="2" d="M4344.5,-185C4344.5,-185 4238.5,-185 4238.5,-185 4232.5,-185 4226.5,-179 4226.5,-173 4226.5,-173 4226.5,-156 4226.5,-156 4226.5,-150 4232.5,-144 4238.5,-144 4238.5,-144 4344.5,-144 4344.5,-144 4350.5,-144 4356.5,-150 4356.5,-156 4356.5,-156 4356.5,-173 4356.5,-173 4356.5,-179 4350.5,-185 4344.5,-185"/>
<text text-anchor="middle" x="4291.5" y="-173" font-family="sans" font-size="10.00">run_raw_qc_per_file</text>
<text text-anchor="middle" x="4291.5" y="-162" font-family="sans" font-size="10.00">read: fq1</text>
<text text-anchor="middle" x="4291.5" y="-151" font-family="sans" font-size="10.00">sample: ERR024608_tiny</text>
</g>
<!-- 76&#45;&gt;67 -->
<g id="edge123" class="edge">
<title>76&#45;&gt;67</title>
<path fill="none" stroke="grey" stroke-width="2" d="M4226.23,-145.86C4223.28,-145.21 4220.36,-144.58 4217.5,-144 4101.2,-120.43 3962.26,-103.49 3892.37,-95.73"/>
<polygon fill="grey" stroke="grey" stroke-width="2" points="3892.48,-92.23 3882.16,-94.61 3891.72,-99.18 3892.48,-92.23"/>
</g>
<!-- 77 -->
<g id="node78" class="node">
<title>77</title>
<path fill="none" stroke="#56b9d8" stroke-width="2" d="M4492.5,-185C4492.5,-185 4386.5,-185 4386.5,-185 4380.5,-185 4374.5,-179 4374.5,-173 4374.5,-173 4374.5,-156 4374.5,-156 4374.5,-150 4380.5,-144 4386.5,-144 4386.5,-144 4492.5,-144 4492.5,-144 4498.5,-144 4504.5,-150 4504.5,-156 4504.5,-156 4504.5,-173 4504.5,-173 4504.5,-179 4498.5,-185 4492.5,-185"/>
<text text-anchor="middle" x="4439.5" y="-173" font-family="sans" font-size="10.00">run_raw_qc_per_file</text>
<text text-anchor="middle" x="4439.5" y="-162" font-family="sans" font-size="10.00">read: fq2</text>
<text text-anchor="middle" x="4439.5" y="-151" font-family="sans" font-size="10.00">sample: ERR024608_tiny</text>
</g>
<!-- 77&#45;&gt;67 -->
<g id="edge124" class="edge">
<title>77&#45;&gt;67</title>
<path fill="none" stroke="grey" stroke-width="2" d="M4374.25,-145.72C4371.3,-145.1 4368.38,-144.52 4365.5,-144 4192.04,-112.47 3982.23,-98.22 3892.14,-93.22"/>
<polygon fill="grey" stroke="grey" stroke-width="2" points="3892.18,-89.72 3882.01,-92.67 3891.8,-96.71 3892.18,-89.72"/>
</g>
<!-- 78 -->
<g id="node79" class="node">
<title>78</title>
<path fill="none" stroke="#56b9d8" stroke-width="2" d="M4640.5,-185C4640.5,-185 4534.5,-185 4534.5,-185 4528.5,-185 4522.5,-179 4522.5,-173 4522.5,-173 4522.5,-156 4522.5,-156 4522.5,-150 4528.5,-144 4534.5,-144 4534.5,-144 4640.5,-144 4640.5,-144 4646.5,-144 4652.5,-150 4652.5,-156 4652.5,-156 4652.5,-173 4652.5,-173 4652.5,-179 4646.5,-185 4640.5,-185"/>
<text text-anchor="middle" x="4587.5" y="-173" font-family="sans" font-size="10.00">run_raw_qc_per_file</text>
<text text-anchor="middle" x="4587.5" y="-162" font-family="sans" font-size="10.00">read: fq1</text>
<text text-anchor="middle" x="4587.5" y="-151" font-family="sans" font-size="10.00">sample: ERR024609_tiny</text>
</g>
<!-- 78&#45;&gt;67 -->
<g id="edge125" class="edge">
<title>78&#45;&gt;67</title>
<path fill="none" stroke="grey" stroke-width="2" d="M4522.27,-145.64C4519.31,-145.04 4516.38,-144.49 4513.5,-144 4281.94,-104.6 3999.98,-94.37 3892.25,-91.81"/>
<polygon fill="grey" stroke="grey" stroke-width="2" points="3892.16,-88.31 3882.08,-91.58 3892,-95.31 3892.16,-88.31"/>
</g>
<!-- 79 -->
<g id="node80" class="node">
<title>79</title>
<path fill="none" stroke="#56b9d8" stroke-width="2" d="M4788.5,-185C4788.5,-185 4682.5,-185 4682.5,-185 4676.5,-185 4670.5,-179 4670.5,-173 4670.5,-173 4670.5,-156 4670.5,-156 4670.5,-150 4676.5,-144 4682.5,-144 4682.5,-144 4788.5,-144 4788.5,-144 4794.5,-144 4800.5,-150 4800.5,-156 4800.5,-156 4800.5,-173 4800.5,-173 4800.5,-179 4794.5,-185 4788.5,-185"/>
<text text-anchor="middle" x="4735.5" y="-173" font-family="sans" font-size="10.00">run_raw_qc_per_file</text>
<text text-anchor="middle" x="4735.5" y="-162" font-family="sans" font-size="10.00">read: fq2</text>
<text text-anchor="middle" x="4735.5" y="-151" font-family="sans" font-size="10.00">sample: ERR024609_tiny</text>
</g>
<!-- 79&#45;&gt;67 -->
<g id="edge126" class="edge">
<title>79&#45;&gt;67</title>
<path fill="none" stroke="grey" stroke-width="2" d="M4670.28,-145.58C4667.32,-145 4664.38,-144.47 4661.5,-144 4371.18,-96.75 4016.14,-91.28 3892.5,-90.9"/>
<polygon fill="grey" stroke="grey" stroke-width="2" points="3892.29,-87.4 3882.28,-90.88 3892.27,-94.4 3892.29,-87.4"/>
</g>
</g>
</svg>
