<?xml version="1.0" encoding="UTF-8" standalone="no"?>
<!DOCTYPE svg PUBLIC "-//W3C//DTD SVG 1.1//EN"
 "http://www.w3.org/Graphics/SVG/1.1/DTD/svg11.dtd">
<!-- Generated by graphviz version 2.42.4 (0)
 -->
<!-- Title: snakemake_dag Pages: 1 -->
<svg width="1262pt" height="548pt"
 viewBox="0.00 0.00 1262.00 548.00" xmlns="http://www.w3.org/2000/svg" xmlns:xlink="http://www.w3.org/1999/xlink">
<g id="graph0" class="graph" transform="scale(1 1) rotate(0) translate(4 544)">
<title>snakemake_dag</title>
<polygon fill="white" stroke="transparent" points="-4,4 -4,-544 1258,-544 1258,4 -4,4"/>
<!-- 0 -->
<g id="node1" class="node">
<title>0</title>
<path fill="none" stroke="#d85656" stroke-width="2" d="M622.5,-36C622.5,-36 592.5,-36 592.5,-36 586.5,-36 580.5,-30 580.5,-24 580.5,-24 580.5,-12 580.5,-12 580.5,-6 586.5,0 592.5,0 592.5,0 622.5,0 622.5,0 628.5,0 634.5,-6 634.5,-12 634.5,-12 634.5,-24 634.5,-24 634.5,-30 628.5,-36 622.5,-36"/>
<text text-anchor="middle" x="607.5" y="-15.5" font-family="sans" font-size="10.00">all</text>
</g>
<!-- 1 -->
<g id="node2" class="node">
<title>1</title>
<path fill="none" stroke="#d88d56" stroke-width="2" d="M182,-180C182,-180 123,-180 123,-180 117,-180 111,-174 111,-168 111,-168 111,-156 111,-156 111,-150 117,-144 123,-144 123,-144 182,-144 182,-144 188,-144 194,-150 194,-156 194,-156 194,-168 194,-168 194,-174 188,-180 182,-180"/>
<text text-anchor="middle" x="152.5" y="-159.5" font-family="sans" font-size="10.00">calculate_stats</text>
</g>
<!-- 1&#45;&gt;0 -->
<g id="edge1" class="edge">
<title>1&#45;&gt;0</title>
<path fill="none" stroke="grey" stroke-width="2" d="M170.23,-143.77C192.58,-123.14 233.1,-89.21 274.5,-72 375.67,-29.93 506.91,-21.05 570.17,-19.31"/>
<polygon fill="grey" stroke="grey" stroke-width="2" points="570.53,-22.8 580.45,-19.08 570.37,-15.81 570.53,-22.8"/>
</g>
<!-- 38 -->
<g id="node39" class="node">
<title>38</title>
<path fill="none" stroke="#70d856" stroke-width="2" d="M389,-108C389,-108 330,-108 330,-108 324,-108 318,-102 318,-96 318,-96 318,-84 318,-84 318,-78 324,-72 330,-72 330,-72 389,-72 389,-72 395,-72 401,-78 401,-84 401,-84 401,-96 401,-96 401,-102 395,-108 389,-108"/>
<text text-anchor="middle" x="359.5" y="-93" font-family="sans" font-size="10.00">grouped_stats</text>
<text text-anchor="middle" x="359.5" y="-82" font-family="sans" font-size="10.00">group: A</text>
</g>
<!-- 1&#45;&gt;38 -->
<g id="edge64" class="edge">
<title>1&#45;&gt;38</title>
<path fill="none" stroke="grey" stroke-width="2" d="M194.39,-146.83C227.22,-135.73 273.05,-120.24 308.09,-108.38"/>
<polygon fill="grey" stroke="grey" stroke-width="2" points="309.32,-111.66 317.67,-105.14 307.08,-105.03 309.32,-111.66"/>
</g>
<!-- 2 -->
<g id="node3" class="node">
<title>2</title>
<path fill="none" stroke="#5692d8" stroke-width="2" d="M144.5,-324C144.5,-324 114.5,-324 114.5,-324 108.5,-324 102.5,-318 102.5,-312 102.5,-312 102.5,-300 102.5,-300 102.5,-294 108.5,-288 114.5,-288 114.5,-288 144.5,-288 144.5,-288 150.5,-288 156.5,-294 156.5,-300 156.5,-300 156.5,-312 156.5,-312 156.5,-318 150.5,-324 144.5,-324"/>
<text text-anchor="middle" x="129.5" y="-303.5" font-family="sans" font-size="10.00">sort</text>
</g>
<!-- 2&#45;&gt;1 -->
<g id="edge16" class="edge">
<title>2&#45;&gt;1</title>
<path fill="none" stroke="grey" stroke-width="2" d="M132.27,-287.87C136.19,-263.67 143.4,-219.21 148.06,-190.39"/>
<polygon fill="grey" stroke="grey" stroke-width="2" points="151.57,-190.62 149.72,-180.19 144.66,-189.5 151.57,-190.62"/>
</g>
<!-- 6 -->
<g id="node7" class="node">
<title>6</title>
<path fill="none" stroke="#56d873" stroke-width="2" d="M116.5,-252C116.5,-252 86.5,-252 86.5,-252 80.5,-252 74.5,-246 74.5,-240 74.5,-240 74.5,-228 74.5,-228 74.5,-222 80.5,-216 86.5,-216 86.5,-216 116.5,-216 116.5,-216 122.5,-216 128.5,-222 128.5,-228 128.5,-228 128.5,-240 128.5,-240 128.5,-246 122.5,-252 116.5,-252"/>
<text text-anchor="middle" x="101.5" y="-231.5" font-family="sans" font-size="10.00">index</text>
</g>
<!-- 2&#45;&gt;6 -->
<g id="edge21" class="edge">
<title>2&#45;&gt;6</title>
<path fill="none" stroke="grey" stroke-width="2" d="M122.58,-287.7C119.43,-279.81 115.62,-270.3 112.12,-261.55"/>
<polygon fill="grey" stroke="grey" stroke-width="2" points="115.31,-260.09 108.34,-252.1 108.81,-262.69 115.31,-260.09"/>
</g>
<!-- 32 -->
<g id="node33" class="node">
<title>32</title>
<path fill="none" stroke="#afd856" stroke-width="2" d="M81,-180C81,-180 12,-180 12,-180 6,-180 0,-174 0,-168 0,-168 0,-156 0,-156 0,-150 6,-144 12,-144 12,-144 81,-144 81,-144 87,-144 93,-150 93,-156 93,-156 93,-168 93,-168 93,-174 87,-180 81,-180"/>
<text text-anchor="middle" x="46.5" y="-159.5" font-family="sans" font-size="10.00">extract_mapping</text>
</g>
<!-- 2&#45;&gt;32 -->
<g id="edge52" class="edge">
<title>2&#45;&gt;32</title>
<path fill="none" stroke="grey" stroke-width="2" d="M102.42,-288.78C89.34,-279.59 74.55,-266.93 65.5,-252 54.21,-233.36 49.57,-208.97 47.69,-190.44"/>
<polygon fill="grey" stroke="grey" stroke-width="2" points="51.16,-189.98 46.87,-180.29 44.19,-190.54 51.16,-189.98"/>
</g>
<!-- 3 -->
<g id="node4" class="node">
<title>3</title>
<path fill="none" stroke="#d8cb56" stroke-width="2" d="M193.5,-396C193.5,-396 163.5,-396 163.5,-396 157.5,-396 151.5,-390 151.5,-384 151.5,-384 151.5,-372 151.5,-372 151.5,-366 157.5,-360 163.5,-360 163.5,-360 193.5,-360 193.5,-360 199.5,-360 205.5,-366 205.5,-372 205.5,-372 205.5,-384 205.5,-384 205.5,-390 199.5,-396 193.5,-396"/>
<text text-anchor="middle" x="178.5" y="-375.5" font-family="sans" font-size="10.00">convert</text>
</g>
<!-- 3&#45;&gt;2 -->
<g id="edge18" class="edge">
<title>3&#45;&gt;2</title>
<path fill="none" stroke="grey" stroke-width="2" d="M166.39,-359.7C160.63,-351.47 153.64,-341.48 147.29,-332.42"/>
<polygon fill="grey" stroke="grey" stroke-width="2" points="150.08,-330.29 141.47,-324.1 144.34,-334.3 150.08,-330.29"/>
</g>
<!-- 4 -->
<g id="node5" class="node">
<title>4</title>
<path fill="none" stroke="#56c9d8" stroke-width="2" d="M267.5,-468C267.5,-468 161.5,-468 161.5,-468 155.5,-468 149.5,-462 149.5,-456 149.5,-456 149.5,-444 149.5,-444 149.5,-438 155.5,-432 161.5,-432 161.5,-432 267.5,-432 267.5,-432 273.5,-432 279.5,-438 279.5,-444 279.5,-444 279.5,-456 279.5,-456 279.5,-462 273.5,-468 267.5,-468"/>
<text text-anchor="middle" x="214.5" y="-453" font-family="sans" font-size="10.00">map</text>
<text text-anchor="middle" x="214.5" y="-442" font-family="sans" font-size="10.00">sample: ERR024604_tiny</text>
</g>
<!-- 4&#45;&gt;3 -->
<g id="edge19" class="edge">
<title>4&#45;&gt;3</title>
<path fill="none" stroke="grey" stroke-width="2" d="M205.6,-431.7C201.5,-423.73 196.55,-414.1 192.01,-405.26"/>
<polygon fill="grey" stroke="grey" stroke-width="2" points="194.98,-403.4 187.3,-396.1 188.76,-406.6 194.98,-403.4"/>
</g>
<!-- 5 -->
<g id="node6" class="node">
<title>5</title>
<path fill="none" stroke="#56d8a9" stroke-width="2" d="M629,-540C629,-540 594,-540 594,-540 588,-540 582,-534 582,-528 582,-528 582,-516 582,-516 582,-510 588,-504 594,-504 594,-504 629,-504 629,-504 635,-504 641,-510 641,-516 641,-516 641,-528 641,-528 641,-534 635,-540 629,-540"/>
<text text-anchor="middle" x="611.5" y="-519.5" font-family="sans" font-size="10.00">index_ref</text>
</g>
<!-- 5&#45;&gt;4 -->
<g id="edge20" class="edge">
<title>5&#45;&gt;4</title>
<path fill="none" stroke="grey" stroke-width="2" d="M581.61,-515.91C526.96,-506.59 407.28,-486.07 306.5,-468 301.1,-467.03 295.53,-466.02 289.92,-465"/>
<polygon fill="grey" stroke="grey" stroke-width="2" points="290.29,-461.51 279.82,-463.16 289.03,-468.4 290.29,-461.51"/>
</g>
<!-- 10 -->
<g id="node11" class="node">
<title>10</title>
<path fill="none" stroke="#56c9d8" stroke-width="2" d="M433.5,-468C433.5,-468 327.5,-468 327.5,-468 321.5,-468 315.5,-462 315.5,-456 315.5,-456 315.5,-444 315.5,-444 315.5,-438 321.5,-432 327.5,-432 327.5,-432 433.5,-432 433.5,-432 439.5,-432 445.5,-438 445.5,-444 445.5,-444 445.5,-456 445.5,-456 445.5,-462 439.5,-468 433.5,-468"/>
<text text-anchor="middle" x="380.5" y="-453" font-family="sans" font-size="10.00">map</text>
<text text-anchor="middle" x="380.5" y="-442" font-family="sans" font-size="10.00">sample: ERR024605_tiny</text>
</g>
<!-- 5&#45;&gt;10 -->
<g id="edge26" class="edge">
<title>5&#45;&gt;10</title>
<path fill="none" stroke="grey" stroke-width="2" d="M581.77,-511.99C547.72,-501.67 490.86,-484.44 446.25,-470.93"/>
<polygon fill="grey" stroke="grey" stroke-width="2" points="447.23,-467.56 436.64,-468.01 445.2,-474.26 447.23,-467.56"/>
</g>
<!-- 15 -->
<g id="node16" class="node">
<title>15</title>
<path fill="none" stroke="#56c9d8" stroke-width="2" d="M590.5,-468C590.5,-468 484.5,-468 484.5,-468 478.5,-468 472.5,-462 472.5,-456 472.5,-456 472.5,-444 472.5,-444 472.5,-438 478.5,-432 484.5,-432 484.5,-432 590.5,-432 590.5,-432 596.5,-432 602.5,-438 602.5,-444 602.5,-444 602.5,-456 602.5,-456 602.5,-462 596.5,-468 590.5,-468"/>
<text text-anchor="middle" x="537.5" y="-453" font-family="sans" font-size="10.00">map</text>
<text text-anchor="middle" x="537.5" y="-442" font-family="sans" font-size="10.00">sample: ERR024606_tiny</text>
</g>
<!-- 5&#45;&gt;15 -->
<g id="edge32" class="edge">
<title>5&#45;&gt;15</title>
<path fill="none" stroke="grey" stroke-width="2" d="M593.21,-503.7C584.07,-495.05 572.86,-484.45 562.9,-475.03"/>
<polygon fill="grey" stroke="grey" stroke-width="2" points="565.25,-472.43 555.58,-468.1 560.44,-477.52 565.25,-472.43"/>
</g>
<!-- 20 -->
<g id="node21" class="node">
<title>20</title>
<path fill="none" stroke="#56c9d8" stroke-width="2" d="M765.5,-468C765.5,-468 659.5,-468 659.5,-468 653.5,-468 647.5,-462 647.5,-456 647.5,-456 647.5,-444 647.5,-444 647.5,-438 653.5,-432 659.5,-432 659.5,-432 765.5,-432 765.5,-432 771.5,-432 777.5,-438 777.5,-444 777.5,-444 777.5,-456 777.5,-456 777.5,-462 771.5,-468 765.5,-468"/>
<text text-anchor="middle" x="712.5" y="-453" font-family="sans" font-size="10.00">map</text>
<text text-anchor="middle" x="712.5" y="-442" font-family="sans" font-size="10.00">sample: ERR024607_tiny</text>
</g>
<!-- 5&#45;&gt;20 -->
<g id="edge38" class="edge">
<title>5&#45;&gt;20</title>
<path fill="none" stroke="grey" stroke-width="2" d="M636.21,-503.88C649.17,-494.89 665.23,-483.76 679.27,-474.03"/>
<polygon fill="grey" stroke="grey" stroke-width="2" points="681.47,-476.76 687.7,-468.19 677.48,-471.01 681.47,-476.76"/>
</g>
<!-- 25 -->
<g id="node26" class="node">
<title>25</title>
<path fill="none" stroke="#56c9d8" stroke-width="2" d="M931.5,-468C931.5,-468 825.5,-468 825.5,-468 819.5,-468 813.5,-462 813.5,-456 813.5,-456 813.5,-444 813.5,-444 813.5,-438 819.5,-432 825.5,-432 825.5,-432 931.5,-432 931.5,-432 937.5,-432 943.5,-438 943.5,-444 943.5,-444 943.5,-456 943.5,-456 943.5,-462 937.5,-468 931.5,-468"/>
<text text-anchor="middle" x="878.5" y="-453" font-family="sans" font-size="10.00">map</text>
<text text-anchor="middle" x="878.5" y="-442" font-family="sans" font-size="10.00">sample: ERR024608_tiny</text>
</g>
<!-- 5&#45;&gt;25 -->
<g id="edge44" class="edge">
<title>5&#45;&gt;25</title>
<path fill="none" stroke="grey" stroke-width="2" d="M641.09,-513.24C680.01,-503.04 749.77,-484.75 803.64,-470.63"/>
<polygon fill="grey" stroke="grey" stroke-width="2" points="804.71,-473.96 813.5,-468.04 802.94,-467.19 804.71,-473.96"/>
</g>
<!-- 30 -->
<g id="node31" class="node">
<title>30</title>
<path fill="none" stroke="#56c9d8" stroke-width="2" d="M1120.5,-468C1120.5,-468 1014.5,-468 1014.5,-468 1008.5,-468 1002.5,-462 1002.5,-456 1002.5,-456 1002.5,-444 1002.5,-444 1002.5,-438 1008.5,-432 1014.5,-432 1014.5,-432 1120.5,-432 1120.5,-432 1126.5,-432 1132.5,-438 1132.5,-444 1132.5,-444 1132.5,-456 1132.5,-456 1132.5,-462 1126.5,-468 1120.5,-468"/>
<text text-anchor="middle" x="1067.5" y="-453" font-family="sans" font-size="10.00">map</text>
<text text-anchor="middle" x="1067.5" y="-442" font-family="sans" font-size="10.00">sample: ERR024609_tiny</text>
</g>
<!-- 5&#45;&gt;30 -->
<g id="edge50" class="edge">
<title>5&#45;&gt;30</title>
<path fill="none" stroke="grey" stroke-width="2" d="M641.07,-516.46C711.26,-505.69 889.7,-478.29 992.13,-462.57"/>
<polygon fill="grey" stroke="grey" stroke-width="2" points="992.75,-466.02 1002.11,-461.04 991.69,-459.1 992.75,-466.02"/>
</g>
<!-- 6&#45;&gt;1 -->
<g id="edge17" class="edge">
<title>6&#45;&gt;1</title>
<path fill="none" stroke="grey" stroke-width="2" d="M114.11,-215.7C120.1,-207.47 127.38,-197.48 133.98,-188.42"/>
<polygon fill="grey" stroke="grey" stroke-width="2" points="136.98,-190.25 140.04,-180.1 131.32,-186.13 136.98,-190.25"/>
</g>
<!-- 6&#45;&gt;32 -->
<g id="edge53" class="edge">
<title>6&#45;&gt;32</title>
<path fill="none" stroke="grey" stroke-width="2" d="M87.9,-215.7C81.38,-207.39 73.43,-197.28 66.25,-188.14"/>
<polygon fill="grey" stroke="grey" stroke-width="2" points="68.87,-185.81 59.94,-180.1 63.37,-190.13 68.87,-185.81"/>
</g>
<!-- 7 -->
<g id="node8" class="node">
<title>7</title>
<path fill="none" stroke="#d88d56" stroke-width="2" d="M394,-180C394,-180 335,-180 335,-180 329,-180 323,-174 323,-168 323,-168 323,-156 323,-156 323,-150 329,-144 335,-144 335,-144 394,-144 394,-144 400,-144 406,-150 406,-156 406,-156 406,-168 406,-168 406,-174 400,-180 394,-180"/>
<text text-anchor="middle" x="364.5" y="-159.5" font-family="sans" font-size="10.00">calculate_stats</text>
</g>
<!-- 7&#45;&gt;0 -->
<g id="edge2" class="edge">
<title>7&#45;&gt;0</title>
<path fill="none" stroke="grey" stroke-width="2" d="M380.55,-143.88C399.69,-124.3 433.39,-92.32 467.5,-72 500.26,-52.49 541.44,-37.93 570.64,-29.06"/>
<polygon fill="grey" stroke="grey" stroke-width="2" points="571.84,-32.36 580.44,-26.16 569.86,-25.65 571.84,-32.36"/>
</g>
<!-- 39 -->
<g id="node40" class="node">
<title>39</title>
<path fill="none" stroke="#70d856" stroke-width="2" d="M567,-108C567,-108 508,-108 508,-108 502,-108 496,-102 496,-96 496,-96 496,-84 496,-84 496,-78 502,-72 508,-72 508,-72 567,-72 567,-72 573,-72 579,-78 579,-84 579,-84 579,-96 579,-96 579,-102 573,-108 567,-108"/>
<text text-anchor="middle" x="537.5" y="-93" font-family="sans" font-size="10.00">grouped_stats</text>
<text text-anchor="middle" x="537.5" y="-82" font-family="sans" font-size="10.00">group: B</text>
</g>
<!-- 7&#45;&gt;39 -->
<g id="edge66" class="edge">
<title>7&#45;&gt;39</title>
<path fill="none" stroke="grey" stroke-width="2" d="M406.38,-144.05C430.41,-134.33 460.77,-122.05 486.22,-111.75"/>
<polygon fill="grey" stroke="grey" stroke-width="2" points="487.75,-114.91 495.71,-107.91 485.12,-108.42 487.75,-114.91"/>
</g>
<!-- 8 -->
<g id="node9" class="node">
<title>8</title>
<path fill="none" stroke="#5692d8" stroke-width="2" d="M344.5,-324C344.5,-324 314.5,-324 314.5,-324 308.5,-324 302.5,-318 302.5,-312 302.5,-312 302.5,-300 302.5,-300 302.5,-294 308.5,-288 314.5,-288 314.5,-288 344.5,-288 344.5,-288 350.5,-288 356.5,-294 356.5,-300 356.5,-300 356.5,-312 356.5,-312 356.5,-318 350.5,-324 344.5,-324"/>
<text text-anchor="middle" x="329.5" y="-303.5" font-family="sans" font-size="10.00">sort</text>
</g>
<!-- 8&#45;&gt;7 -->
<g id="edge22" class="edge">
<title>8&#45;&gt;7</title>
<path fill="none" stroke="grey" stroke-width="2" d="M337.04,-287.61C341.22,-277.4 346.22,-264.15 349.5,-252 355.01,-231.61 358.88,-208.02 361.3,-190.25"/>
<polygon fill="grey" stroke="grey" stroke-width="2" points="364.78,-190.64 362.6,-180.27 357.84,-189.74 364.78,-190.64"/>
</g>
<!-- 11 -->
<g id="node12" class="node">
<title>11</title>
<path fill="none" stroke="#56d873" stroke-width="2" d="M328.5,-252C328.5,-252 298.5,-252 298.5,-252 292.5,-252 286.5,-246 286.5,-240 286.5,-240 286.5,-228 286.5,-228 286.5,-222 292.5,-216 298.5,-216 298.5,-216 328.5,-216 328.5,-216 334.5,-216 340.5,-222 340.5,-228 340.5,-228 340.5,-240 340.5,-240 340.5,-246 334.5,-252 328.5,-252"/>
<text text-anchor="middle" x="313.5" y="-231.5" font-family="sans" font-size="10.00">index</text>
</g>
<!-- 8&#45;&gt;11 -->
<g id="edge27" class="edge">
<title>8&#45;&gt;11</title>
<path fill="none" stroke="grey" stroke-width="2" d="M325.54,-287.7C323.78,-279.98 321.66,-270.71 319.7,-262.11"/>
<polygon fill="grey" stroke="grey" stroke-width="2" points="323.05,-261.07 317.41,-252.1 316.23,-262.63 323.05,-261.07"/>
</g>
<!-- 33 -->
<g id="node34" class="node">
<title>33</title>
<path fill="none" stroke="#afd856" stroke-width="2" d="M293,-180C293,-180 224,-180 224,-180 218,-180 212,-174 212,-168 212,-168 212,-156 212,-156 212,-150 218,-144 224,-144 224,-144 293,-144 293,-144 299,-144 305,-150 305,-156 305,-156 305,-168 305,-168 305,-174 299,-180 293,-180"/>
<text text-anchor="middle" x="258.5" y="-159.5" font-family="sans" font-size="10.00">extract_mapping</text>
</g>
<!-- 8&#45;&gt;33 -->
<g id="edge54" class="edge">
<title>8&#45;&gt;33</title>
<path fill="none" stroke="grey" stroke-width="2" d="M307.53,-287.79C296.9,-278.33 284.88,-265.74 277.5,-252 267.18,-232.8 262.47,-208.46 260.31,-190.08"/>
<polygon fill="grey" stroke="grey" stroke-width="2" points="263.79,-189.64 259.32,-180.04 256.82,-190.33 263.79,-189.64"/>
</g>
<!-- 9 -->
<g id="node10" class="node">
<title>9</title>
<path fill="none" stroke="#d8cb56" stroke-width="2" d="M376.5,-396C376.5,-396 346.5,-396 346.5,-396 340.5,-396 334.5,-390 334.5,-384 334.5,-384 334.5,-372 334.5,-372 334.5,-366 340.5,-360 346.5,-360 346.5,-360 376.5,-360 376.5,-360 382.5,-360 388.5,-366 388.5,-372 388.5,-372 388.5,-384 388.5,-384 388.5,-390 382.5,-396 376.5,-396"/>
<text text-anchor="middle" x="361.5" y="-375.5" font-family="sans" font-size="10.00">convert</text>
</g>
<!-- 9&#45;&gt;8 -->
<g id="edge24" class="edge">
<title>9&#45;&gt;8</title>
<path fill="none" stroke="grey" stroke-width="2" d="M353.59,-359.7C349.95,-351.73 345.55,-342.1 341.51,-333.26"/>
<polygon fill="grey" stroke="grey" stroke-width="2" points="344.66,-331.74 337.32,-324.1 338.29,-334.65 344.66,-331.74"/>
</g>
<!-- 10&#45;&gt;9 -->
<g id="edge25" class="edge">
<title>10&#45;&gt;9</title>
<path fill="none" stroke="grey" stroke-width="2" d="M375.8,-431.7C373.69,-423.9 371.14,-414.51 368.78,-405.83"/>
<polygon fill="grey" stroke="grey" stroke-width="2" points="372.14,-404.84 366.14,-396.1 365.38,-406.67 372.14,-404.84"/>
</g>
<!-- 11&#45;&gt;7 -->
<g id="edge23" class="edge">
<title>11&#45;&gt;7</title>
<path fill="none" stroke="grey" stroke-width="2" d="M326.11,-215.7C332.1,-207.47 339.38,-197.48 345.98,-188.42"/>
<polygon fill="grey" stroke="grey" stroke-width="2" points="348.98,-190.25 352.04,-180.1 343.32,-186.13 348.98,-190.25"/>
</g>
<!-- 11&#45;&gt;33 -->
<g id="edge55" class="edge">
<title>11&#45;&gt;33</title>
<path fill="none" stroke="grey" stroke-width="2" d="M299.9,-215.7C293.38,-207.39 285.43,-197.28 278.25,-188.14"/>
<polygon fill="grey" stroke="grey" stroke-width="2" points="280.87,-185.81 271.94,-180.1 275.37,-190.13 280.87,-185.81"/>
</g>
<!-- 12 -->
<g id="node13" class="node">
<title>12</title>
<path fill="none" stroke="#d88d56" stroke-width="2" d="M606,-180C606,-180 547,-180 547,-180 541,-180 535,-174 535,-168 535,-168 535,-156 535,-156 535,-150 541,-144 547,-144 547,-144 606,-144 606,-144 612,-144 618,-150 618,-156 618,-156 618,-168 618,-168 618,-174 612,-180 606,-180"/>
<text text-anchor="middle" x="576.5" y="-159.5" font-family="sans" font-size="10.00">calculate_stats</text>
</g>
<!-- 12&#45;&gt;0 -->
<g id="edge3" class="edge">
<title>12&#45;&gt;0</title>
<path fill="none" stroke="grey" stroke-width="2" d="M580.44,-143.83C582.81,-133.46 585.87,-119.98 588.5,-108 593.05,-87.3 598.05,-63.85 601.78,-46.22"/>
<polygon fill="grey" stroke="grey" stroke-width="2" points="605.28,-46.58 603.92,-36.08 598.43,-45.14 605.28,-46.58"/>
</g>
<!-- 40 -->
<g id="node41" class="node">
<title>40</title>
<path fill="none" stroke="#70d856" stroke-width="2" d="M745,-108C745,-108 686,-108 686,-108 680,-108 674,-102 674,-96 674,-96 674,-84 674,-84 674,-78 680,-72 686,-72 686,-72 745,-72 745,-72 751,-72 757,-78 757,-84 757,-84 757,-96 757,-96 757,-102 751,-108 745,-108"/>
<text text-anchor="middle" x="715.5" y="-93" font-family="sans" font-size="10.00">grouped_stats</text>
<text text-anchor="middle" x="715.5" y="-82" font-family="sans" font-size="10.00">group: C</text>
</g>
<!-- 12&#45;&gt;40 -->
<g id="edge68" class="edge">
<title>12&#45;&gt;40</title>
<path fill="none" stroke="grey" stroke-width="2" d="M610.5,-143.88C629.1,-134.51 652.33,-122.81 672.21,-112.8"/>
<polygon fill="grey" stroke="grey" stroke-width="2" points="674.01,-115.81 681.37,-108.19 670.86,-109.56 674.01,-115.81"/>
</g>
<!-- 13 -->
<g id="node14" class="node">
<title>13</title>
<path fill="none" stroke="#5692d8" stroke-width="2" d="M542.5,-324C542.5,-324 512.5,-324 512.5,-324 506.5,-324 500.5,-318 500.5,-312 500.5,-312 500.5,-300 500.5,-300 500.5,-294 506.5,-288 512.5,-288 512.5,-288 542.5,-288 542.5,-288 548.5,-288 554.5,-294 554.5,-300 554.5,-300 554.5,-312 554.5,-312 554.5,-318 548.5,-324 542.5,-324"/>
<text text-anchor="middle" x="527.5" y="-303.5" font-family="sans" font-size="10.00">sort</text>
</g>
<!-- 13&#45;&gt;12 -->
<g id="edge28" class="edge">
<title>13&#45;&gt;12</title>
<path fill="none" stroke="grey" stroke-width="2" d="M541.06,-287.82C548.22,-277.89 556.54,-264.85 561.5,-252 569.16,-232.18 572.91,-208.38 574.75,-190.38"/>
<polygon fill="grey" stroke="grey" stroke-width="2" points="578.25,-190.54 575.64,-180.27 571.28,-189.92 578.25,-190.54"/>
</g>
<!-- 16 -->
<g id="node17" class="node">
<title>16</title>
<path fill="none" stroke="#56d873" stroke-width="2" d="M540.5,-252C540.5,-252 510.5,-252 510.5,-252 504.5,-252 498.5,-246 498.5,-240 498.5,-240 498.5,-228 498.5,-228 498.5,-222 504.5,-216 510.5,-216 510.5,-216 540.5,-216 540.5,-216 546.5,-216 552.5,-222 552.5,-228 552.5,-228 552.5,-240 552.5,-240 552.5,-246 546.5,-252 540.5,-252"/>
<text text-anchor="middle" x="525.5" y="-231.5" font-family="sans" font-size="10.00">index</text>
</g>
<!-- 13&#45;&gt;16 -->
<g id="edge33" class="edge">
<title>13&#45;&gt;16</title>
<path fill="none" stroke="grey" stroke-width="2" d="M527.01,-287.7C526.79,-279.98 526.52,-270.71 526.27,-262.11"/>
<polygon fill="grey" stroke="grey" stroke-width="2" points="529.77,-262 525.99,-252.1 522.78,-262.2 529.77,-262"/>
</g>
<!-- 34 -->
<g id="node35" class="node">
<title>34</title>
<path fill="none" stroke="#afd856" stroke-width="2" d="M505,-180C505,-180 436,-180 436,-180 430,-180 424,-174 424,-168 424,-168 424,-156 424,-156 424,-150 430,-144 436,-144 436,-144 505,-144 505,-144 511,-144 517,-150 517,-156 517,-156 517,-168 517,-168 517,-174 511,-180 505,-180"/>
<text text-anchor="middle" x="470.5" y="-159.5" font-family="sans" font-size="10.00">extract_mapping</text>
</g>
<!-- 13&#45;&gt;34 -->
<g id="edge56" class="edge">
<title>13&#45;&gt;34</title>
<path fill="none" stroke="grey" stroke-width="2" d="M512.52,-287.97C504.56,-278.09 495.27,-265.05 489.5,-252 480.78,-232.28 475.96,-208.3 473.36,-190.2"/>
<polygon fill="grey" stroke="grey" stroke-width="2" points="476.8,-189.51 472.04,-180.04 469.86,-190.41 476.8,-189.51"/>
</g>
<!-- 14 -->
<g id="node15" class="node">
<title>14</title>
<path fill="none" stroke="#d8cb56" stroke-width="2" d="M551.5,-396C551.5,-396 521.5,-396 521.5,-396 515.5,-396 509.5,-390 509.5,-384 509.5,-384 509.5,-372 509.5,-372 509.5,-366 515.5,-360 521.5,-360 521.5,-360 551.5,-360 551.5,-360 557.5,-360 563.5,-366 563.5,-372 563.5,-372 563.5,-384 563.5,-384 563.5,-390 557.5,-396 551.5,-396"/>
<text text-anchor="middle" x="536.5" y="-375.5" font-family="sans" font-size="10.00">convert</text>
</g>
<!-- 14&#45;&gt;13 -->
<g id="edge30" class="edge">
<title>14&#45;&gt;13</title>
<path fill="none" stroke="grey" stroke-width="2" d="M534.28,-359.7C533.28,-351.98 532.09,-342.71 530.99,-334.11"/>
<polygon fill="grey" stroke="grey" stroke-width="2" points="534.45,-333.58 529.7,-324.1 527.5,-334.47 534.45,-333.58"/>
</g>
<!-- 15&#45;&gt;14 -->
<g id="edge31" class="edge">
<title>15&#45;&gt;14</title>
<path fill="none" stroke="grey" stroke-width="2" d="M537.25,-431.7C537.14,-423.98 537.01,-414.71 536.89,-406.11"/>
<polygon fill="grey" stroke="grey" stroke-width="2" points="540.39,-406.05 536.74,-396.1 533.39,-406.15 540.39,-406.05"/>
</g>
<!-- 16&#45;&gt;12 -->
<g id="edge29" class="edge">
<title>16&#45;&gt;12</title>
<path fill="none" stroke="grey" stroke-width="2" d="M538.11,-215.7C544.1,-207.47 551.38,-197.48 557.98,-188.42"/>
<polygon fill="grey" stroke="grey" stroke-width="2" points="560.98,-190.25 564.04,-180.1 555.32,-186.13 560.98,-190.25"/>
</g>
<!-- 16&#45;&gt;34 -->
<g id="edge57" class="edge">
<title>16&#45;&gt;34</title>
<path fill="none" stroke="grey" stroke-width="2" d="M511.9,-215.7C505.38,-207.39 497.43,-197.28 490.25,-188.14"/>
<polygon fill="grey" stroke="grey" stroke-width="2" points="492.87,-185.81 483.94,-180.1 487.37,-190.13 492.87,-185.81"/>
</g>
<!-- 17 -->
<g id="node18" class="node">
<title>17</title>
<path fill="none" stroke="#d88d56" stroke-width="2" d="M707,-180C707,-180 648,-180 648,-180 642,-180 636,-174 636,-168 636,-168 636,-156 636,-156 636,-150 642,-144 648,-144 648,-144 707,-144 707,-144 713,-144 719,-150 719,-156 719,-156 719,-168 719,-168 719,-174 713,-180 707,-180"/>
<text text-anchor="middle" x="677.5" y="-159.5" font-family="sans" font-size="10.00">calculate_stats</text>
</g>
<!-- 17&#45;&gt;0 -->
<g id="edge4" class="edge">
<title>17&#45;&gt;0</title>
<path fill="none" stroke="grey" stroke-width="2" d="M669.06,-143.87C656.97,-119.35 634.63,-74.03 620.44,-45.26"/>
<polygon fill="grey" stroke="grey" stroke-width="2" points="623.53,-43.61 615.97,-36.19 617.26,-46.71 623.53,-43.61"/>
</g>
<!-- 17&#45;&gt;38 -->
<g id="edge65" class="edge">
<title>17&#45;&gt;38</title>
<path fill="none" stroke="grey" stroke-width="2" d="M635.88,-146.39C633.06,-145.54 630.25,-144.73 627.5,-144 553.25,-124.13 465.61,-108.18 411.29,-99.15"/>
<polygon fill="grey" stroke="grey" stroke-width="2" points="411.65,-95.66 401.21,-97.49 410.51,-102.57 411.65,-95.66"/>
</g>
<!-- 18 -->
<g id="node19" class="node">
<title>18</title>
<path fill="none" stroke="#5692d8" stroke-width="2" d="M741.5,-324C741.5,-324 711.5,-324 711.5,-324 705.5,-324 699.5,-318 699.5,-312 699.5,-312 699.5,-300 699.5,-300 699.5,-294 705.5,-288 711.5,-288 711.5,-288 741.5,-288 741.5,-288 747.5,-288 753.5,-294 753.5,-300 753.5,-300 753.5,-312 753.5,-312 753.5,-318 747.5,-324 741.5,-324"/>
<text text-anchor="middle" x="726.5" y="-303.5" font-family="sans" font-size="10.00">sort</text>
</g>
<!-- 18&#45;&gt;17 -->
<g id="edge34" class="edge">
<title>18&#45;&gt;17</title>
<path fill="none" stroke="grey" stroke-width="2" d="M712.94,-287.82C705.78,-277.89 697.46,-264.85 692.5,-252 684.84,-232.18 681.09,-208.38 679.25,-190.38"/>
<polygon fill="grey" stroke="grey" stroke-width="2" points="682.72,-189.92 678.36,-180.27 675.75,-190.54 682.72,-189.92"/>
</g>
<!-- 21 -->
<g id="node22" class="node">
<title>21</title>
<path fill="none" stroke="#56d873" stroke-width="2" d="M743.5,-252C743.5,-252 713.5,-252 713.5,-252 707.5,-252 701.5,-246 701.5,-240 701.5,-240 701.5,-228 701.5,-228 701.5,-222 707.5,-216 713.5,-216 713.5,-216 743.5,-216 743.5,-216 749.5,-216 755.5,-222 755.5,-228 755.5,-228 755.5,-240 755.5,-240 755.5,-246 749.5,-252 743.5,-252"/>
<text text-anchor="middle" x="728.5" y="-231.5" font-family="sans" font-size="10.00">index</text>
</g>
<!-- 18&#45;&gt;21 -->
<g id="edge39" class="edge">
<title>18&#45;&gt;21</title>
<path fill="none" stroke="grey" stroke-width="2" d="M726.99,-287.7C727.21,-279.98 727.48,-270.71 727.73,-262.11"/>
<polygon fill="grey" stroke="grey" stroke-width="2" points="731.22,-262.2 728.01,-252.1 724.23,-262 731.22,-262.2"/>
</g>
<!-- 35 -->
<g id="node36" class="node">
<title>35</title>
<path fill="none" stroke="#afd856" stroke-width="2" d="M818,-180C818,-180 749,-180 749,-180 743,-180 737,-174 737,-168 737,-168 737,-156 737,-156 737,-150 743,-144 749,-144 749,-144 818,-144 818,-144 824,-144 830,-150 830,-156 830,-156 830,-168 830,-168 830,-174 824,-180 818,-180"/>
<text text-anchor="middle" x="783.5" y="-159.5" font-family="sans" font-size="10.00">extract_mapping</text>
</g>
<!-- 18&#45;&gt;35 -->
<g id="edge58" class="edge">
<title>18&#45;&gt;35</title>
<path fill="none" stroke="grey" stroke-width="2" d="M741.48,-287.97C749.44,-278.09 758.73,-265.05 764.5,-252 773.22,-232.28 778.04,-208.3 780.64,-190.2"/>
<polygon fill="grey" stroke="grey" stroke-width="2" points="784.14,-190.41 781.96,-180.04 777.2,-189.51 784.14,-190.41"/>
</g>
<!-- 19 -->
<g id="node20" class="node">
<title>19</title>
<path fill="none" stroke="#d8cb56" stroke-width="2" d="M736.5,-396C736.5,-396 706.5,-396 706.5,-396 700.5,-396 694.5,-390 694.5,-384 694.5,-384 694.5,-372 694.5,-372 694.5,-366 700.5,-360 706.5,-360 706.5,-360 736.5,-360 736.5,-360 742.5,-360 748.5,-366 748.5,-372 748.5,-372 748.5,-384 748.5,-384 748.5,-390 742.5,-396 736.5,-396"/>
<text text-anchor="middle" x="721.5" y="-375.5" font-family="sans" font-size="10.00">convert</text>
</g>
<!-- 19&#45;&gt;18 -->
<g id="edge36" class="edge">
<title>19&#45;&gt;18</title>
<path fill="none" stroke="grey" stroke-width="2" d="M722.74,-359.7C723.29,-351.98 723.95,-342.71 724.56,-334.11"/>
<polygon fill="grey" stroke="grey" stroke-width="2" points="728.06,-334.33 725.28,-324.1 721.07,-333.83 728.06,-334.33"/>
</g>
<!-- 20&#45;&gt;19 -->
<g id="edge37" class="edge">
<title>20&#45;&gt;19</title>
<path fill="none" stroke="grey" stroke-width="2" d="M714.72,-431.7C715.72,-423.98 716.91,-414.71 718.01,-406.11"/>
<polygon fill="grey" stroke="grey" stroke-width="2" points="721.5,-406.47 719.3,-396.1 714.55,-405.58 721.5,-406.47"/>
</g>
<!-- 21&#45;&gt;17 -->
<g id="edge35" class="edge">
<title>21&#45;&gt;17</title>
<path fill="none" stroke="grey" stroke-width="2" d="M715.89,-215.7C709.9,-207.47 702.62,-197.48 696.02,-188.42"/>
<polygon fill="grey" stroke="grey" stroke-width="2" points="698.68,-186.13 689.96,-180.1 693.02,-190.25 698.68,-186.13"/>
</g>
<!-- 21&#45;&gt;35 -->
<g id="edge59" class="edge">
<title>21&#45;&gt;35</title>
<path fill="none" stroke="grey" stroke-width="2" d="M742.1,-215.7C748.62,-207.39 756.57,-197.28 763.75,-188.14"/>
<polygon fill="grey" stroke="grey" stroke-width="2" points="766.63,-190.13 770.06,-180.1 761.13,-185.81 766.63,-190.13"/>
</g>
<!-- 22 -->
<g id="node23" class="node">
<title>22</title>
<path fill="none" stroke="#d88d56" stroke-width="2" d="M919,-180C919,-180 860,-180 860,-180 854,-180 848,-174 848,-168 848,-168 848,-156 848,-156 848,-150 854,-144 860,-144 860,-144 919,-144 919,-144 925,-144 931,-150 931,-156 931,-156 931,-168 931,-168 931,-174 925,-180 919,-180"/>
<text text-anchor="middle" x="889.5" y="-159.5" font-family="sans" font-size="10.00">calculate_stats</text>
</g>
<!-- 22&#45;&gt;0 -->
<g id="edge5" class="edge">
<title>22&#45;&gt;0</title>
<path fill="none" stroke="grey" stroke-width="2" d="M874.23,-143.77C855.62,-123.77 822.32,-91.11 787.5,-72 741.56,-46.79 682.27,-32.33 644.56,-25.07"/>
<polygon fill="grey" stroke="grey" stroke-width="2" points="644.99,-21.59 634.52,-23.21 643.72,-28.48 644.99,-21.59"/>
</g>
<!-- 22&#45;&gt;39 -->
<g id="edge67" class="edge">
<title>22&#45;&gt;39</title>
<path fill="none" stroke="grey" stroke-width="2" d="M847.9,-146.32C845.07,-145.49 842.25,-144.71 839.5,-144 752.97,-121.84 650.13,-105.96 589.54,-97.65"/>
<polygon fill="grey" stroke="grey" stroke-width="2" points="589.83,-94.16 579.45,-96.28 588.89,-101.09 589.83,-94.16"/>
</g>
<!-- 23 -->
<g id="node24" class="node">
<title>23</title>
<path fill="none" stroke="#5692d8" stroke-width="2" d="M927.5,-324C927.5,-324 897.5,-324 897.5,-324 891.5,-324 885.5,-318 885.5,-312 885.5,-312 885.5,-300 885.5,-300 885.5,-294 891.5,-288 897.5,-288 897.5,-288 927.5,-288 927.5,-288 933.5,-288 939.5,-294 939.5,-300 939.5,-300 939.5,-312 939.5,-312 939.5,-318 933.5,-324 927.5,-324"/>
<text text-anchor="middle" x="912.5" y="-303.5" font-family="sans" font-size="10.00">sort</text>
</g>
<!-- 23&#45;&gt;22 -->
<g id="edge40" class="edge">
<title>23&#45;&gt;22</title>
<path fill="none" stroke="grey" stroke-width="2" d="M909.73,-287.87C905.81,-263.67 898.6,-219.21 893.94,-190.39"/>
<polygon fill="grey" stroke="grey" stroke-width="2" points="897.34,-189.5 892.28,-180.19 890.43,-190.62 897.34,-189.5"/>
</g>
<!-- 26 -->
<g id="node27" class="node">
<title>26</title>
<path fill="none" stroke="#56d873" stroke-width="2" d="M955.5,-252C955.5,-252 925.5,-252 925.5,-252 919.5,-252 913.5,-246 913.5,-240 913.5,-240 913.5,-228 913.5,-228 913.5,-222 919.5,-216 925.5,-216 925.5,-216 955.5,-216 955.5,-216 961.5,-216 967.5,-222 967.5,-228 967.5,-228 967.5,-240 967.5,-240 967.5,-246 961.5,-252 955.5,-252"/>
<text text-anchor="middle" x="940.5" y="-231.5" font-family="sans" font-size="10.00">index</text>
</g>
<!-- 23&#45;&gt;26 -->
<g id="edge45" class="edge">
<title>23&#45;&gt;26</title>
<path fill="none" stroke="grey" stroke-width="2" d="M919.42,-287.7C922.57,-279.81 926.38,-270.3 929.88,-261.55"/>
<polygon fill="grey" stroke="grey" stroke-width="2" points="933.19,-262.69 933.66,-252.1 926.69,-260.09 933.19,-262.69"/>
</g>
<!-- 36 -->
<g id="node37" class="node">
<title>36</title>
<path fill="none" stroke="#afd856" stroke-width="2" d="M1030,-180C1030,-180 961,-180 961,-180 955,-180 949,-174 949,-168 949,-168 949,-156 949,-156 949,-150 955,-144 961,-144 961,-144 1030,-144 1030,-144 1036,-144 1042,-150 1042,-156 1042,-156 1042,-168 1042,-168 1042,-174 1036,-180 1030,-180"/>
<text text-anchor="middle" x="995.5" y="-159.5" font-family="sans" font-size="10.00">extract_mapping</text>
</g>
<!-- 23&#45;&gt;36 -->
<g id="edge60" class="edge">
<title>23&#45;&gt;36</title>
<path fill="none" stroke="grey" stroke-width="2" d="M939.58,-288.78C952.66,-279.59 967.45,-266.93 976.5,-252 987.79,-233.36 992.43,-208.97 994.31,-190.44"/>
<polygon fill="grey" stroke="grey" stroke-width="2" points="997.81,-190.54 995.13,-180.29 990.84,-189.98 997.81,-190.54"/>
</g>
<!-- 24 -->
<g id="node25" class="node">
<title>24</title>
<path fill="none" stroke="#d8cb56" stroke-width="2" d="M911.5,-396C911.5,-396 881.5,-396 881.5,-396 875.5,-396 869.5,-390 869.5,-384 869.5,-384 869.5,-372 869.5,-372 869.5,-366 875.5,-360 881.5,-360 881.5,-360 911.5,-360 911.5,-360 917.5,-360 923.5,-366 923.5,-372 923.5,-372 923.5,-384 923.5,-384 923.5,-390 917.5,-396 911.5,-396"/>
<text text-anchor="middle" x="896.5" y="-375.5" font-family="sans" font-size="10.00">convert</text>
</g>
<!-- 24&#45;&gt;23 -->
<g id="edge42" class="edge">
<title>24&#45;&gt;23</title>
<path fill="none" stroke="grey" stroke-width="2" d="M900.46,-359.7C902.22,-351.98 904.34,-342.71 906.3,-334.11"/>
<polygon fill="grey" stroke="grey" stroke-width="2" points="909.77,-334.63 908.59,-324.1 902.95,-333.07 909.77,-334.63"/>
</g>
<!-- 25&#45;&gt;24 -->
<g id="edge43" class="edge">
<title>25&#45;&gt;24</title>
<path fill="none" stroke="grey" stroke-width="2" d="M882.95,-431.7C884.95,-423.9 887.37,-414.51 889.6,-405.83"/>
<polygon fill="grey" stroke="grey" stroke-width="2" points="893,-406.66 892.1,-396.1 886.22,-404.92 893,-406.66"/>
</g>
<!-- 26&#45;&gt;22 -->
<g id="edge41" class="edge">
<title>26&#45;&gt;22</title>
<path fill="none" stroke="grey" stroke-width="2" d="M927.89,-215.7C921.9,-207.47 914.62,-197.48 908.02,-188.42"/>
<polygon fill="grey" stroke="grey" stroke-width="2" points="910.68,-186.13 901.96,-180.1 905.02,-190.25 910.68,-186.13"/>
</g>
<!-- 26&#45;&gt;36 -->
<g id="edge61" class="edge">
<title>26&#45;&gt;36</title>
<path fill="none" stroke="grey" stroke-width="2" d="M954.1,-215.7C960.62,-207.39 968.57,-197.28 975.75,-188.14"/>
<polygon fill="grey" stroke="grey" stroke-width="2" points="978.63,-190.13 982.06,-180.1 973.13,-185.81 978.63,-190.13"/>
</g>
<!-- 27 -->
<g id="node28" class="node">
<title>27</title>
<path fill="none" stroke="#d88d56" stroke-width="2" d="M1131,-180C1131,-180 1072,-180 1072,-180 1066,-180 1060,-174 1060,-168 1060,-168 1060,-156 1060,-156 1060,-150 1066,-144 1072,-144 1072,-144 1131,-144 1131,-144 1137,-144 1143,-150 1143,-156 1143,-156 1143,-168 1143,-168 1143,-174 1137,-180 1131,-180"/>
<text text-anchor="middle" x="1101.5" y="-159.5" font-family="sans" font-size="10.00">calculate_stats</text>
</g>
<!-- 27&#45;&gt;0 -->
<g id="edge6" class="edge">
<title>27&#45;&gt;0</title>
<path fill="none" stroke="grey" stroke-width="2" d="M1064.59,-143.89C1020.79,-124.16 945.15,-91.89 877.5,-72 796.04,-48.04 697.53,-31.8 644.92,-24.11"/>
<polygon fill="grey" stroke="grey" stroke-width="2" points="645.12,-20.61 634.72,-22.65 644.12,-27.53 645.12,-20.61"/>
</g>
<!-- 27&#45;&gt;40 -->
<g id="edge69" class="edge">
<title>27&#45;&gt;40</title>
<path fill="none" stroke="grey" stroke-width="2" d="M1059.92,-146.27C1057.08,-145.45 1054.26,-144.68 1051.5,-144 952.32,-119.51 833.75,-103.91 767.28,-96.38"/>
<polygon fill="grey" stroke="grey" stroke-width="2" points="767.4,-92.87 757.07,-95.24 766.62,-99.83 767.4,-92.87"/>
</g>
<!-- 28 -->
<g id="node29" class="node">
<title>28</title>
<path fill="none" stroke="#5692d8" stroke-width="2" d="M1139.5,-324C1139.5,-324 1109.5,-324 1109.5,-324 1103.5,-324 1097.5,-318 1097.5,-312 1097.5,-312 1097.5,-300 1097.5,-300 1097.5,-294 1103.5,-288 1109.5,-288 1109.5,-288 1139.5,-288 1139.5,-288 1145.5,-288 1151.5,-294 1151.5,-300 1151.5,-300 1151.5,-312 1151.5,-312 1151.5,-318 1145.5,-324 1139.5,-324"/>
<text text-anchor="middle" x="1124.5" y="-303.5" font-family="sans" font-size="10.00">sort</text>
</g>
<!-- 28&#45;&gt;27 -->
<g id="edge46" class="edge">
<title>28&#45;&gt;27</title>
<path fill="none" stroke="grey" stroke-width="2" d="M1121.73,-287.87C1117.81,-263.67 1110.6,-219.21 1105.94,-190.39"/>
<polygon fill="grey" stroke="grey" stroke-width="2" points="1109.34,-189.5 1104.28,-180.19 1102.43,-190.62 1109.34,-189.5"/>
</g>
<!-- 31 -->
<g id="node32" class="node">
<title>31</title>
<path fill="none" stroke="#56d873" stroke-width="2" d="M1167.5,-252C1167.5,-252 1137.5,-252 1137.5,-252 1131.5,-252 1125.5,-246 1125.5,-240 1125.5,-240 1125.5,-228 1125.5,-228 1125.5,-222 1131.5,-216 1137.5,-216 1137.5,-216 1167.5,-216 1167.5,-216 1173.5,-216 1179.5,-222 1179.5,-228 1179.5,-228 1179.5,-240 1179.5,-240 1179.5,-246 1173.5,-252 1167.5,-252"/>
<text text-anchor="middle" x="1152.5" y="-231.5" font-family="sans" font-size="10.00">index</text>
</g>
<!-- 28&#45;&gt;31 -->
<g id="edge51" class="edge">
<title>28&#45;&gt;31</title>
<path fill="none" stroke="grey" stroke-width="2" d="M1131.42,-287.7C1134.57,-279.81 1138.38,-270.3 1141.88,-261.55"/>
<polygon fill="grey" stroke="grey" stroke-width="2" points="1145.19,-262.69 1145.66,-252.1 1138.69,-260.09 1145.19,-262.69"/>
</g>
<!-- 37 -->
<g id="node38" class="node">
<title>37</title>
<path fill="none" stroke="#afd856" stroke-width="2" d="M1242,-180C1242,-180 1173,-180 1173,-180 1167,-180 1161,-174 1161,-168 1161,-168 1161,-156 1161,-156 1161,-150 1167,-144 1173,-144 1173,-144 1242,-144 1242,-144 1248,-144 1254,-150 1254,-156 1254,-156 1254,-168 1254,-168 1254,-174 1248,-180 1242,-180"/>
<text text-anchor="middle" x="1207.5" y="-159.5" font-family="sans" font-size="10.00">extract_mapping</text>
</g>
<!-- 28&#45;&gt;37 -->
<g id="edge62" class="edge">
<title>28&#45;&gt;37</title>
<path fill="none" stroke="grey" stroke-width="2" d="M1151.58,-288.78C1164.66,-279.59 1179.45,-266.93 1188.5,-252 1199.79,-233.36 1204.43,-208.97 1206.31,-190.44"/>
<polygon fill="grey" stroke="grey" stroke-width="2" points="1209.81,-190.54 1207.13,-180.29 1202.84,-189.98 1209.81,-190.54"/>
</g>
<!-- 29 -->
<g id="node30" class="node">
<title>29</title>
<path fill="none" stroke="#d8cb56" stroke-width="2" d="M1118.5,-396C1118.5,-396 1088.5,-396 1088.5,-396 1082.5,-396 1076.5,-390 1076.5,-384 1076.5,-384 1076.5,-372 1076.5,-372 1076.5,-366 1082.5,-360 1088.5,-360 1088.5,-360 1118.5,-360 1118.5,-360 1124.5,-360 1130.5,-366 1130.5,-372 1130.5,-372 1130.5,-384 1130.5,-384 1130.5,-390 1124.5,-396 1118.5,-396"/>
<text text-anchor="middle" x="1103.5" y="-375.5" font-family="sans" font-size="10.00">convert</text>
</g>
<!-- 29&#45;&gt;28 -->
<g id="edge48" class="edge">
<title>29&#45;&gt;28</title>
<path fill="none" stroke="grey" stroke-width="2" d="M1108.69,-359.7C1111.03,-351.9 1113.85,-342.51 1116.45,-333.83"/>
<polygon fill="grey" stroke="grey" stroke-width="2" points="1119.85,-334.69 1119.37,-324.1 1113.14,-332.68 1119.85,-334.69"/>
</g>
<!-- 30&#45;&gt;29 -->
<g id="edge49" class="edge">
<title>30&#45;&gt;29</title>
<path fill="none" stroke="grey" stroke-width="2" d="M1076.4,-431.7C1080.5,-423.73 1085.45,-414.1 1089.99,-405.26"/>
<polygon fill="grey" stroke="grey" stroke-width="2" points="1093.24,-406.6 1094.7,-396.1 1087.02,-403.4 1093.24,-406.6"/>
</g>
<!-- 31&#45;&gt;27 -->
<g id="edge47" class="edge">
<title>31&#45;&gt;27</title>
<path fill="none" stroke="grey" stroke-width="2" d="M1139.89,-215.7C1133.9,-207.47 1126.62,-197.48 1120.02,-188.42"/>
<polygon fill="grey" stroke="grey" stroke-width="2" points="1122.68,-186.13 1113.96,-180.1 1117.02,-190.25 1122.68,-186.13"/>
</g>
<!-- 31&#45;&gt;37 -->
<g id="edge63" class="edge">
<title>31&#45;&gt;37</title>
<path fill="none" stroke="grey" stroke-width="2" d="M1166.1,-215.7C1172.62,-207.39 1180.57,-197.28 1187.75,-188.14"/>
<polygon fill="grey" stroke="grey" stroke-width="2" points="1190.63,-190.13 1194.06,-180.1 1185.13,-185.81 1190.63,-190.13"/>
</g>
<!-- 32&#45;&gt;0 -->
<g id="edge7" class="edge">
<title>32&#45;&gt;0</title>
<path fill="none" stroke="grey" stroke-width="2" d="M70.88,-143.93C101.65,-123.29 156.94,-89.19 209.5,-72 337.11,-30.26 498,-21.33 569.85,-19.46"/>
<polygon fill="grey" stroke="grey" stroke-width="2" points="570.28,-22.95 580.2,-19.23 570.12,-15.96 570.28,-22.95"/>
</g>
<!-- 33&#45;&gt;0 -->
<g id="edge8" class="edge">
<title>33&#45;&gt;0</title>
<path fill="none" stroke="grey" stroke-width="2" d="M263.4,-143.88C270.21,-123.35 284.6,-89.53 309.5,-72 350.99,-42.8 499.42,-27.5 569.87,-21.74"/>
<polygon fill="grey" stroke="grey" stroke-width="2" points="570.39,-25.21 580.08,-20.93 569.83,-18.23 570.39,-25.21"/>
</g>
<!-- 34&#45;&gt;0 -->
<g id="edge9" class="edge">
<title>34&#45;&gt;0</title>
<path fill="none" stroke="grey" stroke-width="2" d="M469.31,-143.66C468.9,-124.17 471.15,-92.56 487.5,-72 507.93,-46.31 543.37,-32.75 570.46,-25.8"/>
<polygon fill="grey" stroke="grey" stroke-width="2" points="571.46,-29.16 580.39,-23.45 569.85,-22.35 571.46,-29.16"/>
</g>
<!-- 35&#45;&gt;0 -->
<g id="edge10" class="edge">
<title>35&#45;&gt;0</title>
<path fill="none" stroke="grey" stroke-width="2" d="M785.02,-143.73C785.79,-124 783.9,-91.89 766.5,-72 735.89,-37.02 681.58,-25.06 645.06,-21.01"/>
<polygon fill="grey" stroke="grey" stroke-width="2" points="645.09,-17.5 634.8,-20.03 644.42,-24.46 645.09,-17.5"/>
</g>
<!-- 36&#45;&gt;0 -->
<g id="edge11" class="edge">
<title>36&#45;&gt;0</title>
<path fill="none" stroke="grey" stroke-width="2" d="M967.91,-143.85C935.06,-124.09 878.03,-91.8 825.5,-72 763.92,-48.79 688.67,-33.13 644.61,-25.17"/>
<polygon fill="grey" stroke="grey" stroke-width="2" points="645.1,-21.7 634.64,-23.4 643.88,-28.59 645.1,-21.7"/>
</g>
<!-- 37&#45;&gt;0 -->
<g id="edge12" class="edge">
<title>37&#45;&gt;0</title>
<path fill="none" stroke="grey" stroke-width="2" d="M1163.74,-143.94C1111.38,-124.12 1020.71,-91.61 940.5,-72 834.6,-46.11 706.56,-29.84 644.63,-22.9"/>
<polygon fill="grey" stroke="grey" stroke-width="2" points="644.88,-19.4 634.56,-21.78 644.11,-26.36 644.88,-19.4"/>
</g>
<!-- 38&#45;&gt;0 -->
<g id="edge13" class="edge">
<title>38&#45;&gt;0</title>
<path fill="none" stroke="grey" stroke-width="2" d="M401.05,-76.26C405.92,-74.8 410.82,-73.36 415.5,-72 469.31,-56.41 531.92,-39.32 570.63,-28.88"/>
<polygon fill="grey" stroke="grey" stroke-width="2" points="571.67,-32.23 580.41,-26.24 569.85,-25.47 571.67,-32.23"/>
</g>
<!-- 39&#45;&gt;0 -->
<g id="edge14" class="edge">
<title>39&#45;&gt;0</title>
<path fill="none" stroke="grey" stroke-width="2" d="M554.8,-71.7C563.36,-63.14 573.84,-52.66 583.2,-43.3"/>
<polygon fill="grey" stroke="grey" stroke-width="2" points="585.8,-45.65 590.4,-36.1 580.85,-40.7 585.8,-45.65"/>
</g>
<!-- 40&#45;&gt;0 -->
<g id="edge15" class="edge">
<title>40&#45;&gt;0</title>
<path fill="none" stroke="grey" stroke-width="2" d="M689.08,-71.88C675.09,-62.81 657.72,-51.55 642.61,-41.76"/>
<polygon fill="grey" stroke="grey" stroke-width="2" points="644.32,-38.69 634.02,-36.19 640.51,-44.57 644.32,-38.69"/>
</g>
</g>
</svg>
